<svg width="197" height="213" viewBox="0 0 197 213" fill="none" xmlns="http://www.w3.org/2000/svg">
<path d="M24.9418 35.3502C22.5718 36.9202 18.9818 34.5002 19.1018 31.6602C19.2218 28.8202 22.3418 26.7002 25.1518 27.1202C27.9618 27.5402 30.1918 29.9602 30.9818 32.6902C32.5718 38.2202 28.4618 44.4202 22.9118 45.9302C17.3618 47.4402 11.1818 44.7402 7.72182 40.1402C4.26182 35.5402 3.28182 29.4102 4.12182 23.7202C5.26182 16.0702 9.68182 8.88016 16.2518 4.80016C22.8218 0.720156 31.4718 0.0101573 38.4418 3.36016C44.5218 6.29016 48.9018 11.9002 52.0518 17.8702C57.4518 28.1002 59.8018 39.9102 58.7318 51.4302C57.2818 67.0402 49.8418 81.3802 45.4118 96.4302C41.9018 108.38 40.2918 121.06 42.3918 133.34C44.4918 145.62 50.5618 157.45 60.3618 165.12C70.5418 173.08 83.6518 175.98 95.5218 181.08C96.4918 181.5 97.5218 181.98 98.0618 182.89C98.5418 183.7 98.5518 184.7 98.5418 185.64C98.4718 194.46 98.3918 203.28 98.3218 212.1C79.2118 212.91 59.7218 209.27 42.9218 200.14C26.1218 191.01 12.1618 176.2 5.52182 158.26C-2.57818 136.36 0.741824 111.27 11.2018 90.4002C16.2518 80.3202 22.8218 71.1002 28.1618 61.1802C33.1618 51.8802 39.1318 39.3102 35.9518 28.5502C34.3518 23.1502 29.7018 18.3702 24.0818 18.0502C22.6518 17.9702 21.1918 18.1802 19.9118 18.8302C17.4618 20.0802 16.0418 22.8002 15.6518 25.5302C14.8418 31.2102 15.8918 41.3302 23.7218 40.2902" fill="black"/>
<path d="M24.9418 35.3502C22.5718 36.9202 18.9818 34.5002 19.1018 31.6602C19.2218 28.8202 22.3418 26.7002 25.1518 27.1202C27.9618 27.5402 30.1918 29.9602 30.9818 32.6902C32.5718 38.2202 28.4618 44.4202 22.9118 45.9302C17.3618 47.4402 11.1818 44.7402 7.72182 40.1402C4.26182 35.5402 3.28182 29.4102 4.12182 23.7202C5.26182 16.0702 9.68182 8.88016 16.2518 4.80016C22.8218 0.720156 31.4718 0.0101573 38.4418 3.36016C44.5218 6.29016 48.9018 11.9002 52.0518 17.8702C57.4518 28.1002 59.8018 39.9102 58.7318 51.4302C57.2818 67.0402 49.8418 81.3802 45.4118 96.4302C41.9018 108.38 40.2918 121.06 42.3918 133.34C44.4918 145.62 50.5618 157.45 60.3618 165.12C70.5418 173.08 83.6518 175.98 95.5218 181.08C96.4918 181.5 97.5218 181.98 98.0618 182.89C98.5418 183.7 98.5518 184.7 98.5418 185.64C98.4718 194.46 98.3918 203.28 98.3218 212.1C79.2118 212.91 59.7218 209.27 42.9218 200.14C26.1218 191.01 12.1618 176.2 5.52182 158.26C-2.57818 136.36 0.741824 111.27 11.2018 90.4002C16.2518 80.3202 22.8218 71.1002 28.1618 61.1802C33.1618 51.8802 39.1318 39.3102 35.9518 28.5502C34.3518 23.1502 29.7018 18.3702 24.0818 18.0502C22.6518 17.9702 21.1918 18.1802 19.9118 18.8302C17.4618 20.0802 16.0418 22.8002 15.6518 25.5302C14.8418 31.2102 15.8918 41.3302 23.7218 40.2902" stroke="black" stroke-miterlimit="10"/>
<path d="M171.772 35.1802C174.142 36.7502 177.732 34.3302 177.612 31.4902C177.492 28.6502 174.372 26.5302 171.562 26.9502C168.752 27.3702 166.522 29.7902 165.732 32.5202C164.142 38.0502 168.252 44.2502 173.802 45.7602C179.352 47.2702 185.532 44.5702 188.992 39.9702C192.452 35.3802 193.432 29.2402 192.592 23.5502C191.452 15.9002 187.032 8.71024 180.462 4.63024C173.892 0.550236 165.242 -0.159766 158.272 3.19023C152.192 6.12023 147.812 11.7302 144.662 17.7002C139.262 27.9302 136.912 39.7402 137.982 51.2602C139.432 66.8702 146.872 81.2102 151.302 96.2602C154.812 108.21 156.422 120.89 154.322 133.17C152.222 145.44 146.152 157.28 136.352 164.95C126.172 172.91 113.062 175.81 101.192 180.91C100.222 181.33 99.1919 181.81 98.6519 182.72C98.1719 183.53 98.1619 184.53 98.1719 185.47C98.2419 194.29 98.3219 203.11 98.3919 211.93C117.502 212.74 136.992 209.1 153.792 199.97C170.602 190.84 184.552 176.03 191.192 158.09C199.292 136.19 195.972 111.1 185.512 90.2302C180.462 80.1502 173.892 70.9302 168.552 61.0102C163.552 51.7102 157.582 39.1402 160.762 28.3802C162.362 22.9802 167.012 18.2002 172.632 17.8802C174.062 17.8002 175.522 18.0102 176.802 18.6602C179.252 19.9102 180.672 22.6302 181.062 25.3602C181.872 31.0402 180.822 41.1602 172.992 40.1202" fill="black"/>
<path d="M171.772 35.1802C174.142 36.7502 177.732 34.3302 177.612 31.4902C177.492 28.6502 174.372 26.5302 171.562 26.9502C168.752 27.3702 166.522 29.7902 165.732 32.5202C164.142 38.0502 168.252 44.2502 173.802 45.7602C179.352 47.2702 185.532 44.5702 188.992 39.9702C192.452 35.3802 193.432 29.2402 192.592 23.5502C191.452 15.9002 187.032 8.71024 180.462 4.63024C173.892 0.550236 165.242 -0.159766 158.272 3.19023C152.192 6.12023 147.812 11.7302 144.662 17.7002C139.262 27.9302 136.912 39.7402 137.982 51.2602C139.432 66.8702 146.872 81.2102 151.302 96.2602C154.812 108.21 156.422 120.89 154.322 133.17C152.222 145.44 146.152 157.28 136.352 164.95C126.172 172.91 113.062 175.81 101.192 180.91C100.222 181.33 99.1919 181.81 98.6519 182.72C98.1719 183.53 98.1619 184.53 98.1719 185.47C98.2419 194.29 98.3219 203.11 98.3919 211.93C117.502 212.74 136.992 209.1 153.792 199.97C170.602 190.84 184.552 176.03 191.192 158.09C199.292 136.19 195.972 111.1 185.512 90.2302C180.462 80.1502 173.892 70.9302 168.552 61.0102C163.552 51.7102 157.582 39.1402 160.762 28.3802C162.362 22.9802 167.012 18.2002 172.632 17.8802C174.062 17.8002 175.522 18.0102 176.802 18.6602C179.252 19.9102 180.672 22.6302 181.062 25.3602C181.872 31.0402 180.822 41.1602 172.992 40.1202" stroke="black" stroke-miterlimit="10"/>
<path d="M109.522 177.66C109.522 177.66 101.612 181.29 84.2417 176.76L96.8817 212.05L101.792 212.22L109.522 178.08" fill="black"/>
<path d="M109.522 177.66C109.522 177.66 101.612 181.29 84.2417 176.76L96.8817 212.05L101.792 212.22L109.522 178.08" stroke="black" stroke-miterlimit="10"/>
<path d="M51.832 156.23H144.752L141.032 160.68H53.812L51.832 156.23Z" fill="black" stroke="black" stroke-miterlimit="10"/>
<path d="M58.8819 42.1801H139.172V38.1201H58.4619L58.8819 42.1801Z" fill="black" stroke="black" stroke-miterlimit="10"/>
<path d="M63.0518 38.3901V158.27" stroke="black" stroke-width="2" stroke-miterlimit="10"/>
<path d="M73.832 38.3901V158.27" stroke="black" stroke-width="2" stroke-miterlimit="10"/>
<path d="M83.3521 38.3901V158.27" stroke="black" stroke-width="2" stroke-miterlimit="10"/>
<path d="M94.1318 38.3901V158.27" stroke="black" stroke-width="2" stroke-miterlimit="10"/>
<path d="M102.382 40.2903V160.17" stroke="black" stroke-width="2" stroke-miterlimit="10"/>
<path d="M113.162 40.2903V160.17" stroke="black" stroke-width="2" stroke-miterlimit="10"/>
<path d="M122.672 40.2903V160.17" stroke="black" stroke-width="2" stroke-miterlimit="10"/>
<path d="M133.462 40.2903V160.17" stroke="black" stroke-width="2" stroke-miterlimit="10"/>
</svg>
