<svg width="206" height="221" viewBox="0 0 206 221" fill="none" xmlns="http://www.w3.org/2000/svg">
<path d="M152.722 19.29C152.212 18.6 151.692 17.92 151.152 17.25L151.412 16.79C151.852 17.62 152.282 18.45 152.712 19.29H152.722Z" fill="black"/>
<path d="M35.7815 56.3801C35.7815 56.3801 35.7715 56.4101 35.7715 56.4201C35.7715 56.4101 35.7715 56.4001 35.7715 56.3801H35.7815Z" fill="black"/>
<path d="M41.4619 43.7803C41.4619 43.7803 41.4319 43.8203 41.4219 43.8403C41.4219 43.8403 41.4219 43.8303 41.4219 43.8203C41.4319 43.8103 41.4419 43.7903 41.4519 43.7803H41.4619Z" fill="black"/>
<path d="M93.1619 128.46C92.0019 128.56 90.8319 128.64 89.6519 128.71C89.2519 128.73 88.8319 128.76 88.4219 128.77C88.4419 128.66 88.4519 128.56 88.4619 128.46C88.6519 128.46 88.8519 128.46 89.0419 128.46C89.2319 128.46 89.4319 128.46 89.6219 128.46C90.7519 128.46 91.8719 128.41 92.9719 128.33C93.0319 128.38 93.0919 128.42 93.1519 128.47L93.1619 128.46Z" fill="black"/>
<path d="M93.1616 128.46C92.0016 128.56 90.8316 128.64 89.6516 128.71C89.6416 128.63 89.6316 128.54 89.6216 128.46C90.7516 128.46 91.8716 128.41 92.9716 128.33C93.0316 128.38 93.0916 128.42 93.1516 128.47L93.1616 128.46Z" fill="black"/>
<path d="M205.742 73.3402C205.742 87.8102 201.342 101.25 193.802 112.39C185.312 119.47 176.092 125.7 166.262 130.95C156.992 135.91 147.182 140 136.952 143.11C136.272 143.32 135.582 143.52 134.892 143.72C121.982 147.46 108.422 149.65 94.4117 150.08C92.7317 150.13 91.0417 150.16 89.3517 150.16C87.4617 150.16 85.5817 150.13 83.7117 150.07C76.9817 149.84 70.3617 149.21 63.8717 148.18C46.6017 159.95 34.9017 179.26 33.4917 201.38C16.9417 179.51 5.7817 153.34 1.9617 124.84C1.0017 117.68 0.511719 110.37 0.511719 102.96C0.511719 99.5902 0.611707 96.2502 0.811707 92.9402C1.33171 84.3902 2.50171 76.0202 4.28171 67.8802C6.37171 58.3302 9.3017 49.0902 12.9917 40.2402C15.5117 34.1802 18.3817 28.3102 21.6017 22.6402C26.0817 14.7202 31.2117 7.21016 36.9017 0.180157C40.7017 7.04016 45.8817 13.0702 52.0817 17.9102C55.1217 20.2802 58.4017 22.3702 61.8817 24.1302C67.8117 27.1302 74.3417 29.1702 81.2417 30.0502C83.7917 30.3802 86.4017 30.5502 89.0417 30.5502C98.8317 30.5502 108.072 28.2302 116.212 24.1302C125.052 19.6702 132.592 13.1102 138.132 5.11016C138.472 4.62016 138.792 4.14016 139.122 3.64016C139.862 2.51016 140.562 1.34016 141.212 0.160156C141.032 0.480156 143.912 4.15016 144.222 4.63016C149.562 12.8702 154.192 21.4902 158.102 30.5002C161.862 39.1502 165.142 48.4802 164.342 58.0702C163.592 67.1002 161.352 75.7402 156.942 83.7001C156.252 84.9501 155.522 86.1902 154.742 87.3802C153.792 88.8402 152.782 90.2602 151.712 91.6302C146.432 98.4302 139.712 104.12 132.002 108.26C137.152 102.04 140.972 94.6802 143.032 86.6102C144.162 82.1902 144.772 77.5502 144.772 72.7702C144.772 61.8702 141.642 51.7102 136.242 43.1302L145.382 27.3002C140.302 29.7902 135.462 32.7102 130.902 35.9902C106.342 53.6802 90.0917 82.1702 89.1117 114.51C89.0817 114.51 89.0517 114.5 89.0117 114.49C88.3517 92.6602 80.7217 72.5702 68.2817 56.3902C62.3017 48.6102 55.2017 41.7202 47.2317 35.9802C45.9617 35.0602 44.6617 34.1702 43.3417 33.3202C41.5917 32.1802 39.8117 31.0902 37.9917 30.0602L42.0417 37.0702L43.8617 40.2202C43.5017 40.7202 43.1417 41.2302 42.8017 41.7402C42.6617 41.9502 42.5217 42.1502 42.4017 42.3602C42.2017 42.6602 42.0017 42.9802 41.8117 43.2902C41.7817 43.3402 41.7517 43.3802 41.7217 43.4202C41.7217 43.4302 41.7017 43.4502 41.7017 43.4602C41.7017 43.4702 41.6817 43.4902 41.6817 43.5002C41.6617 43.5402 41.6317 43.5802 41.6117 43.6102C41.5817 43.6602 41.5517 43.7002 41.5217 43.7502C41.5217 43.7602 41.5017 43.7802 41.5017 43.7902C41.4917 43.8002 41.4817 43.8202 41.4717 43.8302C41.4717 43.8302 41.4717 43.8402 41.4717 43.8502C41.4717 43.8602 41.4517 43.8802 41.4417 43.8902C41.3717 44.0102 41.3017 44.1202 41.2317 44.2402C41.2017 44.2902 41.1717 44.3502 41.1417 44.4002C41.0117 44.6202 40.8917 44.8302 40.7617 45.0502C40.7317 45.0902 40.7117 45.1402 40.6817 45.1802C40.6617 45.2202 40.6417 45.2502 40.6217 45.2902C40.5817 45.3402 40.5617 45.4002 40.5217 45.4602C40.4917 45.5102 40.4617 45.5702 40.4317 45.6202C40.4217 45.6402 40.4117 45.6602 40.3917 45.6802C40.2317 45.9602 40.0817 46.2402 39.9317 46.5202C39.8017 46.7702 39.6717 47.0102 39.5417 47.2602C39.4117 47.5102 39.2917 47.7502 39.1617 48.0002C39.0017 48.3202 38.8517 48.6302 38.7017 48.9602C38.6117 49.1402 38.5217 49.3202 38.4417 49.5102C38.2117 50.0102 37.9817 50.5202 37.7717 51.0402C37.6617 51.2902 37.5517 51.5502 37.4517 51.8102C37.3417 52.0602 37.2417 52.3202 37.1517 52.5702C37.1317 52.6202 37.1117 52.6802 37.0917 52.7302C37.0717 52.7802 37.0517 52.8302 37.0417 52.8802C36.9617 53.0702 36.8917 53.2602 36.8217 53.4502C36.7717 53.5902 36.7117 53.7302 36.6717 53.8702C36.6517 53.9102 36.6417 53.9402 36.6317 53.9802C36.6317 53.9902 36.6317 54.0002 36.6217 54.0202C36.6217 54.0202 36.6217 54.0302 36.6217 54.0402C36.6217 54.0502 36.6217 54.0502 36.6117 54.0702C36.6117 54.0802 36.6017 54.0902 36.6017 54.1102C36.5517 54.2402 36.5117 54.3802 36.4617 54.5102C36.3617 54.7902 36.2717 55.0702 36.1717 55.3502C36.0817 55.6302 35.9917 55.9102 35.9017 56.1902C35.8817 56.2502 35.8617 56.3202 35.8317 56.4002C35.8317 56.4202 35.8317 56.4202 35.8317 56.4402C35.8217 56.4702 35.8117 56.5002 35.8017 56.5302C35.7917 56.5702 35.7817 56.6102 35.7617 56.6502C35.7517 56.6802 35.7417 56.7102 35.7317 56.7402C35.7317 56.7602 35.7217 56.7802 35.7117 56.8002C35.7117 56.8002 35.7117 56.8102 35.7117 56.8202C35.7117 56.8402 35.7017 56.8702 35.6917 56.8902C35.5617 57.3202 35.4417 57.7602 35.3217 58.1902C35.2517 58.4402 35.1917 58.6802 35.1217 58.9302C35.0617 59.1902 34.9917 59.4502 34.9317 59.7202C34.9317 59.7202 34.9317 59.7302 34.9317 59.7402C34.9217 59.7802 34.9117 59.8202 34.9017 59.8602C34.9017 59.8602 34.9017 59.8802 34.9017 59.9002V59.9202C34.9017 59.9502 34.8817 59.9802 34.8817 60.0102C34.8817 60.0402 34.8617 60.0702 34.8617 60.1102C34.8617 60.1502 34.8517 60.1702 34.8417 60.2102C34.8317 60.2602 34.8217 60.3202 34.8017 60.3702C34.7417 60.6302 34.6817 60.8902 34.6317 61.1402C34.6117 61.2302 34.5917 61.3202 34.5817 61.4002C34.5217 61.6802 34.4717 61.9502 34.4217 62.2302C34.3517 62.6002 34.2817 62.9702 34.2217 63.3402C34.1717 63.5702 34.1417 63.8002 34.1017 64.0302C34.0817 64.1902 34.0517 64.3602 34.0217 64.5302C33.9917 64.6902 33.9717 64.8602 33.9517 65.0302C33.9517 65.0901 33.9317 65.1502 33.9317 65.2102C33.8917 65.4802 33.8517 65.7502 33.8217 66.0202C33.7717 66.3902 33.7317 66.7602 33.7017 67.1302C33.6717 67.5002 33.6317 67.8702 33.6017 68.2402C33.5817 68.4902 33.5617 68.7502 33.5417 69.0102C33.5417 69.0802 33.5317 69.1402 33.5317 69.2202C33.5317 69.3502 33.5117 69.4802 33.5117 69.6102C33.5117 69.6802 33.5117 69.7402 33.5017 69.8102C33.5017 69.8801 33.5017 69.9402 33.5017 70.0102C33.4917 70.2602 33.4817 70.5002 33.4717 70.7502C33.4617 71.0402 33.4517 71.3202 33.4417 71.6202V71.6602C33.4417 72.0202 33.4317 72.3902 33.4317 72.7602C33.4317 85.0402 37.4017 96.3802 44.1317 105.59C54.1517 119.32 70.3117 128.28 88.5617 128.47C88.5617 128.58 88.5417 128.68 88.5217 128.78C88.9317 128.77 89.3417 128.74 89.7517 128.72C90.9217 128.66 92.1017 128.57 93.2617 128.47C124.362 125.78 151.832 110.46 170.542 87.6702C181.682 74.1102 189.712 57.9202 193.562 40.1402C193.912 38.5202 194.232 36.8802 194.512 35.2302C194.852 35.7402 195.182 36.2602 195.502 36.7802C202.062 47.4102 205.842 59.9302 205.842 73.3402H205.742Z" fill="black"/>
<path d="M35.7815 56.3801C35.7815 56.3801 35.7715 56.4101 35.7715 56.4201C35.7715 56.4101 35.7715 56.4001 35.7715 56.3801H35.7815Z" fill="black"/>
<path d="M89.0917 114.49C89.0617 115.53 89.0417 116.57 89.0417 117.61C89.0417 116.56 89.0217 115.52 88.9917 114.47C89.0317 114.47 89.0617 114.49 89.0917 114.49Z" fill="black"/>
<path d="M41.4619 43.7803C41.4619 43.7803 41.4319 43.8203 41.4219 43.8403C41.4219 43.8403 41.4219 43.8303 41.4219 43.8203C41.4319 43.8103 41.4419 43.7903 41.4519 43.7803H41.4619Z" fill="black"/>
<path d="M35.7815 56.3801C35.7815 56.3801 35.7715 56.4101 35.7715 56.4201C35.7715 56.4101 35.7715 56.4001 35.7715 56.3801H35.7815Z" fill="black"/>
<path d="M41.4619 43.7803C41.4619 43.7803 41.4319 43.8203 41.4219 43.8403C41.4219 43.8403 41.4219 43.8303 41.4219 43.8203C41.4319 43.8103 41.4419 43.7903 41.4519 43.7803H41.4619Z" fill="black"/>
<path d="M35.7815 56.3801C35.7815 56.3801 35.7715 56.4101 35.7715 56.4201C35.7715 56.4101 35.7715 56.4001 35.7715 56.3801H35.7815Z" fill="black"/>
<path d="M41.4619 43.7803C41.4619 43.7803 41.4319 43.8203 41.4219 43.8403C41.4219 43.8403 41.4219 43.8303 41.4219 43.8203C41.4319 43.8103 41.4419 43.7903 41.4519 43.7803H41.4619Z" fill="black"/>
<path d="M93.1619 128.46C92.0019 128.56 90.8319 128.64 89.6519 128.71C89.2519 128.73 88.8319 128.76 88.4219 128.77C88.4419 128.66 88.4519 128.56 88.4619 128.46C88.6519 128.46 88.8519 128.46 89.0419 128.46C89.2319 128.46 89.4319 128.46 89.6219 128.46C90.7519 128.46 91.8719 128.41 92.9719 128.33C93.0319 128.38 93.0919 128.42 93.1519 128.47L93.1619 128.46Z" fill="black"/>
<path d="M35.7815 56.3801C35.7815 56.3801 35.7715 56.4101 35.7715 56.4201C35.7715 56.4101 35.7715 56.4001 35.7715 56.3801H35.7815Z" fill="black"/>
<path d="M41.4619 43.7803C41.4619 43.7803 41.4319 43.8203 41.4219 43.8403C41.4219 43.8403 41.4219 43.8303 41.4219 43.8203C41.4319 43.8103 41.4419 43.7903 41.4519 43.7803H41.4619Z" fill="black"/>
<path d="M93.1619 128.46C92.0019 128.56 90.8319 128.64 89.6519 128.71C89.2519 128.73 88.8319 128.76 88.4219 128.77C88.4419 128.66 88.4519 128.56 88.4619 128.46C88.6519 128.46 88.8519 128.46 89.0419 128.46C89.2319 128.46 89.4319 128.46 89.6219 128.46C90.7519 128.46 91.8719 128.41 92.9719 128.33C93.0319 128.38 93.0919 128.42 93.1519 128.47L93.1619 128.46Z" fill="black"/>
<path d="M41.4619 43.7803C41.4619 43.7803 41.4319 43.8203 41.4219 43.8403C41.4219 43.8403 41.4219 43.8303 41.4219 43.8203C41.4319 43.8103 41.4419 43.7903 41.4519 43.7803H41.4619Z" fill="black"/>
<path d="M57.6715 89.4602C60.9079 89.4602 63.5315 86.8366 63.5315 83.6002C63.5315 80.3638 60.9079 77.7402 57.6715 77.7402C54.4352 77.7402 51.8115 80.3638 51.8115 83.6002C51.8115 86.8366 54.4352 89.4602 57.6715 89.4602Z" fill="black"/>
<path d="M115.142 89.4602C118.378 89.4602 121.002 86.8366 121.002 83.6002C121.002 80.3638 118.378 77.7402 115.142 77.7402C111.905 77.7402 109.282 80.3638 109.282 83.6002C109.282 86.8366 111.905 89.4602 115.142 89.4602Z" fill="black"/>
<path d="M55.9119 164.52C55.9119 164.52 55.9118 156.65 103.112 157.06C150.292 157.48 194.162 119.59 194.212 119.55C193.922 119.8 194.862 124.31 194.902 124.78C196.032 139.6 190.692 154.38 178.382 163.27C168.212 170.61 154.512 173.72 142.122 173.39C127.452 173 113.662 168.06 99.4119 165.27C92.1319 163.84 84.7518 162.78 77.3318 162.54C75.3918 162.48 55.9019 162.71 55.9019 164.51L55.9119 164.52Z" fill="black"/>
<path d="M48.2915 174.49C48.2915 174.49 60.0215 161.59 85.2315 166.87C110.442 172.15 126.282 184.46 145.042 180.94C163.792 177.43 177.262 169.23 177.292 169.21C176.592 169.64 175.802 173.1 175.452 173.87C173.642 177.76 171.321 181.72 168.371 184.85C162.211 191.37 154.851 195.7 145.841 196.88C123.581 199.79 101.821 187.88 82.9415 177.72C79.1715 175.69 75.3315 173.7 71.1715 172.66C63.6515 170.78 55.5715 173.73 48.3015 175.65" fill="black"/>
<path d="M42.0418 199.74C41.0818 186 59.2918 177.19 70.8318 179.46C76.1018 180.49 80.7418 183.36 85.0718 186.42C89.5018 189.55 94.3418 192.05 99.3418 194.19C109.842 198.69 121.102 201.33 132.482 202.23C138.592 202.71 146.412 203.57 152.012 200.3C151.072 200.85 149.652 205.82 148.912 206.91C142.642 216.25 130.412 220.17 119.622 220.45C108.942 220.72 97.1318 218.1 87.6218 213.19C83.0018 210.8 78.6818 207.82 74.8418 204.3C69.8818 199.75 65.1918 193.85 58.2818 192.33C51.1018 190.75 47.1118 195.87 42.0418 199.74Z" fill="black"/>
</svg>
