<svg width="138" height="42" viewBox="0 0 138 42" fill="none" xmlns="http://www.w3.org/2000/svg">
<rect opacity="0.84" y="0.304443" width="137" height="41.6957" rx="20.8478" fill="url(#paint0_linear_383_144)"/>
<path d="M45.0203 23.3716H47.5779C47.701 24.4175 48.7908 25.103 50.1971 25.103C51.6121 25.103 52.5789 24.4263 52.5789 23.4946C52.5789 22.6685 51.9724 22.2114 50.4431 21.8687L48.7908 21.5083C46.4529 21.0073 45.3015 19.8208 45.3015 17.9663C45.3015 15.6284 47.323 14.0815 50.1531 14.0815C53.1062 14.0815 54.9607 15.6021 55.0047 17.896H52.5174C52.4295 16.8237 51.489 16.1733 50.1619 16.1733C48.8523 16.1733 47.9734 16.7974 47.9734 17.7378C47.9734 18.52 48.5887 18.9595 50.0476 19.2935L51.5857 19.6187C54.1258 20.1636 55.2332 21.2534 55.2332 23.187C55.2332 25.6479 53.2381 27.2036 50.0916 27.2036C47.0418 27.2036 45.0994 25.7534 45.0203 23.3716ZM56.3922 26.9839V17.562H58.9586V26.9839H56.3922ZM57.6754 16.5249C56.9019 16.5249 56.3043 15.936 56.3043 15.1978C56.3043 14.4507 56.9019 13.8706 57.6754 13.8706C58.4488 13.8706 59.0465 14.4507 59.0465 15.1978C59.0465 15.936 58.4488 16.5249 57.6754 16.5249ZM64.723 24.98C66.0062 24.98 66.8236 23.9604 66.8236 22.2554C66.8236 20.5591 66.0062 19.4692 64.723 19.4692C63.4574 19.4692 62.6576 20.5415 62.6576 22.2554C62.6576 23.978 63.4486 24.98 64.723 24.98ZM64.6791 30.5347C62.2006 30.5347 60.5219 29.3306 60.3197 27.6519H62.8334C63.0355 28.3022 63.7738 28.7505 64.7494 28.7505C66.0765 28.7505 66.8148 28.0122 66.8148 26.9224V25.27H66.7621C66.3226 26.272 65.2152 26.9575 63.8529 26.9575C61.5502 26.9575 60.0297 25.1821 60.0297 22.2378C60.0297 19.2495 61.5062 17.4126 63.8969 17.4126C65.2504 17.4126 66.3138 18.1245 66.806 19.2056H66.85V17.562H69.3812V26.8521C69.3812 29.1021 67.5004 30.5347 64.6791 30.5347ZM79.4611 17.562V26.9839H76.9826V25.2876H76.9299C76.464 26.4741 75.5324 27.1597 74.1086 27.1597C72.0695 27.1597 70.716 25.8325 70.716 23.6353V17.562H73.2824V23.0991C73.2824 24.356 73.9064 25.0239 75.0402 25.0239C76.1828 25.0239 76.8947 24.2065 76.8947 22.9585V17.562H79.4611ZM80.875 26.9839V17.562H83.4414V26.9839H80.875ZM82.1582 16.5249C81.3847 16.5249 80.7871 15.936 80.7871 15.1978C80.7871 14.4507 81.3847 13.8706 82.1582 13.8706C82.9316 13.8706 83.5293 14.4507 83.5293 15.1978C83.5293 15.936 82.9316 16.5249 82.1582 16.5249ZM89.0828 19.2583C87.9578 19.2583 87.1492 20.1108 87.0613 21.2886H91.0603C91.0076 20.0845 90.2254 19.2583 89.0828 19.2583ZM91.0955 24.1011H93.451C93.1697 25.9468 91.4822 27.186 89.1531 27.186C86.2527 27.186 84.5125 25.3315 84.5125 22.3169C84.5125 19.311 86.2703 17.3599 89.0564 17.3599C91.7986 17.3599 93.5301 19.2144 93.5301 22.0796V22.8618H87.0349V23.02C87.0349 24.3647 87.8875 25.2876 89.1971 25.2876C90.1375 25.2876 90.8582 24.8218 91.0955 24.1011ZM94.5572 26.9839V17.562H97.0357V19.2407H97.0885C97.5894 18.0718 98.5826 17.3862 100.033 17.3862C102.125 17.3862 103.302 18.7046 103.302 20.9106V26.9839H100.736V21.4468C100.736 20.2163 100.156 19.5132 99.0045 19.5132C97.8531 19.5132 97.1236 20.3569 97.1236 21.5786V26.9839H94.5572ZM105.314 15.3911H107.88V17.562H109.62V19.4956H107.88V24.0044C107.88 24.7251 108.232 25.0679 108.988 25.0679C109.216 25.0679 109.453 25.0503 109.612 25.0239V26.9136C109.348 26.9751 108.909 27.019 108.39 27.019C106.175 27.019 105.314 26.2808 105.314 24.4438V19.4956H103.987V17.562H105.314V15.3911ZM114.814 19.2583C113.689 19.2583 112.88 20.1108 112.792 21.2886H116.791C116.738 20.0845 115.956 19.2583 114.814 19.2583ZM116.826 24.1011H119.182C118.901 25.9468 117.213 27.186 114.884 27.186C111.984 27.186 110.243 25.3315 110.243 22.3169C110.243 19.311 112.001 17.3599 114.787 17.3599C117.529 17.3599 119.261 19.2144 119.261 22.0796V22.8618H112.766V23.02C112.766 24.3647 113.618 25.2876 114.928 25.2876C115.868 25.2876 116.589 24.8218 116.826 24.1011Z" fill="white"/>
<path d="M20.8937 15.6697L20.9821 15.6726C21.2831 15.6898 21.5594 15.7959 21.8109 15.9911L27.6982 21.338C28.0361 21.6579 28.1958 22.0502 28.1771 22.5152C28.1396 22.979 27.934 23.3492 27.56 23.6261L20.9402 28.3213C20.7402 28.4597 20.4787 28.5356 20.1556 28.549C19.5679 28.526 19.1328 28.2625 18.8502 27.7586C18.6114 27.2569 18.6291 26.7718 18.9028 26.3036C19.0962 26.0468 19.2297 25.9049 19.303 25.8781L24.366 22.2851L19.9038 18.2295C19.8343 18.1943 19.7191 18.0372 19.558 17.7589C19.3425 17.261 19.3832 16.7774 19.6804 16.3083C19.9904 15.8893 20.395 15.6764 20.8937 15.6697ZM22.9879 10L21.8758 10.0689C20.4211 10.2143 19.0793 10.5741 17.8501 11.1484C17.2356 11.4357 16.6493 11.7766 16.0912 12.1709C15.7704 12.3076 15.0033 13.0137 13.7891 14.2889C13.498 14.5187 12.9466 15.3771 12.1347 16.8641C11.8477 17.4786 11.6138 18.1213 11.4341 18.7922C11.0613 20.1546 10.9287 21.5886 11.036 23.0948C11.3254 26.1149 12.6119 28.7054 14.8957 30.8674C15.3979 31.3283 15.9324 31.7401 16.4992 32.1024L17.374 32.609C17.9734 32.922 18.605 33.1854 19.2692 33.3998C20.5203 33.8747 22.0561 34.0587 23.8766 33.952C26.8249 33.8092 29.4838 32.5232 31.8533 30.0941C32.7758 29.0899 33.5005 27.956 34.0275 26.6924C34.2909 26.0608 34.5053 25.3966 34.6702 24.6998C34.8438 24.1731 34.9502 23.2739 34.9898 22.0019C34.9517 20.4908 34.6989 19.0923 34.2319 17.8069C33.9984 17.1642 33.711 16.5497 33.3702 15.9634C32.4242 14.5469 31.7923 13.7309 31.4744 13.5154C30.4711 12.5118 29.3549 11.7231 28.1257 11.1484C26.5402 10.5243 25.5549 10.2143 25.1701 10.2181C24.471 10.0919 23.7434 10.0192 22.9879 10Z" fill="#8E8CA0"/>
<defs>
<linearGradient id="paint0_linear_383_144" x1="0" y1="21.1523" x2="137" y2="21.1523" gradientUnits="userSpaceOnUse">
<stop stop-color="#131313"/>
<stop offset="0.413462" stop-color="#474C35"/>
<stop offset="1" stop-color="#7C6541"/>
</linearGradient>
</defs>
</svg>
