<svg width="137" height="42" viewBox="0 0 137 42" fill="none" xmlns="http://www.w3.org/2000/svg">
<rect opacity="0.84" width="137" height="41.6957" rx="20.8478" fill="url(#paint0_linear_383_165)"/>
<path d="M60.457 24.8027V27H52.0547V14.3174H60.457V16.5059H54.709V19.5645H60.1318V21.6035H54.709V24.8027H60.457ZM61.8533 27V17.5781H64.3318V19.2568H64.3846C64.8855 18.0879 65.8787 17.4023 67.3289 17.4023C69.4207 17.4023 70.5984 18.7207 70.5984 20.9268V27H68.032V21.4629C68.032 20.2324 67.452 19.5293 66.3006 19.5293C65.1492 19.5293 64.4197 20.373 64.4197 21.5947V27H61.8533ZM80.485 17.5781L77.2506 27H74.3502L71.0895 17.5781H73.8404L75.8004 24.7324H75.8531L77.8043 17.5781H80.485ZM81.1254 27V17.5781H83.6918V27H81.1254ZM82.4086 16.541C81.6352 16.541 81.0375 15.9521 81.0375 15.2139C81.0375 14.4668 81.6352 13.8867 82.4086 13.8867C83.182 13.8867 83.7797 14.4668 83.7797 15.2139C83.7797 15.9521 83.182 16.541 82.4086 16.541ZM88.7443 25.2949C89.8605 25.2949 90.7834 24.5654 90.7834 23.5459V22.8604L88.7971 22.9834C87.8391 23.0537 87.2941 23.4844 87.2941 24.1523C87.2941 24.8555 87.8742 25.2949 88.7443 25.2949ZM87.9006 27.1494C86.1076 27.1494 84.7453 25.9893 84.7453 24.293C84.7453 22.5791 86.0637 21.5859 88.4104 21.4453L90.7834 21.3047V20.6807C90.7834 19.8018 90.1682 19.292 89.2014 19.292C88.2434 19.292 87.6369 19.7666 87.5139 20.4609H85.1672C85.2639 18.6328 86.8195 17.376 89.3156 17.376C91.7326 17.376 93.3059 18.624 93.3059 20.5225V27H90.8273V25.5586H90.7746C90.2473 26.5605 89.0783 27.1494 87.9006 27.1494ZM94.667 27V17.5781H97.1455V19.2744H97.1982C97.5322 18.0791 98.332 17.4287 99.4395 17.4287C99.7383 17.4287 99.9932 17.4727 100.169 17.5254V19.7842C99.958 19.6963 99.6064 19.6348 99.2373 19.6348C97.9717 19.6348 97.2334 20.4082 97.2334 21.7354V27H94.667Z" fill="white"/>
<path d="M20.8937 15.3653L20.9821 15.3682C21.2831 15.3853 21.5594 15.4915 21.8109 15.6866L27.6982 21.0335C28.0361 21.3534 28.1958 21.7457 28.1771 22.2107C28.1396 22.6746 27.934 23.0448 27.56 23.3216L20.9402 28.0168C20.7402 28.1553 20.4787 28.2312 20.1556 28.2445C19.5679 28.2216 19.1328 27.9581 18.8502 27.4541C18.6114 26.9525 18.6291 26.4674 18.9028 25.9992C19.0962 25.7424 19.2297 25.6005 19.303 25.5737L24.366 21.9807L19.9038 17.925C19.8343 17.8898 19.7191 17.7328 19.558 17.4545C19.3425 16.9566 19.3832 16.473 19.6804 16.0039C19.9904 15.5848 20.395 15.372 20.8937 15.3653ZM22.9879 9.69556L21.8758 9.76448C20.4211 9.90989 19.0793 10.2696 17.8501 10.844C17.2356 11.1313 16.6493 11.4721 16.0912 11.8665C15.7704 12.0032 15.0033 12.7093 13.7891 13.9845C13.498 14.2142 12.9466 15.0727 12.1347 16.5596C11.8477 17.1741 11.6138 17.8168 11.4341 18.4877C11.0613 19.8502 10.9287 21.2842 11.036 22.7903C11.3254 25.8104 12.6119 28.401 14.8957 30.5629C15.3979 31.0238 15.9324 31.4356 16.4992 31.798L17.374 32.3046C17.9734 32.6175 18.605 32.881 19.2692 33.0953C20.5203 33.5702 22.0561 33.7543 23.8766 33.6476C26.8249 33.5048 29.4838 32.2188 31.8533 29.7896C32.7758 28.7855 33.5005 27.6516 34.0275 26.388C34.2909 25.7563 34.5053 25.0921 34.6702 24.3953C34.8438 23.8687 34.9502 22.9695 34.9898 21.6974C34.9517 20.1864 34.6989 18.7879 34.2319 17.5025C33.9984 16.8598 33.711 16.2453 33.3702 15.659C32.4242 14.2424 31.7923 13.4264 31.4744 13.2109C30.4711 12.2073 29.3549 11.4186 28.1257 10.844C26.5402 10.2199 25.5549 9.90989 25.1701 9.91367C24.471 9.78745 23.7434 9.71475 22.9879 9.69556Z" fill="#8E8CA0"/>
<defs>
<linearGradient id="paint0_linear_383_165" x1="0" y1="20.8478" x2="137" y2="20.8478" gradientUnits="userSpaceOnUse">
<stop stop-color="#131313"/>
<stop offset="0.413462" stop-color="#F338A7"/>
<stop offset="1" stop-color="#E83C64"/>
</linearGradient>
</defs>
</svg>
