<svg width="308" height="229" viewBox="0 0 308 229" fill="none" xmlns="http://www.w3.org/2000/svg">
<rect x="0.5" y="44.5" width="307" height="184" rx="8.5" fill="white" fill-opacity="0.33" stroke="white"/>
<path d="M104.271 44.9123C104.011 44.6414 103.93 44.2391 104.064 43.8819L105.814 39.2962L106.697 36.9848C106.742 36.8617 106.815 36.7508 106.909 36.6605L138.905 4.38801C139.002 4.28948 139.12 4.21558 139.251 4.16632L146.589 1.53065C146.923 1.4116 147.293 1.4937 147.546 1.74003L164.547 18.2601C164.783 18.4859 164.881 18.8226 164.807 19.1428L162.939 27.4234C162.898 27.5958 162.813 27.7518 162.691 27.8791L130.699 60.1474C130.585 60.2624 130.443 60.3445 130.288 60.3897L122.042 62.6723C121.716 62.7626 121.366 62.6682 121.13 62.4218L104.276 44.9123H104.271Z" fill="white" stroke="#FFBB00" stroke-width="2" stroke-miterlimit="10"/>
<path d="M142.181 48.5621L186.322 93.085C188.891 95.6755 193.095 95.7864 195.68 93.2123C195.879 93.0153 196.066 92.8018 196.241 92.5801C196.539 92.1983 196.779 91.8042 196.97 91.4059C198.171 88.9181 197.597 85.9252 195.655 83.9711C180.893 69.0808 166.13 54.1906 151.368 39.3003L142.181 48.5662V48.5621Z" fill="white" stroke="#FFBB00" stroke-width="2" stroke-miterlimit="10"/>
<path d="M119.115 24.3484L116.922 21.8729C114.854 19.541 114.952 15.9283 117.243 13.8181C117.308 13.7565 117.377 13.699 117.447 13.6375C117.78 13.3542 118.126 13.1202 118.472 12.9272C120.467 11.8188 122.937 12.0815 124.72 13.5102C125.591 14.2081 126.466 14.9019 127.337 15.5998" fill="white"/>
<path d="M119.115 24.3484L116.922 21.8729C114.854 19.541 114.952 15.9283 117.243 13.8181C117.308 13.7565 117.377 13.699 117.447 13.6375C117.78 13.3542 118.126 13.1202 118.472 12.9272C120.467 11.8188 122.937 12.0815 124.72 13.5102C125.591 14.2081 126.466 14.9019 127.337 15.5998" stroke="#FFBB00" stroke-width="2" stroke-miterlimit="10"/>
<path d="M106.909 36.6606L130.284 60.3938L162.687 27.8832L139.247 4.17047L106.909 36.6606Z" fill="white" stroke="#FFBB00" stroke-width="2" stroke-miterlimit="10"/>
<path d="M119.103 14.5899C123.764 15.181 126.767 16.7657 128.465 17.8742C139.483 25.0586 135.958 40.2404 148.543 50.5244C153.236 54.3629 157.286 56.8754 157.286 56.8754C162.154 60.0037 164.685 60.8453 171.157 66.0263C183.18 75.6535 190.971 85.9744 195.684 93.2123C196.539 92.2187 197.699 90.5437 197.658 88.4787C197.609 85.8595 195.957 84.2502 195.659 83.9669C172.016 60.48 148.368 36.9889 124.724 13.5019C124.553 13.3788 122.99 12.2991 121.159 12.919C119.925 13.3377 119.295 14.282 119.107 14.5858L119.103 14.5899Z" fill="white" stroke="#FFBB00" stroke-width="2" stroke-miterlimit="10"/>
<path d="M41.1016 117L39.8125 113.191H34.4414L33.1523 117H30.877L35.9648 102.908H38.3281L43.416 117H41.1016ZM37.0977 105.252L34.998 111.434H39.2559L37.1562 105.252H37.0977ZM44.4148 117V106.727H46.4266V108.445H46.4754C47.032 107.273 48.1258 106.551 49.7078 106.551C51.9734 106.551 53.2723 107.996 53.2723 110.35V117H51.1531V110.76C51.1531 109.217 50.4305 108.367 48.9656 108.367C47.4813 108.367 46.5242 109.422 46.5242 111.014V117H44.4148ZM55.6285 104.295H57.7477V106.727H59.7008V108.396H57.7477V114.061C57.7477 114.949 58.1383 115.35 58.9977 115.35C59.2125 115.35 59.5543 115.33 59.691 115.301V116.971C59.4566 117.029 58.9879 117.068 58.5191 117.068C56.4391 117.068 55.6285 116.277 55.6285 114.295V108.396H54.1344V106.727H55.6285V104.295ZM65.182 108.24C63.7074 108.24 62.6723 109.363 62.5648 110.916H67.7016C67.6527 109.344 66.6566 108.24 65.182 108.24ZM67.6918 113.982H69.6937C69.4008 115.857 67.6234 117.195 65.2699 117.195C62.2523 117.195 60.4262 115.154 60.4262 111.912C60.4262 108.689 62.2816 106.541 65.182 106.541C68.0336 106.541 69.8109 108.553 69.8109 111.668V112.391H62.5551V112.518C62.5551 114.305 63.6293 115.486 65.3187 115.486C66.5199 115.486 67.4086 114.881 67.6918 113.982ZM70.966 109.637C70.966 107.801 72.5871 106.541 74.9895 106.541C77.2746 106.541 78.8762 107.82 78.9445 109.646H76.9621C76.8645 108.719 76.1125 108.143 74.9309 108.143C73.7883 108.143 73.0266 108.699 73.0266 109.51C73.0266 110.145 73.5344 110.574 74.5988 110.838L76.3273 111.238C78.3977 111.736 79.1789 112.518 79.1789 114.031C79.1789 115.906 77.4309 117.195 74.9113 117.195C72.4797 117.195 70.8684 115.936 70.7023 114.051H72.7922C72.9582 115.037 73.7199 115.584 75.009 115.584C76.2785 115.584 77.0598 115.057 77.0598 114.227C77.0598 113.572 76.6691 113.211 75.5949 112.938L73.759 112.488C71.9035 112.039 70.966 111.072 70.966 109.637ZM88.1395 117.176C85.5418 117.176 83.823 115.105 83.823 111.863C83.823 108.621 85.5418 106.561 88.1199 106.561C89.5945 106.561 90.7664 107.303 91.3426 108.436H91.3816V102.908H93.5008V117H91.45V115.252H91.4109C90.8055 116.424 89.6336 117.176 88.1395 117.176ZM88.6961 108.338C87.0262 108.338 85.9813 109.705 85.9813 111.863C85.9813 114.031 87.0262 115.389 88.6961 115.389C90.3172 115.389 91.4012 114.012 91.4012 111.863C91.4012 109.734 90.3172 108.338 88.6961 108.338ZM99.6656 108.24C98.191 108.24 97.1559 109.363 97.0484 110.916H102.185C102.136 109.344 101.14 108.24 99.6656 108.24ZM102.175 113.982H104.177C103.884 115.857 102.107 117.195 99.7535 117.195C96.7359 117.195 94.9098 115.154 94.9098 111.912C94.9098 108.689 96.7652 106.541 99.6656 106.541C102.517 106.541 104.295 108.553 104.295 111.668V112.391H97.0387V112.518C97.0387 114.305 98.1129 115.486 99.8023 115.486C101.004 115.486 101.892 114.881 102.175 113.982ZM105.713 117V102.908H107.823V117H105.713ZM117.75 108.24C116.275 108.24 115.24 109.363 115.133 110.916H120.27C120.221 109.344 119.225 108.24 117.75 108.24ZM120.26 113.982H122.262C121.969 115.857 120.191 117.195 117.838 117.195C114.82 117.195 112.994 115.154 112.994 111.912C112.994 108.689 114.85 106.541 117.75 106.541C120.602 106.541 122.379 108.553 122.379 111.668V112.391H115.123V112.518C115.123 114.305 116.197 115.486 117.887 115.486C119.088 115.486 119.977 114.881 120.26 113.982ZM132.43 106.727L128.749 117H126.483L122.782 106.727H125.028L127.606 114.939H127.645L130.223 106.727H132.43ZM137.345 108.24C135.871 108.24 134.836 109.363 134.728 110.916H139.865C139.816 109.344 138.82 108.24 137.345 108.24ZM139.855 113.982H141.857C141.564 115.857 139.787 117.195 137.433 117.195C134.416 117.195 132.589 115.154 132.589 111.912C132.589 108.689 134.445 106.541 137.345 106.541C140.197 106.541 141.974 108.553 141.974 111.668V112.391H134.718V112.518C134.718 114.305 135.793 115.486 137.482 115.486C138.683 115.486 139.572 114.881 139.855 113.982ZM143.315 117V106.727H145.327V108.445H145.375C145.932 107.273 147.026 106.551 148.608 106.551C150.873 106.551 152.172 107.996 152.172 110.35V117H150.053V110.76C150.053 109.217 149.33 108.367 147.866 108.367C146.381 108.367 145.424 109.422 145.424 111.014V117H143.315ZM154.529 104.295H156.648V106.727H158.601V108.396H156.648V114.061C156.648 114.949 157.038 115.35 157.898 115.35C158.113 115.35 158.454 115.33 158.591 115.301V116.971C158.357 117.029 157.888 117.068 157.419 117.068C155.339 117.068 154.529 116.277 154.529 114.295V108.396H153.034V106.727H154.529V104.295ZM164.199 117.195C161.26 117.195 159.326 115.174 159.326 111.863C159.326 108.562 161.27 106.541 164.199 106.541C167.129 106.541 169.072 108.562 169.072 111.863C169.072 115.174 167.139 117.195 164.199 117.195ZM164.199 115.457C165.859 115.457 166.924 114.148 166.924 111.863C166.924 109.588 165.85 108.279 164.199 108.279C162.549 108.279 161.475 109.588 161.475 111.863C161.475 114.148 162.549 115.457 164.199 115.457ZM171.409 119.9H169.729L170.608 114.744H172.737L171.409 119.9ZM178.192 104.295H180.311V106.727H182.264V108.396H180.311V114.061C180.311 114.949 180.702 115.35 181.561 115.35C181.776 115.35 182.118 115.33 182.254 115.301V116.971C182.02 117.029 181.551 117.068 181.082 117.068C179.002 117.068 178.192 116.277 178.192 114.295V108.396H176.698V106.727H178.192V104.295ZM187.745 108.24C186.271 108.24 185.236 109.363 185.128 110.916H190.265C190.216 109.344 189.22 108.24 187.745 108.24ZM190.255 113.982H192.257C191.964 115.857 190.187 117.195 187.833 117.195C184.816 117.195 182.989 115.154 182.989 111.912C182.989 108.689 184.845 106.541 187.745 106.541C190.597 106.541 192.374 108.553 192.374 111.668V112.391H185.118V112.518C185.118 114.305 186.193 115.486 187.882 115.486C189.083 115.486 189.972 114.881 190.255 113.982ZM201.774 108.24C200.3 108.24 199.264 109.363 199.157 110.916H204.294C204.245 109.344 203.249 108.24 201.774 108.24ZM204.284 113.982H206.286C205.993 115.857 204.216 117.195 201.862 117.195C198.845 117.195 197.018 115.154 197.018 111.912C197.018 108.689 198.874 106.541 201.774 106.541C204.626 106.541 206.403 108.553 206.403 111.668V112.391H199.147V112.518C199.147 114.305 200.221 115.486 201.911 115.486C203.112 115.486 204.001 114.881 204.284 113.982ZM207.558 109.637C207.558 107.801 209.179 106.541 211.582 106.541C213.867 106.541 215.468 107.82 215.537 109.646H213.554C213.457 108.719 212.705 108.143 211.523 108.143C210.38 108.143 209.619 108.699 209.619 109.51C209.619 110.145 210.127 110.574 211.191 110.838L212.92 111.238C214.99 111.736 215.771 112.518 215.771 114.031C215.771 115.906 214.023 117.195 211.504 117.195C209.072 117.195 207.461 115.936 207.295 114.051H209.384C209.55 115.037 210.312 115.584 211.601 115.584C212.871 115.584 213.652 115.057 213.652 114.227C213.652 113.572 213.261 113.211 212.187 112.938L210.351 112.488C208.496 112.039 207.558 111.072 207.558 109.637ZM217.727 104.295H219.846V106.727H221.799V108.396H219.846V114.061C219.846 114.949 220.237 115.35 221.096 115.35C221.311 115.35 221.653 115.33 221.789 115.301V116.971C221.555 117.029 221.086 117.068 220.618 117.068C218.538 117.068 217.727 116.277 217.727 114.295V108.396H216.233V106.727H217.727V104.295ZM226.675 115.506C228.15 115.506 229.302 114.49 229.302 113.152V112.342L226.773 112.498C225.513 112.586 224.8 113.143 224.8 114.021C224.8 114.92 225.542 115.506 226.675 115.506ZM226.089 117.176C224.077 117.176 222.671 115.926 222.671 114.08C222.671 112.283 224.048 111.18 226.489 111.043L229.302 110.877V110.086C229.302 108.943 228.53 108.26 227.241 108.26C226.021 108.26 225.259 108.846 225.073 109.764H223.081C223.198 107.908 224.78 106.541 227.32 106.541C229.81 106.541 231.402 107.859 231.402 109.92V117H229.38V115.311H229.331C228.736 116.453 227.437 117.176 226.089 117.176ZM233.152 117V106.727H235.164V108.475H235.213C235.555 107.273 236.473 106.561 237.684 106.561C237.986 106.561 238.25 106.609 238.406 106.639V108.602C238.24 108.533 237.869 108.484 237.459 108.484C236.102 108.484 235.262 109.393 235.262 110.848V117H233.152ZM243.262 108.24C241.788 108.24 240.753 109.363 240.645 110.916H245.782C245.733 109.344 244.737 108.24 243.262 108.24ZM245.772 113.982H247.774C247.481 115.857 245.704 117.195 243.35 117.195C240.333 117.195 238.507 115.154 238.507 111.912C238.507 108.689 240.362 106.541 243.262 106.541C246.114 106.541 247.891 108.553 247.891 111.668V112.391H240.636V112.518C240.636 114.305 241.71 115.486 243.399 115.486C244.6 115.486 245.489 114.881 245.772 113.982ZM249.232 117V106.727H251.244V108.455H251.293C251.752 107.312 252.826 106.551 254.212 106.551C255.638 106.551 256.673 107.283 257.084 108.562H257.132C257.66 107.312 258.871 106.551 260.336 106.551C262.367 106.551 263.695 107.898 263.695 109.939V117H261.576V110.447C261.576 109.119 260.863 108.357 259.613 108.357C258.363 108.357 257.494 109.285 257.494 110.584V117H255.423V110.291C255.423 109.109 254.671 108.357 253.48 108.357C252.23 108.357 251.341 109.334 251.341 110.652V117H249.232ZM269.85 117.195C266.911 117.195 264.977 115.174 264.977 111.863C264.977 108.562 266.92 106.541 269.85 106.541C272.78 106.541 274.723 108.562 274.723 111.863C274.723 115.174 272.789 117.195 269.85 117.195ZM269.85 115.457C271.51 115.457 272.575 114.148 272.575 111.863C272.575 109.588 271.5 108.279 269.85 108.279C268.2 108.279 267.125 109.588 267.125 111.863C267.125 114.148 268.2 115.457 269.85 115.457ZM275.868 109.637C275.868 107.801 277.489 106.541 279.892 106.541C282.177 106.541 283.779 107.82 283.847 109.646H281.864C281.767 108.719 281.015 108.143 279.833 108.143C278.691 108.143 277.929 108.699 277.929 109.51C277.929 110.145 278.437 110.574 279.501 110.838L281.23 111.238C283.3 111.736 284.081 112.518 284.081 114.031C284.081 115.906 282.333 117.195 279.814 117.195C277.382 117.195 275.771 115.936 275.605 114.051H277.695C277.861 115.037 278.622 115.584 279.911 115.584C281.181 115.584 281.962 115.057 281.962 114.227C281.962 113.572 281.571 113.211 280.497 112.938L278.661 112.488C276.806 112.039 275.868 111.072 275.868 109.637ZM40.5309 136.24C39.0563 136.24 38.0211 137.363 37.9137 138.916H43.0504C43.0016 137.344 42.0055 136.24 40.5309 136.24ZM43.0406 141.982H45.0426C44.7496 143.857 42.9723 145.195 40.6188 145.195C37.6012 145.195 35.775 143.154 35.775 139.912C35.775 136.689 37.6305 134.541 40.5309 134.541C43.3824 134.541 45.1598 136.553 45.1598 139.668V140.391H37.9039V140.518C37.9039 142.305 38.9781 143.486 40.6676 143.486C41.8688 143.486 42.7574 142.881 43.0406 141.982ZM46.5004 145V134.727H48.5121V136.445H48.5609C49.1176 135.273 50.2113 134.551 51.7934 134.551C54.059 134.551 55.3578 135.996 55.3578 138.35V145H53.2387V138.76C53.2387 137.217 52.516 136.367 51.0512 136.367C49.5668 136.367 48.6098 137.422 48.6098 139.014V145H46.5004ZM65.8684 134.727L62.1867 145H59.9211L56.2199 134.727H58.466L61.0441 142.939H61.0832L63.6613 134.727H65.8684ZM66.8477 145V134.727H68.957V145H66.8477ZM67.9023 133.223C67.2285 133.223 66.6816 132.686 66.6816 132.021C66.6816 131.348 67.2285 130.811 67.9023 130.811C68.5859 130.811 69.1328 131.348 69.1328 132.021C69.1328 132.686 68.5859 133.223 67.9023 133.223ZM74.409 143.506C75.8836 143.506 77.0359 142.49 77.0359 141.152V140.342L74.5066 140.498C73.2469 140.586 72.534 141.143 72.534 142.021C72.534 142.92 73.2762 143.506 74.409 143.506ZM73.823 145.176C71.8113 145.176 70.4051 143.926 70.4051 142.08C70.4051 140.283 71.782 139.18 74.2234 139.043L77.0359 138.877V138.086C77.0359 136.943 76.2645 136.26 74.9754 136.26C73.7547 136.26 72.993 136.846 72.8074 137.764H70.8152C70.9324 135.908 72.5145 134.541 75.0535 134.541C77.5438 134.541 79.1355 135.859 79.1355 137.92V145H77.1141V143.311H77.0652C76.4695 144.453 75.1707 145.176 73.823 145.176ZM80.8863 145V134.727H82.898V136.445H82.9469C83.5035 135.273 84.5973 134.551 86.1793 134.551C88.4449 134.551 89.7438 135.996 89.7438 138.35V145H87.6246V138.76C87.6246 137.217 86.902 136.367 85.4371 136.367C83.9527 136.367 82.9957 137.422 82.9957 139.014V145H80.8863ZM95.3422 145.176C92.7445 145.176 91.0258 143.105 91.0258 139.863C91.0258 136.621 92.7445 134.561 95.3227 134.561C96.7973 134.561 97.9691 135.303 98.5453 136.436H98.5844V130.908H100.704V145H98.6527V143.252H98.6137C98.0082 144.424 96.8363 145.176 95.3422 145.176ZM95.8988 136.338C94.2289 136.338 93.184 137.705 93.184 139.863C93.184 142.031 94.2289 143.389 95.8988 143.389C97.5199 143.389 98.6039 142.012 98.6039 139.863C98.6039 137.734 97.5199 136.338 95.8988 136.338ZM106.986 145.195C104.046 145.195 102.113 143.174 102.113 139.863C102.113 136.562 104.056 134.541 106.986 134.541C109.915 134.541 111.859 136.562 111.859 139.863C111.859 143.174 109.925 145.195 106.986 145.195ZM106.986 143.457C108.646 143.457 109.71 142.148 109.71 139.863C109.71 137.588 108.636 136.279 106.986 136.279C105.335 136.279 104.261 137.588 104.261 139.863C104.261 142.148 105.335 143.457 106.986 143.457ZM116.952 145V134.727H118.964V136.475H119.013C119.354 135.273 120.272 134.561 121.483 134.561C121.786 134.561 122.05 134.609 122.206 134.639V136.602C122.04 136.533 121.669 136.484 121.259 136.484C119.901 136.484 119.061 137.393 119.061 138.848V145H116.952ZM127.062 136.24C125.588 136.24 124.552 137.363 124.445 138.916H129.582C129.533 137.344 128.537 136.24 127.062 136.24ZM129.572 141.982H131.574C131.281 143.857 129.504 145.195 127.15 145.195C124.132 145.195 122.306 143.154 122.306 139.912C122.306 136.689 124.162 134.541 127.062 134.541C129.914 134.541 131.691 136.553 131.691 139.668V140.391H124.435V140.518C124.435 142.305 125.509 143.486 127.199 143.486C128.4 143.486 129.289 142.881 129.572 141.982ZM141.85 138.262H139.838C139.623 137.168 138.803 136.299 137.426 136.299C135.795 136.299 134.721 137.656 134.721 139.863C134.721 142.119 135.805 143.428 137.446 143.428C138.745 143.428 139.594 142.715 139.838 141.523H141.87C141.645 143.711 139.897 145.195 137.426 145.195C134.487 145.195 132.573 143.184 132.573 139.863C132.573 136.602 134.487 134.541 137.407 134.541C140.053 134.541 141.664 136.24 141.85 138.262ZM147.478 145.195C144.538 145.195 142.605 143.174 142.605 139.863C142.605 136.562 144.548 134.541 147.478 134.541C150.407 134.541 152.351 136.562 152.351 139.863C152.351 143.174 150.417 145.195 147.478 145.195ZM147.478 143.457C149.138 143.457 150.202 142.148 150.202 139.863C150.202 137.588 149.128 136.279 147.478 136.279C145.827 136.279 144.753 137.588 144.753 139.863C144.753 142.148 145.827 143.457 147.478 143.457ZM153.682 145V134.727H155.693V136.455H155.742C156.201 135.312 157.275 134.551 158.662 134.551C160.088 134.551 161.123 135.283 161.533 136.562H161.582C162.109 135.312 163.32 134.551 164.785 134.551C166.816 134.551 168.145 135.898 168.145 137.939V145H166.025V138.447C166.025 137.119 165.312 136.357 164.062 136.357C162.812 136.357 161.943 137.285 161.943 138.584V145H159.873V138.291C159.873 137.109 159.121 136.357 157.93 136.357C156.68 136.357 155.791 137.334 155.791 138.652V145H153.682ZM174.182 136.24C172.708 136.24 171.673 137.363 171.565 138.916H176.702C176.653 137.344 175.657 136.24 174.182 136.24ZM176.692 141.982H178.694C178.401 143.857 176.624 145.195 174.27 145.195C171.253 145.195 169.427 143.154 169.427 139.912C169.427 136.689 171.282 134.541 174.182 134.541C177.034 134.541 178.811 136.553 178.811 139.668V140.391H171.555V140.518C171.555 142.305 172.63 143.486 174.319 143.486C175.52 143.486 176.409 142.881 176.692 141.982ZM180.152 145V134.727H182.164V136.445H182.212C182.769 135.273 183.863 134.551 185.445 134.551C187.711 134.551 189.009 135.996 189.009 138.35V145H186.89V138.76C186.89 137.217 186.168 136.367 184.703 136.367C183.218 136.367 182.261 137.422 182.261 139.014V145H180.152ZM194.608 145.176C192.01 145.176 190.291 143.105 190.291 139.863C190.291 136.621 192.01 134.561 194.588 134.561C196.063 134.561 197.235 135.303 197.811 136.436H197.85V130.908H199.969V145H197.918V143.252H197.879C197.274 144.424 196.102 145.176 194.608 145.176ZM195.164 136.338C193.495 136.338 192.45 137.705 192.45 139.863C192.45 142.031 193.495 143.389 195.164 143.389C196.786 143.389 197.87 142.012 197.87 139.863C197.87 137.734 196.786 136.338 195.164 136.338ZM205.431 143.506C206.905 143.506 208.058 142.49 208.058 141.152V140.342L205.529 140.498C204.269 140.586 203.556 141.143 203.556 142.021C203.556 142.92 204.298 143.506 205.431 143.506ZM204.845 145.176C202.833 145.176 201.427 143.926 201.427 142.08C201.427 140.283 202.804 139.18 205.245 139.043L208.058 138.877V138.086C208.058 136.943 207.286 136.26 205.997 136.26C204.777 136.26 204.015 136.846 203.829 137.764H201.837C201.954 135.908 203.536 134.541 206.075 134.541C208.566 134.541 210.157 135.859 210.157 137.92V145H208.136V143.311H208.087C207.491 144.453 206.193 145.176 204.845 145.176ZM220.727 138.262H218.715C218.5 137.168 217.68 136.299 216.303 136.299C214.672 136.299 213.598 137.656 213.598 139.863C213.598 142.119 214.682 143.428 216.322 143.428C217.621 143.428 218.471 142.715 218.715 141.523H220.746C220.521 143.711 218.773 145.195 216.303 145.195C213.363 145.195 211.449 143.184 211.449 139.863C211.449 136.602 213.363 134.541 216.283 134.541C218.93 134.541 220.541 136.24 220.727 138.262ZM222.009 145V134.727H224.118V145H222.009ZM223.063 133.223C222.389 133.223 221.843 132.686 221.843 132.021C221.843 131.348 222.389 130.811 223.063 130.811C223.747 130.811 224.294 131.348 224.294 132.021C224.294 132.686 223.747 133.223 223.063 133.223ZM230.39 145.195C227.451 145.195 225.517 143.174 225.517 139.863C225.517 136.562 227.461 134.541 230.39 134.541C233.32 134.541 235.263 136.562 235.263 139.863C235.263 143.174 233.33 145.195 230.39 145.195ZM230.39 143.457C232.05 143.457 233.115 142.148 233.115 139.863C233.115 137.588 232.041 136.279 230.39 136.279C228.74 136.279 227.666 137.588 227.666 139.863C227.666 142.148 228.74 143.457 230.39 143.457ZM236.594 145V134.727H238.606V136.445H238.655C239.211 135.273 240.305 134.551 241.887 134.551C244.153 134.551 245.452 135.996 245.452 138.35V145H243.332V138.76C243.332 137.217 242.61 136.367 241.145 136.367C239.661 136.367 238.704 137.422 238.704 139.014V145H236.594ZM251.489 136.24C250.015 136.24 248.98 137.363 248.872 138.916H254.009C253.96 137.344 252.964 136.24 251.489 136.24ZM253.999 141.982H256.001C255.708 143.857 253.931 145.195 251.577 145.195C248.56 145.195 246.734 143.154 246.734 139.912C246.734 136.689 248.589 134.541 251.489 134.541C254.341 134.541 256.118 136.553 256.118 139.668V140.391H248.862V140.518C248.862 142.305 249.937 143.486 251.626 143.486C252.827 143.486 253.716 142.881 253.999 141.982ZM257.273 137.637C257.273 135.801 258.895 134.541 261.297 134.541C263.582 134.541 265.184 135.82 265.252 137.646H263.27C263.172 136.719 262.42 136.143 261.238 136.143C260.096 136.143 259.334 136.699 259.334 137.51C259.334 138.145 259.842 138.574 260.906 138.838L262.635 139.238C264.705 139.736 265.486 140.518 265.486 142.031C265.486 143.906 263.738 145.195 261.219 145.195C258.787 145.195 257.176 143.936 257.01 142.051H259.1C259.266 143.037 260.027 143.584 261.316 143.584C262.586 143.584 263.367 143.057 263.367 142.227C263.367 141.572 262.977 141.211 261.902 140.938L260.066 140.488C258.211 140.039 257.273 139.072 257.273 137.637ZM274.886 136.24C273.412 136.24 272.377 137.363 272.269 138.916H277.406C277.357 137.344 276.361 136.24 274.886 136.24ZM277.396 141.982H279.398C279.105 143.857 277.328 145.195 274.974 145.195C271.957 145.195 270.13 143.154 270.13 139.912C270.13 136.689 271.986 134.541 274.886 134.541C277.738 134.541 279.515 136.553 279.515 139.668V140.391H272.259V140.518C272.259 142.305 273.334 143.486 275.023 143.486C276.224 143.486 277.113 142.881 277.396 141.982ZM44.7238 173V162.727H46.8332V173H44.7238ZM45.7785 161.223C45.1047 161.223 44.5578 160.686 44.5578 160.021C44.5578 159.348 45.1047 158.811 45.7785 158.811C46.4621 158.811 47.009 159.348 47.009 160.021C47.009 160.686 46.4621 161.223 45.7785 161.223ZM48.6914 173V162.727H50.7031V164.445H50.752C51.3086 163.273 52.4023 162.551 53.9844 162.551C56.25 162.551 57.5488 163.996 57.5488 166.35V173H55.4297V166.76C55.4297 165.217 54.707 164.367 53.2422 164.367C51.7578 164.367 50.8008 165.422 50.8008 167.014V173H48.6914ZM59.9051 173V164.396H58.4891V162.746H59.9051V161.74C59.9051 159.748 60.8426 158.811 62.9324 158.811C63.3621 158.811 63.8406 158.859 64.1141 158.908V160.471C63.909 160.432 63.6258 160.412 63.3426 160.412C62.4246 160.412 61.9949 160.871 61.9949 161.779V162.746H64.075V164.396H62.0242V173H59.9051ZM69.4195 173.195C66.4801 173.195 64.5465 171.174 64.5465 167.863C64.5465 164.562 66.4898 162.541 69.4195 162.541C72.3492 162.541 74.2926 164.562 74.2926 167.863C74.2926 171.174 72.359 173.195 69.4195 173.195ZM69.4195 171.457C71.0797 171.457 72.1441 170.148 72.1441 167.863C72.1441 165.588 71.0699 164.279 69.4195 164.279C67.7691 164.279 66.6949 165.588 66.6949 167.863C66.6949 170.148 67.7691 171.457 69.4195 171.457ZM75.6234 173V162.727H77.6352V164.475H77.684C78.0258 163.273 78.9438 162.561 80.1547 162.561C80.4574 162.561 80.7211 162.609 80.8773 162.639V164.602C80.7113 164.533 80.3402 164.484 79.9301 164.484C78.5727 164.484 77.7328 165.393 77.7328 166.848V173H75.6234ZM81.8859 173V162.727H83.8977V164.455H83.9465C84.4055 163.312 85.4797 162.551 86.8664 162.551C88.2922 162.551 89.3273 163.283 89.7375 164.562H89.7863C90.3137 163.312 91.5246 162.551 92.9895 162.551C95.0207 162.551 96.3488 163.898 96.3488 165.939V173H94.2297V166.447C94.2297 165.119 93.5168 164.357 92.2668 164.357C91.0168 164.357 90.1477 165.285 90.1477 166.584V173H88.0773V166.291C88.0773 165.109 87.3254 164.357 86.134 164.357C84.884 164.357 83.9953 165.334 83.9953 166.652V173H81.8859ZM101.684 171.506C103.158 171.506 104.311 170.49 104.311 169.152V168.342L101.781 168.498C100.521 168.586 99.8086 169.143 99.8086 170.021C99.8086 170.92 100.551 171.506 101.684 171.506ZM101.098 173.176C99.0859 173.176 97.6797 171.926 97.6797 170.08C97.6797 168.283 99.0566 167.18 101.498 167.043L104.311 166.877V166.086C104.311 164.943 103.539 164.26 102.25 164.26C101.029 164.26 100.268 164.846 100.082 165.764H98.0898C98.207 163.908 99.7891 162.541 102.328 162.541C104.818 162.541 106.41 163.859 106.41 165.92V173H104.389V171.311H104.34C103.744 172.453 102.445 173.176 101.098 173.176ZM116.979 166.262H114.968C114.753 165.168 113.932 164.299 112.555 164.299C110.925 164.299 109.85 165.656 109.85 167.863C109.85 170.119 110.934 171.428 112.575 171.428C113.874 171.428 114.723 170.715 114.968 169.523H116.999C116.774 171.711 115.026 173.195 112.555 173.195C109.616 173.195 107.702 171.184 107.702 167.863C107.702 164.602 109.616 162.541 112.536 162.541C115.182 162.541 116.794 164.24 116.979 166.262ZM118.261 173V162.727H120.371V173H118.261ZM119.316 161.223C118.642 161.223 118.095 160.686 118.095 160.021C118.095 159.348 118.642 158.811 119.316 158.811C120 158.811 120.546 159.348 120.546 160.021C120.546 160.686 120 161.223 119.316 161.223ZM126.643 173.195C123.704 173.195 121.77 171.174 121.77 167.863C121.77 164.562 123.713 162.541 126.643 162.541C129.573 162.541 131.516 164.562 131.516 167.863C131.516 171.174 129.582 173.195 126.643 173.195ZM126.643 171.457C128.303 171.457 129.368 170.148 129.368 167.863C129.368 165.588 128.293 164.279 126.643 164.279C124.993 164.279 123.918 165.588 123.918 167.863C123.918 170.148 124.993 171.457 126.643 171.457ZM127.532 161.262H125.764L127.854 158.303H129.973L127.532 161.262ZM132.847 173V162.727H134.859V164.445H134.907C135.464 163.273 136.558 162.551 138.14 162.551C140.405 162.551 141.704 163.996 141.704 166.35V173H139.585V166.76C139.585 165.217 138.863 164.367 137.398 164.367C135.913 164.367 134.956 165.422 134.956 167.014V173H132.847ZM147.276 173V162.727H149.386V173H147.276ZM148.331 161.223C147.657 161.223 147.11 160.686 147.11 160.021C147.11 159.348 147.657 158.811 148.331 158.811C149.014 158.811 149.561 159.348 149.561 160.021C149.561 160.686 149.014 161.223 148.331 161.223ZM151.244 173V162.727H153.255V164.455H153.304C153.763 163.312 154.837 162.551 156.224 162.551C157.65 162.551 158.685 163.283 159.095 164.562H159.144C159.671 163.312 160.882 162.551 162.347 162.551C164.379 162.551 165.707 163.898 165.707 165.939V173H163.587V166.447C163.587 165.119 162.875 164.357 161.625 164.357C160.375 164.357 159.505 165.285 159.505 166.584V173H157.435V166.291C157.435 165.109 156.683 164.357 155.492 164.357C154.242 164.357 153.353 165.334 153.353 166.652V173H151.244ZM172.799 162.561C175.407 162.561 177.125 164.611 177.125 167.863C177.125 171.115 175.416 173.176 172.838 173.176C171.364 173.176 170.192 172.453 169.606 171.311H169.557V176.398H167.448V162.727H169.489V164.494H169.528C170.133 163.312 171.315 162.561 172.799 162.561ZM172.243 171.389C173.913 171.389 174.957 170.021 174.957 167.863C174.957 165.715 173.913 164.338 172.243 164.338C170.631 164.338 169.547 165.744 169.547 167.863C169.547 170.002 170.621 171.389 172.243 171.389ZM182.87 173.195C179.931 173.195 177.997 171.174 177.997 167.863C177.997 164.562 179.941 162.541 182.87 162.541C185.8 162.541 187.743 164.562 187.743 167.863C187.743 171.174 185.81 173.195 182.87 173.195ZM182.87 171.457C184.53 171.457 185.595 170.148 185.595 167.863C185.595 165.588 184.521 164.279 182.87 164.279C181.22 164.279 180.146 165.588 180.146 167.863C180.146 170.148 181.22 171.457 182.87 171.457ZM189.074 173V162.727H191.086V164.475H191.135C191.477 163.273 192.395 162.561 193.605 162.561C193.908 162.561 194.172 162.609 194.328 162.639V164.602C194.162 164.533 193.791 164.484 193.381 164.484C192.023 164.484 191.184 165.393 191.184 166.848V173H189.074ZM195.952 160.295H198.071V162.727H200.024V164.396H198.071V170.061C198.071 170.949 198.462 171.35 199.321 171.35C199.536 171.35 199.878 171.33 200.014 171.301V172.971C199.78 173.029 199.311 173.068 198.843 173.068C196.762 173.068 195.952 172.277 195.952 170.295V164.396H194.458V162.727H195.952V160.295ZM204.9 171.506C206.375 171.506 207.527 170.49 207.527 169.152V168.342L204.998 168.498C203.738 168.586 203.025 169.143 203.025 170.021C203.025 170.92 203.767 171.506 204.9 171.506ZM204.314 173.176C202.302 173.176 200.896 171.926 200.896 170.08C200.896 168.283 202.273 167.18 204.714 167.043L207.527 166.877V166.086C207.527 164.943 206.755 164.26 205.466 164.26C204.246 164.26 203.484 164.846 203.298 165.764H201.306C201.423 163.908 203.005 162.541 205.545 162.541C208.035 162.541 209.627 163.859 209.627 165.92V173H207.605V171.311H207.556C206.961 172.453 205.662 173.176 204.314 173.176ZM211.377 173V162.727H213.389V164.445H213.438C213.995 163.273 215.088 162.551 216.67 162.551C218.936 162.551 220.235 163.996 220.235 166.35V173H218.116V166.76C218.116 165.217 217.393 164.367 215.928 164.367C214.444 164.367 213.487 165.422 213.487 167.014V173H211.377ZM222.591 160.295H224.71V162.727H226.663V164.396H224.71V170.061C224.71 170.949 225.101 171.35 225.96 171.35C226.175 171.35 226.517 171.33 226.654 171.301V172.971C226.419 173.029 225.95 173.068 225.482 173.068C223.402 173.068 222.591 172.277 222.591 170.295V164.396H221.097V162.727H222.591V160.295ZM232.145 164.24C230.67 164.24 229.635 165.363 229.527 166.916H234.664C234.615 165.344 233.619 164.24 232.145 164.24ZM234.654 169.982H236.656C236.363 171.857 234.586 173.195 232.232 173.195C229.215 173.195 227.389 171.154 227.389 167.912C227.389 164.689 229.244 162.541 232.145 162.541C234.996 162.541 236.773 164.553 236.773 167.668V168.391H229.518V168.518C229.518 170.305 230.592 171.486 232.281 171.486C233.482 171.486 234.371 170.881 234.654 169.982ZM245.47 171.506C246.945 171.506 248.097 170.49 248.097 169.152V168.342L245.568 168.498C244.308 168.586 243.595 169.143 243.595 170.021C243.595 170.92 244.338 171.506 245.47 171.506ZM244.884 173.176C242.873 173.176 241.466 171.926 241.466 170.08C241.466 168.283 242.843 167.18 245.285 167.043L248.097 166.877V166.086C248.097 164.943 247.326 164.26 246.037 164.26C244.816 164.26 244.054 164.846 243.869 165.764H241.877C241.994 163.908 243.576 162.541 246.115 162.541C248.605 162.541 250.197 163.859 250.197 165.92V173H248.175V171.311H248.127C247.531 172.453 246.232 173.176 244.884 173.176ZM256.325 160.295H258.445V162.727H260.398V164.396H258.445V170.061C258.445 170.949 258.835 171.35 259.695 171.35C259.909 171.35 260.251 171.33 260.388 171.301V172.971C260.154 173.029 259.685 173.068 259.216 173.068C257.136 173.068 256.325 172.277 256.325 170.295V164.396H254.831V162.727H256.325V160.295ZM270.645 162.727V173H268.623V171.262H268.574C268.008 172.492 266.963 173.186 265.391 173.186C263.154 173.186 261.787 171.73 261.787 169.377V162.727H263.896V168.967C263.896 170.529 264.639 171.369 266.094 171.369C267.617 171.369 268.535 170.314 268.535 168.713V162.727H270.645ZM49.0953 194.262H47.0836C46.8688 193.168 46.0484 192.299 44.6715 192.299C43.0406 192.299 41.9664 193.656 41.9664 195.863C41.9664 198.119 43.0504 199.428 44.691 199.428C45.9898 199.428 46.8395 198.715 47.0836 197.523H49.1148C48.8902 199.711 47.1422 201.195 44.6715 201.195C41.732 201.195 39.818 199.184 39.818 195.863C39.818 192.602 41.732 190.541 44.652 190.541C47.2984 190.541 48.9098 192.24 49.0953 194.262ZM54.723 201.195C51.7836 201.195 49.85 199.174 49.85 195.863C49.85 192.562 51.7934 190.541 54.723 190.541C57.6527 190.541 59.5961 192.562 59.5961 195.863C59.5961 199.174 57.6625 201.195 54.723 201.195ZM54.723 199.457C56.3832 199.457 57.4477 198.148 57.4477 195.863C57.4477 193.588 56.3734 192.279 54.723 192.279C53.0727 192.279 51.9984 193.588 51.9984 195.863C51.9984 198.148 53.0727 199.457 54.723 199.457ZM60.927 201V190.727H62.9387V192.475H62.9875C63.3293 191.273 64.2473 190.561 65.4582 190.561C65.7609 190.561 66.0246 190.609 66.1809 190.639V192.602C66.0148 192.533 65.6438 192.484 65.2336 192.484C63.8762 192.484 63.0363 193.393 63.0363 194.848V201H60.927ZM67.1895 201V190.727H69.2012V192.475H69.25C69.5918 191.273 70.5098 190.561 71.7207 190.561C72.0234 190.561 72.2871 190.609 72.4434 190.639V192.602C72.2773 192.533 71.9062 192.484 71.4961 192.484C70.1387 192.484 69.2988 193.393 69.2988 194.848V201H67.1895ZM77.2996 192.24C75.825 192.24 74.7898 193.363 74.6824 194.916H79.8191C79.7703 193.344 78.7742 192.24 77.2996 192.24ZM79.8094 197.982H81.8113C81.5184 199.857 79.741 201.195 77.3875 201.195C74.3699 201.195 72.5438 199.154 72.5438 195.912C72.5438 192.689 74.3992 190.541 77.2996 190.541C80.1512 190.541 81.9285 192.553 81.9285 195.668V196.391H74.6727V196.518C74.6727 198.305 75.7469 199.486 77.4363 199.486C78.6375 199.486 79.5262 198.881 79.8094 197.982ZM87.6832 201.195C84.7438 201.195 82.8102 199.174 82.8102 195.863C82.8102 192.562 84.7535 190.541 87.6832 190.541C90.6129 190.541 92.5563 192.562 92.5563 195.863C92.5563 199.174 90.6227 201.195 87.6832 201.195ZM87.6832 199.457C89.3434 199.457 90.4078 198.148 90.4078 195.863C90.4078 193.588 89.3336 192.279 87.6832 192.279C86.0328 192.279 84.9586 193.588 84.9586 195.863C84.9586 198.148 86.0328 199.457 87.6832 199.457ZM94.9809 201.107C94.268 201.107 93.7016 200.541 93.7016 199.828C93.7016 199.115 94.268 198.549 94.9809 198.549C95.6938 198.549 96.2602 199.115 96.2602 199.828C96.2602 200.541 95.6938 201.107 94.9809 201.107ZM101.715 204.164L101.949 194.701H104.41L104.645 204.164H101.715ZM103.18 192.865C102.291 192.865 101.588 192.191 101.588 191.342C101.588 190.473 102.291 189.809 103.18 189.809C104.068 189.809 104.771 190.473 104.771 191.342C104.771 192.191 104.068 192.865 103.18 192.865ZM122.138 201H119.511V191.488H119.432L115.604 200.863H113.749L109.921 191.488H109.843V201H107.216V186.908H110.634L114.638 196.898H114.716L118.72 186.908H122.138V201ZM127.746 199.105C128.986 199.105 130.011 198.295 130.011 197.162V196.4L127.804 196.537C126.74 196.615 126.134 197.094 126.134 197.836C126.134 198.617 126.779 199.105 127.746 199.105ZM126.808 201.166C124.816 201.166 123.302 199.877 123.302 197.992C123.302 196.088 124.767 194.984 127.375 194.828L130.011 194.672V193.979C130.011 193.002 129.328 192.436 128.254 192.436C127.189 192.436 126.515 192.963 126.379 193.734H123.771C123.879 191.703 125.607 190.307 128.38 190.307C131.066 190.307 132.814 191.693 132.814 193.803V201H130.06V199.398H130.002C129.416 200.512 128.117 201.166 126.808 201.166ZM134.36 201V190.531H137.114V192.396H137.172C137.729 191.098 138.832 190.336 140.444 190.336C142.768 190.336 144.077 191.801 144.077 194.252V201H141.225V194.848C141.225 193.48 140.58 192.699 139.301 192.699C138.022 192.699 137.211 193.637 137.211 194.994V201H134.36ZM146.345 188.119H149.196V190.531H151.13V192.68H149.196V197.689C149.196 198.49 149.587 198.871 150.427 198.871C150.681 198.871 150.945 198.852 151.12 198.822V200.922C150.827 200.99 150.339 201.039 149.763 201.039C147.302 201.039 146.345 200.219 146.345 198.178V192.68H144.87V190.531H146.345V188.119ZM156.934 192.416C155.684 192.416 154.785 193.363 154.688 194.672H159.131C159.072 193.334 158.203 192.416 156.934 192.416ZM159.17 197.797H161.787C161.475 199.848 159.6 201.225 157.012 201.225C153.789 201.225 151.855 199.164 151.855 195.814C151.855 192.475 153.809 190.307 156.904 190.307C159.951 190.307 161.875 192.367 161.875 195.551V196.42H154.658V196.596C154.658 198.09 155.605 199.115 157.061 199.115C158.105 199.115 158.906 198.598 159.17 197.797ZM163.05 201V190.531H165.804V192.396H165.862C166.419 191.098 167.522 190.336 169.134 190.336C171.458 190.336 172.766 191.801 172.766 194.252V201H169.915V194.848C169.915 193.48 169.27 192.699 167.991 192.699C166.712 192.699 165.901 193.637 165.901 194.994V201H163.05ZM175.035 188.119H177.886V190.531H179.82V192.68H177.886V197.689C177.886 198.49 178.277 198.871 179.117 198.871C179.371 198.871 179.634 198.852 179.81 198.822V200.922C179.517 200.99 179.029 201.039 178.453 201.039C175.992 201.039 175.035 200.219 175.035 198.178V192.68H173.56V190.531H175.035V188.119ZM185.623 192.416C184.373 192.416 183.475 193.363 183.377 194.672H187.821C187.762 193.334 186.893 192.416 185.623 192.416ZM187.86 197.797H190.477C190.164 199.848 188.289 201.225 185.702 201.225C182.479 201.225 180.545 199.164 180.545 195.814C180.545 192.475 182.498 190.307 185.594 190.307C188.641 190.307 190.565 192.367 190.565 195.551V196.42H183.348V196.596C183.348 198.09 184.295 199.115 185.75 199.115C186.795 199.115 187.596 198.598 187.86 197.797ZM199.447 199.105C200.688 199.105 201.713 198.295 201.713 197.162V196.4L199.506 196.537C198.441 196.615 197.836 197.094 197.836 197.836C197.836 198.617 198.48 199.105 199.447 199.105ZM198.51 201.166C196.518 201.166 195.004 199.877 195.004 197.992C195.004 196.088 196.469 194.984 199.076 194.828L201.713 194.672V193.979C201.713 193.002 201.029 192.436 199.955 192.436C198.891 192.436 198.217 192.963 198.08 193.734H195.473C195.58 191.703 197.309 190.307 200.082 190.307C202.768 190.307 204.516 191.693 204.516 193.803V201H201.762V199.398H201.703C201.117 200.512 199.818 201.166 198.51 201.166ZM206.823 188.119H209.675V190.531H211.608V192.68H209.675V197.689C209.675 198.49 210.065 198.871 210.905 198.871C211.159 198.871 211.423 198.852 211.598 198.822V200.922C211.305 200.99 210.817 201.039 210.241 201.039C207.78 201.039 206.823 200.219 206.823 198.178V192.68H205.348V190.531H206.823V188.119ZM217.412 192.416C216.162 192.416 215.263 193.363 215.166 194.672H219.609C219.55 193.334 218.681 192.416 217.412 192.416ZM219.648 197.797H222.265C221.953 199.848 220.078 201.225 217.49 201.225C214.267 201.225 212.334 199.164 212.334 195.814C212.334 192.475 214.287 190.307 217.382 190.307C220.429 190.307 222.353 192.367 222.353 195.551V196.42H215.136V196.596C215.136 198.09 216.084 199.115 217.539 199.115C218.584 199.115 219.384 198.598 219.648 197.797ZM223.528 201V190.531H226.282V192.396H226.34C226.897 191.098 228 190.336 229.612 190.336C231.936 190.336 233.245 191.801 233.245 194.252V201H230.393V194.848C230.393 193.48 229.748 192.699 228.469 192.699C227.19 192.699 226.379 193.637 226.379 194.994V201H223.528ZM235.513 188.119H238.364V190.531H240.298V192.68H238.364V197.689C238.364 198.49 238.755 198.871 239.595 198.871C239.849 198.871 240.112 198.852 240.288 198.822V200.922C239.995 200.99 239.507 201.039 238.931 201.039C236.47 201.039 235.513 200.219 235.513 198.178V192.68H234.038V190.531H235.513V188.119ZM246.209 201.225C243.045 201.225 241.023 199.193 241.023 195.756C241.023 192.367 243.074 190.307 246.209 190.307C249.344 190.307 251.395 192.357 251.395 195.756C251.395 199.203 249.373 201.225 246.209 201.225ZM246.209 199.047C247.605 199.047 248.494 197.865 248.494 195.766C248.494 193.686 247.596 192.484 246.209 192.484C244.822 192.484 243.914 193.686 243.914 195.766C243.914 197.865 244.803 199.047 246.209 199.047ZM254.083 204.027H251.446L256.456 186.908H259.083L254.083 204.027ZM263.754 199.105C264.994 199.105 266.019 198.295 266.019 197.162V196.4L263.812 196.537C262.748 196.615 262.142 197.094 262.142 197.836C262.142 198.617 262.787 199.105 263.754 199.105ZM262.816 201.166C260.824 201.166 259.31 199.877 259.31 197.992C259.31 196.088 260.775 194.984 263.382 194.828L266.019 194.672V193.979C266.019 193.002 265.336 192.436 264.261 192.436C263.197 192.436 262.523 192.963 262.386 193.734H259.779C259.886 191.703 261.615 190.307 264.388 190.307C267.074 190.307 268.822 191.693 268.822 193.803V201H266.068V199.398H266.009C265.423 200.512 264.125 201.166 262.816 201.166ZM271.139 186.908H274.069L273.834 196.361H271.373L271.139 186.908ZM272.604 201.244C271.715 201.244 271.012 200.57 271.012 199.711C271.012 198.852 271.715 198.178 272.604 198.178C273.493 198.178 274.196 198.852 274.196 199.711C274.196 200.57 273.493 201.244 272.604 201.244Z" fill="white"/>
</svg>
