<svg width="375" height="744" viewBox="0 0 375 744" fill="none" xmlns="http://www.w3.org/2000/svg">
<g clip-path="url(#clip0_135_108)">
<path d="M455 631.342V525.515V520.209V517.35V512.266V412.094V401.928V329.65V325.647V277.134V267.221V244.505V239.962V155.484V149.448V130.227V124.381V74.7241V70.7845V0H-80V744H182.794H187.06H444.03H448.94H454.966V635.885V631.374L455 631.342ZM450.734 633.947C433.941 644.018 416.37 653.073 398.155 661.111C382.242 635.155 365.416 607.641 350.959 584.036C387.727 570.025 421.516 551.408 450.734 528.819V633.915V633.947ZM450.734 411.141C442.033 427.63 430.251 443.42 415.49 458.225C411.088 462.673 406.45 466.93 401.608 471.06C383.529 455.938 368.903 446.629 357.223 441.101C371.781 426.169 383.326 409.298 391.079 391.062C407.499 391.444 427.238 395.955 450.734 404.66V411.141ZM-19.7355 187.922C-31.6191 176.993 -48.852 160.314 -68.2857 141.092C-36.596 116.28 -0.471138 96.6139 38.4638 82.5714C48.6546 98.2977 59.7257 115.676 71.5416 134.484C40.1228 146.493 10.5661 163.459 -15.7743 184.936C-17.0608 185.984 -18.3135 187.033 -19.5662 188.081C-19.6339 188.017 -19.6678 187.986 -19.7355 187.922ZM382.886 186.334C384.409 187.541 385.899 188.78 387.355 190.019C374.083 202.378 360.845 216.039 348.081 232.337C345 229.732 341.784 227.19 338.466 224.744C318.423 209.907 295.299 198.343 270.279 190.305C277.558 171.719 286.192 154.182 296.518 137.502C327.767 149.067 356.986 165.524 382.886 186.365V186.334ZM342.766 384.359C332.27 399.386 321.842 418.29 311.55 441.959C310.297 443.007 309.045 444.055 307.758 445.072C305.998 440.243 303.357 435.636 299.937 431.284C309.722 398.02 321.368 371.11 334.2 349.062C339.82 359.768 342.8 370.952 342.8 382.135C342.8 382.865 342.8 383.596 342.766 384.359ZM335.521 420.927C342.156 410.665 350.62 399.259 367.379 394.017C373.101 392.238 379.466 391.253 386.474 391.094C378.755 408.663 367.447 424.93 353.227 439.322C342.156 434.62 333.963 433.508 328.106 433.857C327.158 433.921 326.278 434.016 325.465 434.143C329.155 430.045 332.406 425.756 335.216 421.308C335.317 421.212 335.453 421.085 335.521 420.927ZM87.3864 490.091C116.672 501.719 149.141 507.977 182.794 508.232V545.371C140.101 545.117 98.3559 537.588 60.5044 523.863C70.2889 507.755 79.3963 497.112 87.3864 490.091ZM38.1591 419.116C38.1591 419.116 38.0914 418.925 38.0237 418.861C37.8205 418.544 37.6174 418.258 37.4142 417.94C32.6405 410.029 29.4918 401.705 28.036 393.191C35.7891 405.168 43.2376 418.988 50.449 434.651C45.6414 429.695 41.5447 424.517 38.1591 419.147V419.116ZM58.3376 442.022C48.0452 418.29 37.6174 399.386 27.088 384.327C27.088 383.596 27.0542 382.865 27.0542 382.135C27.0542 370.952 30.0335 359.768 35.6537 349.062C48.4853 371.11 60.1319 397.988 69.9165 431.252C66.4969 435.636 63.8562 440.243 62.0956 445.072C60.8091 444.055 59.5564 443.039 58.3376 441.99V442.022ZM73.7084 137.979C84.1023 154.849 92.7696 172.577 100.049 191.385C75.1981 199.963 51.9387 212.322 31.4217 228.08C28.7131 230.177 26.0723 232.305 23.5331 234.434C10.5661 217.596 -2.90881 203.521 -16.4514 190.845C-15.2664 189.86 -14.1153 188.875 -12.9303 187.89C13.2069 166.572 42.5266 149.766 73.7422 137.915L73.7084 137.979ZM241.535 280.183C224.234 275.704 205.884 273.289 187.06 273.099V181.219C214.01 181.409 240.248 185.38 264.693 192.751C255.111 218.009 247.663 245.935 241.975 277.61C241.806 278.468 241.67 279.326 241.535 280.183ZM293.606 454.826C295.164 448.44 296.789 442.276 298.482 436.335C300.987 439.989 302.883 443.833 304.169 447.836C300.818 450.282 297.297 452.633 293.606 454.857V454.826ZM288.528 457.748C281.045 461.879 272.92 465.596 264.32 468.773C267.3 449.52 270.651 431.57 274.308 414.89C282.874 419.91 290.017 425.66 295.333 432.046C292.929 440.338 290.661 448.884 288.562 457.748H288.528ZM252.369 477.033C252.369 477.033 262.966 474.714 278.845 487.073C251.116 497.843 219.968 503.974 187.094 504.229V486.437C210.218 486.247 232.191 482.911 252.064 477.097C252.166 477.097 252.267 477.097 252.403 477.033H252.369ZM118.839 473.221C118.839 473.221 118.738 473.157 118.67 473.157C118.602 473.157 118.501 473.125 118.331 473.094C115.555 472.268 112.813 471.41 110.138 470.488C106.989 449.774 103.401 430.553 99.4732 412.73C110.307 406.948 123.173 402.309 137.46 399.068C139.255 424.135 140.71 450.632 142.132 478.653C134.142 477.224 126.355 475.413 118.805 473.221H118.839ZM146.466 479.448C144.976 449.965 143.419 423.055 141.658 398.211C154.49 395.605 168.337 394.176 182.794 394.049V482.402C170.402 482.307 158.214 481.322 146.466 479.448ZM127.879 277.61C122.259 246.348 114.946 218.739 105.567 193.768C130.147 185.73 156.284 181.441 182.828 181.219V273.099C164.004 273.258 145.653 275.704 128.353 280.183C128.217 279.326 128.048 278.468 127.913 277.61H127.879ZM182.794 277.134V390.046C168.27 390.173 154.321 391.634 141.354 394.239C138.307 352.493 134.515 316.656 128.996 284.218C146.06 279.739 164.207 277.356 182.794 277.165V277.134ZM259.75 470.425C249.694 473.888 238.962 476.652 227.721 478.685C229.143 450.632 230.633 424.167 232.394 399.1C246.681 402.309 259.547 406.979 270.381 412.761C266.453 430.553 262.898 449.742 259.716 470.457L259.75 470.425ZM223.388 479.416C211.741 481.29 199.587 482.307 187.06 482.402V394.017C201.517 394.144 215.364 395.605 228.195 398.179C226.401 422.992 224.878 449.901 223.388 479.384V479.416ZM187.06 390.014V277.102C205.647 277.261 223.794 279.675 240.858 284.155C235.339 316.592 231.547 352.429 228.5 394.176C215.533 391.571 201.584 390.141 187.06 389.982V390.014ZM182.794 177.247C155.743 177.47 129.165 181.854 104.112 190.019C96.6292 170.798 87.8943 153.102 77.7035 136.518C111.221 124.318 146.771 117.805 182.794 117.551V177.247ZM34.0963 231.193C54.2409 215.721 77.0602 203.585 101.471 195.166C111.391 221.599 118.636 250.16 124.121 281.327C104.45 286.887 86.2691 295.116 70.5597 305.822C69.2393 306.712 67.9866 307.633 66.7001 308.523C54.2409 280.025 40.4613 257.055 25.9708 237.77C28.5777 235.546 31.2862 233.354 34.0625 231.193H34.0963ZM73.0651 309.063C88.2667 298.737 105.804 290.731 124.832 285.299C130.52 318.689 134.278 355.066 137.223 395.065C122.834 398.274 109.766 402.913 98.6267 408.695C90.0272 370.729 79.8026 339.149 68.3929 312.367C69.9165 311.223 71.4739 310.111 73.0651 309.031V309.063ZM94.6994 410.823C86.1337 415.684 78.8546 421.244 73.2005 427.376C63.7207 395.86 52.0402 368.505 37.9898 344.932C44.3887 334.193 53.4622 324.058 64.9057 315.036C76.1461 341.659 86.2353 373.08 94.7333 410.823H94.6994ZM71.3723 436.303C73.0651 442.276 74.6902 448.44 76.2476 454.794C75.1642 454.127 74.0469 453.491 72.9974 452.792C70.4582 451.172 68.0205 449.488 65.6844 447.804C66.9371 443.833 68.8669 439.989 71.3723 436.303ZM81.36 457.748C79.227 448.884 76.9925 440.338 74.5887 432.046C79.9041 425.692 87.0478 419.91 95.6135 414.89C99.27 431.601 102.622 449.552 105.601 468.805C97.0694 465.628 88.9776 461.942 81.3938 457.717L81.36 457.748ZM117.383 477.001C137.697 482.974 159.873 486.215 182.828 486.405V504.229C150.461 503.974 119.245 498.097 90.9752 487.136C105.974 475.413 116.131 476.779 117.383 477.001ZM187.06 508.232C221.289 507.977 253.622 501.433 282.366 489.995C290.356 496.985 299.531 507.66 309.316 523.831C271.464 537.556 229.719 545.117 187.06 545.371V508.232ZM283.28 485.262C274.917 478.336 267.74 475.159 262.289 473.761C272.547 470.171 282.163 465.85 290.965 460.957C291.338 460.862 291.643 460.671 291.913 460.417C297.432 457.304 302.646 453.936 307.453 450.346C307.86 450.187 308.198 449.933 308.435 449.615C310.467 448.09 312.397 446.533 314.292 444.913C314.631 444.754 314.936 444.5 315.139 444.182C316.188 443.261 317.238 442.34 318.254 441.387C318.457 441.291 318.66 441.164 318.829 440.974C318.965 440.847 327.09 433.063 350.113 442.34C331.83 459.972 309.112 474.618 283.314 485.23L283.28 485.262ZM319.506 434.524C326.684 418.893 334.132 405.137 341.852 393.191C339.245 408.218 331.424 422.261 319.506 434.524ZM296.687 427.408C291.033 421.276 283.754 415.684 275.188 410.855C283.652 373.112 293.775 341.691 305.016 315.067C316.459 324.09 325.533 334.257 331.932 344.963C317.881 368.537 306.201 395.891 296.721 427.408H296.687ZM271.295 408.727C260.156 402.944 247.087 398.306 232.698 395.097C235.61 355.098 239.402 318.721 245.09 285.33C264.117 290.731 281.655 298.737 296.856 309.095C298.448 310.175 300.005 311.287 301.529 312.43C290.153 339.213 279.894 370.825 271.295 408.758V408.727ZM299.328 305.822C283.618 295.116 265.438 286.887 245.767 281.327C251.353 249.716 258.734 220.805 268.857 194.054C293.471 201.933 316.155 213.307 335.825 227.858C339.211 230.336 342.427 232.909 345.542 235.546C330.476 255.307 316.121 278.913 303.154 308.491C301.901 307.57 300.614 306.68 299.294 305.79L299.328 305.822ZM266.149 189.002C241.23 181.473 214.517 177.438 187.06 177.215V117.519C223.32 117.773 258.971 124.095 292.455 136.009C282.332 152.466 273.597 169.972 266.149 189.002ZM182.794 113.548C146.026 113.802 109.698 120.473 75.5366 133.023C63.7546 114.215 52.6835 96.8681 42.4927 81.1417C86.5061 65.7966 134.041 57.6316 182.794 57.4092V113.548ZM-19.6678 193.609C-6.12518 206.254 7.3497 220.328 20.3167 237.198C4.84431 250.796 -7.54715 265.633 -16.4175 281.073C-34.2599 266.554 -52.0346 256.642 -68.3872 248.349C-55.5895 229.033 -39.1352 210.416 -19.6678 193.577V193.609ZM22.8221 240.534C37.1773 259.787 50.8553 282.693 63.2129 311.16C51.634 320.151 42.2896 330.222 35.5183 340.929C27.6636 328.252 19.1318 316.719 9.82123 306.235C2.30509 297.753 -5.34647 290.414 -12.998 283.932C-4.36464 268.651 7.75598 253.878 22.8221 240.534ZM33.1822 344.868C27.0542 355.702 23.5331 367.076 22.9237 378.545C5.92773 355.861 -11.2037 342.898 -28.1319 335.464C-27.9287 319.801 -23.3581 303.503 -15.0294 287.65C1.89881 302.042 18.3192 320.341 33.1822 344.868ZM-20.785 343.565C-5.14334 352.398 9.31337 366.313 22.8898 385.566C23.1945 391.729 24.3118 397.798 26.2416 403.707C20.6553 398.147 13.5793 393.223 3.86249 390.204C-2.77338 388.108 -10.188 387.059 -18.3812 387.027C-24.4077 371.905 -27.7256 356.051 -28.1319 339.817C-25.6942 340.929 -23.2227 342.199 -20.785 343.565ZM2.50822 394.017C18.6239 399.068 27.0542 409.807 33.5885 419.783C36.5678 424.739 40.1228 429.504 44.2194 434.111C43.4407 433.984 42.6281 433.889 41.7479 433.857C35.8907 433.508 27.6636 434.62 16.5248 439.385C2.03423 424.739 -9.1384 408.441 -16.7223 391.094C-9.68011 391.253 -3.28123 392.238 2.47437 394.017H2.50822ZM50.686 440.688C56.4754 446.152 63.1452 451.331 70.5936 456.096C73.0313 457.653 75.5705 459.146 78.1436 460.608C78.2113 460.671 78.3129 460.703 78.4144 460.767C87.4203 465.818 97.1371 470.202 107.463 473.793C102.012 475.19 94.8687 478.399 86.5061 485.325C67.4111 477.478 49.7719 467.311 34.0963 454.984C28.984 450.95 24.1764 446.756 19.6735 442.435C40.0889 434.175 48.8239 439.322 50.6521 440.688H50.686ZM31.3539 458.066C46.8602 470.298 64.2963 480.433 83.0866 488.343C75.0288 495.746 66.023 506.58 56.4754 522.401C24.6165 510.392 -4.36464 493.967 -28.6397 473.824C-10.2895 458.511 4.2349 449.425 15.5768 444.214C20.486 449.012 25.7338 453.65 31.3539 458.066ZM182.794 549.374V610.119C127.845 609.865 73.9454 599.953 25.1582 581.907C41.1385 555.824 53.8008 535.046 58.4053 527.389C96.9001 541.432 139.39 549.152 182.794 549.374ZM187.06 549.374C230.464 549.12 272.954 541.4 311.449 527.357C316.053 535.014 328.783 555.856 344.797 582.034C295.976 600.016 242.11 609.897 187.094 610.151V549.406L187.06 549.374ZM313.378 522.369C303.797 506.484 294.757 495.651 286.699 488.248C312.803 477.287 335.757 462.228 354.209 444.182C365.551 449.361 380.076 458.447 398.46 473.793C374.185 493.935 345.237 510.36 313.378 522.369ZM388.167 387.027C380.008 387.059 372.627 388.139 366.025 390.204C356.275 393.254 349.165 398.179 343.578 403.77C345.508 397.861 346.693 391.793 346.998 385.566C360.574 366.313 375.031 352.398 390.673 343.565C393.11 342.168 395.582 340.929 398.02 339.817C397.613 356.242 394.194 372.064 388.201 387.027H388.167ZM346.964 378.545C346.355 367.107 342.833 355.702 336.705 344.868C351.941 319.769 368.768 301.152 386.136 286.601C393.754 302.359 397.85 318.88 398.02 335.464C381.091 342.867 363.96 355.861 346.964 378.545ZM360.066 306.235C350.756 316.719 342.19 328.252 334.369 340.929C327.598 330.222 318.254 320.119 306.675 311.16C319.506 281.581 333.76 258.039 348.725 238.342C363.892 251.749 375.877 266.84 384.24 282.789C376.148 289.556 368.023 297.276 360.066 306.235ZM351.23 235.038C363.994 218.708 377.198 205.015 390.503 192.688C409.971 209.494 426.391 228.271 439.121 247.905C422.938 256.07 405.299 265.823 387.592 280.025C378.958 263.853 366.702 248.604 351.264 235.038H351.23ZM385.662 183.284C359.559 162.283 330.137 145.699 298.685 133.976C310.264 115.486 321.199 98.3613 331.221 82.8891C370.833 97.2493 406.992 117.138 437.97 141.283C419.044 159.996 402.218 176.294 390.402 187.191C388.844 185.889 387.253 184.586 385.662 183.284ZM294.656 132.514C260.528 120.283 224.099 113.77 187.094 113.548V57.4092C236.321 57.6633 283.754 66.2096 327.192 81.4594C317.17 96.9634 306.235 114.056 294.656 132.546V132.514ZM187.06 53.3743V13.8837C248.238 14.0743 305.32 21.8263 356.884 36.1548C348.928 48.0687 339.786 61.9206 329.731 77.4563C285.108 61.8888 236.761 53.5967 187.06 53.3743ZM182.794 53.3743C133.262 53.5967 84.9487 61.9523 40.2582 77.6469C30.1351 62.0477 20.96 48.1322 12.9699 36.1548C64.5333 21.8263 121.615 14.0743 182.794 13.8837V53.3743ZM36.1954 79.1084C-2.97653 93.3098 -39.3384 113.166 -71.2312 138.17C-72.7209 136.708 -74.2105 135.215 -75.7341 133.722V69.8632C-49.7323 56.9008 -21.496 45.9718 8.70396 37.3303C16.728 49.3395 25.9708 63.3502 36.1954 79.1084ZM-74.4814 140.775C-74.8877 141.092 -75.3278 141.442 -75.7341 141.76V139.536C-75.3278 139.949 -74.9215 140.362 -74.4814 140.775ZM-71.5359 143.698C-52.0007 163.014 -34.6662 179.821 -22.7148 190.781C-42.4532 207.874 -59.1444 226.809 -72.1453 246.475C-72.45 246.316 -72.7209 246.189 -73.0256 246.03C-73.9058 245.585 -74.82 245.141 -75.7341 244.664V147.065C-74.346 145.922 -72.9579 144.778 -71.5359 143.666V143.698ZM-75.0231 249.589C-74.82 249.684 -74.6168 249.811 -74.3798 249.906C-74.8538 250.637 -75.294 251.336 -75.7341 252.067V249.239C-75.4971 249.366 -75.2601 249.493 -75.0231 249.589ZM-70.6218 251.781C-53.4227 260.518 -35.7157 270.716 -18.4828 284.79C-27.0823 300.866 -31.89 317.45 -32.3639 333.748C-47.0577 328.061 -61.5821 326.346 -75.7002 325.869V260.2C-74.0751 257.404 -72.3823 254.608 -70.5879 251.812L-70.6218 251.781ZM-32.3978 337.974C-32.2285 354.876 -28.9783 371.396 -22.8841 387.123C-37.8825 387.695 -55.4202 391.507 -75.7341 398.56V329.841C-61.4805 330.349 -46.9899 332.096 -32.4317 337.974H-32.3978ZM-21.2929 391.094C-13.709 409.076 -2.29939 425.978 12.5297 441.164C0.849258 446.692 -13.709 456.001 -31.7207 471.06C-31.7207 471.06 -31.7545 471.092 -31.7884 471.124C-36.7653 466.867 -41.539 462.482 -46.042 457.907C-57.8579 445.993 -67.7778 433.444 -75.7002 420.418V402.817C-54.4722 395.351 -36.4267 391.475 -21.259 391.094H-21.2929ZM-49.1906 460.64C-44.6877 465.183 -39.9478 469.567 -35.0047 473.793C-45.331 482.275 -59.2798 493.014 -75.7341 505.309V428.234C-68.3195 439.449 -59.483 450.282 -49.1906 460.64ZM-31.8222 476.493C-7.20859 496.985 22.1111 513.696 54.4102 525.896C49.5349 533.966 36.9403 554.616 21.1631 580.382C-14.4877 566.785 -47.2946 548.834 -75.7341 527.103V510.392C-57.8579 497.08 -42.7917 485.484 -31.8222 476.493ZM19.0302 583.909C4.57347 607.578 -12.3209 635.123 -28.2673 661.111C-44.62 653.899 -60.4987 645.829 -75.7341 636.934V532.25C-47.7686 553.187 -15.7066 570.597 19.0302 583.877V583.909ZM23.0252 585.402C72.4895 603.765 127.1 613.868 182.828 614.122V705.177C109.732 704.891 38.9039 690.086 -24.3738 662.795C-8.39356 636.711 8.53468 609.071 23.0252 585.402ZM187.06 614.122C242.821 613.868 297.432 603.829 346.93 585.529C361.387 609.166 378.315 636.775 394.261 662.827C330.984 690.117 260.156 704.891 187.06 705.177V614.122ZM450.734 523.64C421.11 547.023 386.542 566.213 348.826 580.541C333.015 554.68 320.353 533.966 315.477 525.896C347.743 513.664 377.096 496.953 401.676 476.461C413.695 486.342 430.589 499.272 450.734 514.205V523.672V523.64ZM450.734 509.089C432.011 495.174 416.234 483.101 404.859 473.729C409.632 469.599 414.237 465.373 418.638 460.957C431.605 447.931 442.338 434.143 450.768 419.783V509.058L450.734 509.089ZM450.734 400.371C428.186 392.142 408.955 387.726 392.704 387.123C398.798 371.555 402.15 355.066 402.319 337.974C418.638 331.397 434.855 329.999 450.768 329.714V400.371H450.734ZM450.734 325.71C435.025 325.965 418.774 327.363 402.285 333.717C401.845 316.751 397.478 299.881 389.555 283.837C406.687 270.049 424.258 260.009 441.322 251.368C444.741 256.896 447.924 262.456 450.734 268.079V325.679V325.71ZM450.734 259.151C448.94 255.911 447.044 252.702 445.08 249.493C446.908 248.572 448.804 247.651 450.734 246.666V259.151ZM450.734 242.122C448.026 243.489 445.385 244.791 442.913 246.03C430.014 226.047 413.357 206.953 393.584 189.892C405.468 178.963 422.295 162.601 441.254 143.888C444.471 146.462 447.653 149.067 450.768 151.736V242.122H450.734ZM450.734 145.763C448.703 144.047 446.604 142.332 444.504 140.616C446.57 138.583 448.635 136.518 450.734 134.452V145.763ZM450.734 128.638C447.518 131.816 444.369 134.961 441.254 138.043C440.916 137.788 440.577 137.502 440.239 137.217C408.718 112.531 372.695 92.9603 333.794 78.9178C343.951 63.2549 353.16 49.3077 361.15 37.362C393.347 46.5755 423.31 58.3941 450.734 72.5001V128.638ZM450.734 4.00307V68.5606C423.649 54.7722 394.295 43.3031 363.215 34.2485C371.578 21.7627 378.518 11.5644 383.732 4.00307H450.734ZM378.62 4.00307C373.474 11.5327 366.838 21.2862 358.983 33.0413C305.828 18.0138 247.663 10.0712 187.06 9.8806V4.00307H378.62ZM182.794 4.00307V9.8806C122.191 10.0712 64.0593 18.0138 10.8708 33.0413C3.01608 21.2862 -3.61979 11.5327 -8.76598 4.00307H182.794ZM-13.8445 4.00307C-8.63055 11.5962 -1.68998 21.7627 6.67257 34.2485C-22.4779 42.7312 -50.0709 53.3426 -75.7341 65.9872V4.00307H-13.8445ZM-75.7341 641.382C-61.1419 649.769 -45.9404 657.457 -30.2648 664.383C-48.6151 694.311 -65.4756 721.856 -75.7341 738.536V641.382ZM-71.7052 739.997C-61.4128 723.19 -44.5861 695.804 -26.3713 666.067C-21.3267 668.259 -16.2483 670.388 -11.1021 672.421C50.212 696.567 115.42 708.925 182.794 709.18V739.997H-71.7052ZM187.06 739.997V709.18C254.468 708.925 319.71 696.535 381.057 672.358C386.17 670.356 391.214 668.228 396.259 666.035C414.474 695.773 431.267 723.159 441.593 739.965H187.094L187.06 739.997ZM450.734 739.997H446.536C436.413 723.476 419.044 695.201 400.186 664.383C417.69 656.631 434.585 647.926 450.768 638.395V739.997H450.734Z" fill="url(#paint0_linear_135_108)" fill-opacity="0.25"/>
</g>
<rect x="-79.5" y="0.5" width="534" height="743" stroke="black"/>
<defs>
<linearGradient id="paint0_linear_135_108" x1="187.5" y1="0" x2="187.5" y2="744" gradientUnits="userSpaceOnUse">
<stop offset="0.0318102" stop-color="#4E1C1C"/>
<stop offset="0.216346" stop-color="#FF1D1D"/>
<stop offset="0.466346" stop-color="#E56C44"/>
<stop offset="0.732753" stop-color="#00DDC2"/>
<stop offset="1" stop-color="#C40BED"/>
</linearGradient>
<clipPath id="clip0_135_108">
<rect x="-80" width="535" height="744" fill="white"/>
</clipPath>
</defs>
</svg>
