<svg width="338" height="337" viewBox="0 0 338 337" fill="none" xmlns="http://www.w3.org/2000/svg">
<path d="M52.27 165.92C52.27 103.15 103.15 52.27 165.92 52.27C228.69 52.27 279.57 103.15 279.57 165.92C279.57 166.7 279.54 167.48 279.52 168.26H328.05C328.06 167.48 328.09 166.71 328.09 165.92C328.09 76.49 255.34 3.73999 165.92 3.73999C76.5 3.73999 3.73999 76.49 3.73999 165.92H52.27Z" fill="white" stroke="white" stroke-width="7.49" stroke-linecap="round" stroke-linejoin="round"/>
<path d="M89.78 250.24C70.93 233.2 57.79 209.97 53.67 183.72H4.73999C8.58999 218.82 23.7 250.58 46.35 275.32L89.79 250.24H89.78Z" fill="white" stroke="white" stroke-width="7.49" stroke-linecap="round" stroke-linejoin="round"/>
<path d="M114.43 258.13L160.4 320.78L10.42 324.15L114.43 258.13Z" fill="white" stroke="white" stroke-width="7.49" stroke-linecap="round" stroke-linejoin="round"/>
<path d="M333.7 332.57H254.21L168.27 241.43H227.49L333.7 332.57Z" fill="white" stroke="white" stroke-width="7.49" stroke-linecap="round" stroke-linejoin="round"/>
<path d="M289.47 270.84C309.43 247.36 322.83 218.14 326.83 186.05H277.78C274.1 206.63 264.83 225.25 251.67 240.39L289.47 270.84Z" fill="white" stroke="white" stroke-width="7.49" stroke-linecap="round" stroke-linejoin="round"/>
</svg>
