<svg width="64" height="59" viewBox="0 0 64 59" fill="none" xmlns="http://www.w3.org/2000/svg">
<path d="M47.443 5.07939C47.284 4.89618 47.1219 4.71563 46.9536 4.53773L47.0347 4.41559C47.1718 4.63597 47.3058 4.85635 47.4399 5.07939H47.443Z" fill="white"/>
<path d="M10.9935 14.9278C10.9935 14.9278 10.9902 14.9364 10.9902 14.9393C10.9902 14.9364 10.9902 14.9335 10.9902 14.9278H10.9935Z" fill="white"/>
<path d="M12.7639 11.5821C12.7639 11.5821 12.7546 11.5939 12.7515 11.5998C12.7515 11.5998 12.7515 11.5968 12.7515 11.5939C12.7546 11.5909 12.7577 11.585 12.7608 11.5821H12.7639Z" fill="white"/>
<path d="M28.8783 34.0659C28.5167 34.0922 28.1521 34.1132 27.7843 34.1316C27.6596 34.1369 27.5287 34.1447 27.4009 34.1474C27.4071 34.1185 27.4102 34.0922 27.4133 34.0659C27.4726 34.0659 27.5349 34.0659 27.5941 34.0659C27.6533 34.0659 27.7157 34.0659 27.7749 34.0659C28.1271 34.0659 28.4762 34.0528 28.8191 34.0318C28.8378 34.0449 28.8565 34.0554 28.8752 34.0686L28.8783 34.0659Z" fill="white"/>
<path d="M28.8783 34.0659C28.5167 34.0922 28.1521 34.1132 27.7843 34.1316C27.7811 34.1106 27.778 34.087 27.7749 34.0659C28.1271 34.0659 28.4762 34.0528 28.8191 34.0318C28.8378 34.0449 28.8565 34.0554 28.8752 34.0686L28.8783 34.0659Z" fill="white"/>
<path d="M63.9688 19.4309C63.9688 23.273 62.5974 26.8416 60.2472 29.7995C57.6009 31.6794 54.7271 33.3336 51.6632 34.7276C48.7738 36.0445 45.7161 37.1305 42.5274 37.9563C42.3155 38.0121 42.1004 38.0652 41.8854 38.1183C37.8614 39.1113 33.6348 39.6928 29.268 39.807C28.7444 39.8203 28.2176 39.8282 27.6908 39.8282C27.1017 39.8282 26.5157 39.8203 25.9329 39.8043C23.8352 39.7433 21.7718 39.576 19.7489 39.3025C14.3659 42.4277 10.7191 47.5549 10.2796 53.4282C5.12112 47.6213 1.64262 40.6726 0.45195 33.1052C0.152724 31.2041 0 29.2631 0 27.2956C0 26.4008 0.0311655 25.514 0.0935042 24.6351C0.255585 22.3649 0.620266 20.1425 1.17508 17.9811C1.82652 15.4454 2.73978 12.992 3.88993 10.6421C4.67539 9.03304 5.56996 7.47443 6.57361 5.96892C7.97 3.86599 9.56898 1.87193 11.3425 0.00531055C12.527 1.82679 14.1415 3.42788 16.074 4.71301C17.0216 5.34229 18.0439 5.89723 19.1286 6.36455C20.977 7.16112 23.0123 7.70278 25.163 7.93644C25.9578 8.02406 26.7713 8.0692 27.5942 8.0692C30.6457 8.0692 33.5257 7.45319 36.0629 6.36455C38.8183 5.18033 41.1685 3.4385 42.8952 1.31433C43.0012 1.18423 43.101 1.05678 43.2038 0.924015C43.4345 0.623975 43.6526 0.313315 43.8552 0C43.7991 0.0849669 44.6968 1.05943 44.7934 1.18688C46.4579 3.37478 47.901 5.66357 49.1198 8.05592C50.2917 10.3527 51.3141 12.83 51.0647 15.3764C50.8309 17.774 50.1328 20.0681 48.7582 22.1817C48.5431 22.5136 48.3156 22.8428 48.0725 23.1588C47.7763 23.5464 47.4615 23.9235 47.128 24.2873C45.4823 26.0928 43.3877 27.6036 40.9846 28.7029C42.5898 27.0513 43.7804 25.0971 44.4225 22.9543C44.7747 21.7807 44.9649 20.5487 44.9649 19.2795C44.9649 16.3853 43.9893 13.6876 42.3061 11.4095L45.155 7.20625C43.5716 7.8674 42.063 8.64272 40.6417 9.51364C32.9865 14.2107 27.9215 21.7754 27.616 30.3624C27.6067 30.3624 27.5973 30.3597 27.5849 30.3571C27.3791 24.5607 25.0009 19.2264 21.1235 14.9303C19.2595 12.8645 17.0465 11.0351 14.5623 9.51098C14.1665 9.2667 13.7613 9.03039 13.3498 8.80469C12.8044 8.502 12.2495 8.21258 11.6823 7.93909L12.9446 9.8004L13.5119 10.6368C13.3997 10.7696 13.2875 10.905 13.1815 11.0404C13.1379 11.0961 13.0942 11.1492 13.0568 11.205C12.9945 11.2847 12.9322 11.3696 12.8729 11.4519C12.8636 11.4652 12.8542 11.4758 12.8449 11.4865C12.8449 11.4891 12.8386 11.4944 12.8386 11.4971C12.8386 11.4997 12.8324 11.505 12.8324 11.5077C12.8262 11.5183 12.8168 11.5289 12.8106 11.5369C12.8012 11.5502 12.7919 11.5608 12.7825 11.5741C12.7825 11.5767 12.7763 11.582 12.7763 11.5847C12.7732 11.5874 12.7701 11.5927 12.767 11.5953C12.767 11.5953 12.767 11.598 12.767 11.6006C12.767 11.6033 12.7607 11.6086 12.7576 11.6113C12.7358 11.6431 12.714 11.6723 12.6922 11.7042C12.6828 11.7175 12.6735 11.7334 12.6641 11.7467C12.6236 11.8051 12.5862 11.8608 12.5457 11.9193C12.5363 11.9299 12.5301 11.9432 12.5207 11.9538C12.5145 11.9644 12.5082 11.9724 12.502 11.983C12.4895 11.9963 12.4833 12.0122 12.4708 12.0281C12.4615 12.0414 12.4521 12.0573 12.4428 12.0706C12.4397 12.0759 12.4366 12.0812 12.4303 12.0865C12.3805 12.1609 12.3337 12.2352 12.2869 12.3096C12.2464 12.376 12.2059 12.4397 12.1654 12.5061C12.1249 12.5724 12.0875 12.6362 12.0469 12.7025C11.9971 12.7875 11.9503 12.8698 11.9036 12.9574C11.8755 13.0052 11.8475 13.053 11.8225 13.1035C11.7508 13.2362 11.6791 13.3717 11.6137 13.5097C11.5794 13.5761 11.5451 13.6452 11.514 13.7142C11.4797 13.7806 11.4485 13.8496 11.4204 13.916C11.4142 13.9293 11.408 13.9452 11.4017 13.9585C11.3955 13.9717 11.3893 13.985 11.3862 13.9983C11.3612 14.0487 11.3394 14.0992 11.3176 14.1496C11.302 14.1868 11.2833 14.224 11.2708 14.2612C11.2646 14.2718 11.2615 14.2797 11.2584 14.2904C11.2584 14.293 11.2584 14.2957 11.2552 14.301C11.2552 14.301 11.2552 14.3036 11.2552 14.3063C11.2552 14.309 11.2552 14.309 11.2521 14.3143C11.2521 14.3169 11.249 14.3196 11.249 14.3249C11.2334 14.3594 11.221 14.3966 11.2054 14.4311C11.1742 14.5054 11.1462 14.5798 11.115 14.6541C11.0869 14.7285 11.0589 14.8028 11.0308 14.8772C11.0246 14.8931 11.0184 14.9117 11.009 14.9329C11.009 14.9382 11.009 14.9382 11.009 14.9436C11.0059 14.9515 11.0028 14.9595 10.9997 14.9674C10.9965 14.9781 10.9934 14.9887 10.9872 14.9993C10.9841 15.0073 10.981 15.0152 10.9778 15.0232C10.9778 15.0285 10.9747 15.0338 10.9716 15.0391C10.9716 15.0391 10.9716 15.0418 10.9716 15.0444C10.9716 15.0498 10.9685 15.0577 10.9654 15.063C10.9248 15.1772 10.8874 15.294 10.85 15.4082C10.8282 15.4746 10.8095 15.5383 10.7877 15.6047C10.769 15.6737 10.7472 15.7428 10.7285 15.8145C10.7285 15.8145 10.7285 15.8171 10.7285 15.8198C10.7254 15.8304 10.7222 15.841 10.7191 15.8516C10.7191 15.8516 10.7191 15.8569 10.7191 15.8623V15.8676C10.7191 15.8755 10.7129 15.8835 10.7129 15.8915C10.7129 15.8994 10.7067 15.9074 10.7067 15.918C10.7067 15.9286 10.7035 15.9339 10.7004 15.9446C10.6973 15.9578 10.6942 15.9738 10.688 15.9871C10.6693 16.0561 10.6506 16.1251 10.635 16.1915C10.6287 16.2154 10.6225 16.2393 10.6194 16.2605C10.6007 16.3349 10.5851 16.4066 10.5695 16.4809C10.5477 16.5792 10.5259 16.6774 10.5072 16.7757C10.4916 16.8367 10.4822 16.8978 10.4698 16.9589C10.4635 17.0013 10.4542 17.0465 10.4448 17.0916C10.4355 17.1341 10.4293 17.1792 10.423 17.2244C10.423 17.2403 10.4168 17.2562 10.4168 17.2722C10.4043 17.3439 10.3919 17.4156 10.3825 17.4872C10.3669 17.5855 10.3545 17.6837 10.3451 17.782C10.3358 17.8802 10.3233 17.9785 10.3139 18.0767C10.3077 18.1431 10.3015 18.2121 10.2952 18.2812C10.2952 18.2997 10.2921 18.3157 10.2921 18.3369C10.2921 18.3714 10.2859 18.406 10.2859 18.4405C10.2859 18.4591 10.2859 18.475 10.2828 18.4936C10.2828 18.5122 10.2828 18.5281 10.2828 18.5467C10.2796 18.6131 10.2765 18.6768 10.2734 18.7432C10.2703 18.8202 10.2672 18.8945 10.2641 18.9742V18.9848C10.2641 19.0804 10.2609 19.1786 10.2609 19.2769C10.2609 22.5375 11.4984 25.5485 13.5961 27.9939C16.7192 31.6395 21.7562 34.0186 27.4446 34.0691C27.4446 34.0983 27.4384 34.1248 27.4321 34.1514C27.5599 34.1487 27.6877 34.1408 27.8155 34.1354C28.1802 34.1195 28.548 34.0956 28.9096 34.0691C38.6032 33.3548 47.1654 29.287 52.9972 23.2358C56.4695 19.6353 58.9724 15.3365 60.1724 10.6156C60.2815 10.1854 60.3812 9.74995 60.4685 9.31184C60.5745 9.44726 60.6773 9.58533 60.7771 9.7234C62.8218 12.5459 64 15.8702 64 19.4309H63.9688Z" fill="white"/>
<path d="M10.9935 14.9278C10.9935 14.9278 10.9902 14.9364 10.9902 14.9393C10.9902 14.9364 10.9902 14.9335 10.9902 14.9278H10.9935Z" fill="white"/>
<path d="M27.6098 30.3571C27.6004 30.6332 27.5942 30.9093 27.5942 31.1855C27.5942 30.9067 27.588 30.6305 27.5786 30.3517C27.5911 30.3517 27.6004 30.3571 27.6098 30.3571Z" fill="white"/>
<path d="M12.7639 11.5821C12.7639 11.5821 12.7546 11.5939 12.7515 11.5998C12.7515 11.5998 12.7515 11.5968 12.7515 11.5939C12.7546 11.5909 12.7577 11.585 12.7608 11.5821H12.7639Z" fill="white"/>
<path d="M10.9935 14.9278C10.9935 14.9278 10.9902 14.9364 10.9902 14.9393C10.9902 14.9364 10.9902 14.9335 10.9902 14.9278H10.9935Z" fill="white"/>
<path d="M12.7639 11.5821C12.7639 11.5821 12.7546 11.5939 12.7515 11.5998C12.7515 11.5998 12.7515 11.5968 12.7515 11.5939C12.7546 11.5909 12.7577 11.585 12.7608 11.5821H12.7639Z" fill="white"/>
<path d="M10.9935 14.9278C10.9935 14.9278 10.9902 14.9364 10.9902 14.9393C10.9902 14.9364 10.9902 14.9335 10.9902 14.9278H10.9935Z" fill="white"/>
<path d="M12.7639 11.5821C12.7639 11.5821 12.7546 11.5939 12.7515 11.5998C12.7515 11.5998 12.7515 11.5968 12.7515 11.5939C12.7546 11.5909 12.7577 11.585 12.7608 11.5821H12.7639Z" fill="white"/>
<path d="M28.8783 34.0659C28.5167 34.0922 28.1521 34.1132 27.7843 34.1316C27.6596 34.1369 27.5287 34.1447 27.4009 34.1474C27.4071 34.1185 27.4102 34.0922 27.4133 34.0659C27.4726 34.0659 27.5349 34.0659 27.5941 34.0659C27.6533 34.0659 27.7157 34.0659 27.7749 34.0659C28.1271 34.0659 28.4762 34.0528 28.8191 34.0318C28.8378 34.0449 28.8565 34.0554 28.8752 34.0686L28.8783 34.0659Z" fill="white"/>
<path d="M10.9935 14.9278C10.9935 14.9278 10.9902 14.9364 10.9902 14.9393C10.9902 14.9364 10.9902 14.9335 10.9902 14.9278H10.9935Z" fill="white"/>
<path d="M12.7639 11.5821C12.7639 11.5821 12.7546 11.5939 12.7515 11.5998C12.7515 11.5998 12.7515 11.5968 12.7515 11.5939C12.7546 11.5909 12.7577 11.585 12.7608 11.5821H12.7639Z" fill="white"/>
<path d="M28.8783 34.0659C28.5167 34.0922 28.1521 34.1132 27.7843 34.1316C27.6596 34.1369 27.5287 34.1447 27.4009 34.1474C27.4071 34.1185 27.4102 34.0922 27.4133 34.0659C27.4726 34.0659 27.5349 34.0659 27.5941 34.0659C27.6533 34.0659 27.7157 34.0659 27.7749 34.0659C28.1271 34.0659 28.4762 34.0528 28.8191 34.0318C28.8378 34.0449 28.8565 34.0554 28.8752 34.0686L28.8783 34.0659Z" fill="white"/>
<path d="M12.7639 11.5821C12.7639 11.5821 12.7546 11.5939 12.7515 11.5998C12.7515 11.5998 12.7515 11.5968 12.7515 11.5939C12.7546 11.5909 12.7577 11.585 12.7608 11.5821H12.7639Z" fill="white"/>
<path d="M17.8165 23.711C18.8253 23.711 19.643 23.0143 19.643 22.155C19.643 21.2957 18.8253 20.5991 17.8165 20.5991C16.8078 20.5991 15.99 21.2957 15.99 22.155C15.99 23.0143 16.8078 23.711 17.8165 23.711Z" fill="white"/>
<path d="M35.7294 23.711C36.7381 23.711 37.5559 23.0143 37.5559 22.155C37.5559 21.2957 36.7381 20.5991 35.7294 20.5991C34.7206 20.5991 33.9028 21.2957 33.9028 22.155C33.9028 23.0143 34.7206 23.711 35.7294 23.711Z" fill="white"/>
<path d="M17.2678 43.6411C17.2678 43.6411 17.2678 41.5515 31.9797 41.6603C46.6854 41.7719 60.3594 31.7112 60.375 31.7006C60.2846 31.767 60.5776 32.9645 60.59 33.0893C60.9422 37.0243 59.2778 40.9487 55.4409 43.3092C52.2709 45.2582 48.0007 46.0839 44.1389 45.9963C39.5663 45.8928 35.2681 44.5811 30.8264 43.8403C28.5573 43.4606 26.257 43.1791 23.9442 43.1154C23.3396 43.0995 17.2646 43.1605 17.2646 43.6385L17.2678 43.6411Z" fill="white"/>
<path d="M14.8926 46.2885C14.8926 46.2885 18.5487 42.8632 26.4065 44.2652C34.2643 45.6671 39.2015 48.9357 45.0489 48.0011C50.8932 47.0691 55.0917 44.8918 55.101 44.8865C54.8828 45.0007 54.6366 45.9194 54.5275 46.1238C53.9633 47.1567 53.2402 48.2082 52.3207 49.0393C50.4007 50.7705 48.1066 51.9202 45.2983 52.2335C38.36 53.0062 31.5775 49.8438 25.6927 47.1461C24.5177 46.6071 23.3208 46.0787 22.0241 45.8026C19.6802 45.3034 17.1617 46.0867 14.8957 46.5965" fill="white"/>
<path d="M12.9445 52.9929C12.6452 49.3446 18.3212 47.0054 21.9181 47.6081C23.5607 47.8816 25.007 48.6437 26.3566 49.4562C27.7374 50.2872 29.246 50.951 30.8045 51.5193C34.0773 52.7141 37.5869 53.4151 41.134 53.654C43.0385 53.7815 45.4759 54.0098 47.2214 53.1416C46.9284 53.2876 46.4858 54.6073 46.2551 54.8967C44.3008 57.3767 40.4888 58.4175 37.1256 58.4918C33.7968 58.5635 30.1157 57.8679 27.1515 56.5642C25.7114 55.9296 24.3649 55.1383 23.168 54.2037C21.622 52.9956 20.1602 51.429 18.0064 51.0254C15.7684 50.6059 14.5248 51.9653 12.9445 52.9929Z" fill="white"/>
</svg>
