<svg width="303" height="22" viewBox="0 0 303 22" fill="none" xmlns="http://www.w3.org/2000/svg">
<path d="M0.336 0.855999H21.48V14.728H6.936V22H0.336V0.855999ZM14.88 7.456H6.936V8.128H14.88V7.456ZM21.8798 0.855999H43.0238V22H21.8798V0.855999ZM36.4238 7.456H28.4798V15.4H36.4238V7.456ZM57.2955 0.855999V15.4H57.9675V0.855999H64.5675V22H43.4235V0.855999H50.0235V15.4H50.6955V0.855999H57.2955ZM64.9672 0.855999H86.1112V7.456H71.5672V8.128H86.1112V14.728H71.5672V15.4H86.1112V22H64.9672V0.855999ZM86.511 0.855999H107.655V14.728H100.383V15.4H107.655V22H93.783V14.728H93.111V22H86.511V0.855999ZM101.055 8.128V7.456H93.111V8.128H101.055ZM108.055 0.855999H129.199V7.456H114.655V8.128H129.199V14.728H114.655V15.4H129.199V22H108.055V0.855999ZM129.598 7.456V0.855999H150.742V22H129.598V8.128H136.198V15.4H144.142V7.456H129.598ZM162.631 0.855999H183.775V22H162.631V0.855999ZM177.175 8.128V7.456H169.231V15.4H177.175V14.728H169.903V8.128H177.175ZM205.319 0.855999V22H184.319V15.4H198.719V14.728H184.175V0.855999H190.775V8.128H198.719V0.855999H205.319ZM217.208 0.855999H231.08V15.4H231.752V0.855999H238.352V22H224.48V7.456H223.808V22H217.208V0.855999ZM238.752 0.855999H259.896V22H238.752V0.855999ZM253.296 7.456H245.352V15.4H253.296V7.456ZM260.295 15.4V0.855999H266.895V15.4H260.295ZM274.839 15.4V0.855999H281.439V22H266.895V15.4H274.839ZM281.839 0.855999H302.983V22H296.383V14.728H288.439V22H281.839V0.855999ZM296.383 8.128V7.456H288.439V8.128H296.383Z" fill="white"/>
</svg>
