<svg width="308" height="197" viewBox="0 0 308 197" fill="none" xmlns="http://www.w3.org/2000/svg">
<rect x="0.5" y="40.5" width="307" height="126" rx="8.5" fill="white" fill-opacity="0.33" stroke="white"/>
<path d="M107.271 44.0631C107.011 43.7945 106.93 43.3956 107.064 43.0415L108.814 38.4951L109.697 36.2036C109.742 36.0814 109.815 35.9716 109.909 35.882L141.905 3.88624C142.002 3.78855 142.12 3.71529 142.251 3.66645L149.589 1.05338C149.923 0.935348 150.293 1.01675 150.546 1.26096L167.547 17.6394C167.783 17.8633 167.881 18.197 167.807 18.5145L165.939 26.7241C165.898 26.895 165.813 27.0497 165.691 27.1759L133.699 59.1676C133.585 59.2815 133.443 59.3629 133.288 59.4077L125.042 61.6707C124.716 61.7603 124.366 61.6667 124.13 61.4225L107.276 44.0631H107.271Z" fill="white" stroke="#FFBB00" stroke-width="2" stroke-miterlimit="10"/>
<path d="M145.181 47.6815L189.322 91.8227C191.891 94.391 196.095 94.5009 198.68 91.9489C198.879 91.7535 199.066 91.5419 199.241 91.3221C199.539 90.9436 199.779 90.5528 199.97 90.158C201.171 87.6915 200.597 84.7243 198.655 82.7869C183.893 68.0243 169.13 53.2617 154.368 38.4991L145.181 47.6856V47.6815Z" fill="white" stroke="#FFBB00" stroke-width="2" stroke-miterlimit="10"/>
<path d="M122.115 23.6755L119.922 21.2212C117.854 18.9093 117.952 15.3276 120.243 13.2355C120.308 13.1744 120.377 13.1174 120.447 13.0564C120.78 12.7755 121.126 12.5435 121.472 12.3522C123.467 11.2533 125.937 11.5138 127.72 12.9302C128.591 13.6221 129.466 14.31 130.337 15.0019" fill="white"/>
<path d="M122.115 23.6755L119.922 21.2212C117.854 18.9093 117.952 15.3276 120.243 13.2355C120.308 13.1744 120.377 13.1174 120.447 13.0564C120.78 12.7755 121.126 12.5435 121.472 12.3522C123.467 11.2533 125.937 11.5138 127.72 12.9302C128.591 13.6221 129.466 14.31 130.337 15.0019" stroke="#FFBB00" stroke-width="2" stroke-miterlimit="10"/>
<path d="M109.909 35.882L133.284 59.4118L165.687 27.18L142.247 3.67053L109.909 35.882Z" fill="white" stroke="#FFBB00" stroke-width="2" stroke-miterlimit="10"/>
<path d="M122.103 14.0007C126.764 14.5868 129.767 16.1579 131.465 17.2568C142.483 24.3797 138.958 39.4312 151.543 49.627C156.236 53.4327 160.286 55.9236 160.286 55.9236C165.154 59.0251 167.685 59.8595 174.157 64.9961C186.18 74.5407 193.971 84.7731 198.684 91.9489C199.539 90.9639 200.699 89.3033 200.658 87.256C200.609 84.6592 198.957 83.0637 198.659 82.7828C175.016 59.4973 151.368 36.2076 127.724 12.9221C127.553 12.8 125.99 11.7295 124.159 12.3441C122.925 12.7593 122.295 13.6954 122.107 13.9966L122.103 14.0007Z" fill="white" stroke="#FFBB00" stroke-width="2" stroke-miterlimit="10"/>
<path d="M39.1014 106.421V109.969H41.2478C42.4305 109.969 43.1072 109.319 43.1072 108.191C43.1072 107.091 42.3895 106.421 41.2068 106.421H39.1014ZM39.1014 111.206V115H37.5701V105.136H41.3914C43.4217 105.136 44.6863 106.312 44.6863 108.15C44.6863 109.483 43.9754 110.563 42.7723 110.967L44.9803 115H43.2166L41.2068 111.206H39.1014ZM48.6725 108.868C47.6402 108.868 46.9156 109.654 46.8404 110.741H50.4361C50.402 109.641 49.7047 108.868 48.6725 108.868ZM50.4293 112.888H51.8307C51.6256 114.2 50.3814 115.137 48.734 115.137C46.6217 115.137 45.3434 113.708 45.3434 111.438C45.3434 109.183 46.6422 107.679 48.6725 107.679C50.6686 107.679 51.9127 109.087 51.9127 111.268V111.773H46.8336V111.862C46.8336 113.113 47.5855 113.94 48.7682 113.94C49.609 113.94 50.2311 113.517 50.4293 112.888ZM58.934 110.283H57.5258C57.3754 109.518 56.8012 108.909 55.8373 108.909C54.6957 108.909 53.9437 109.859 53.9437 111.404C53.9437 112.983 54.7025 113.899 55.851 113.899C56.7602 113.899 57.3549 113.4 57.5258 112.566H58.9477C58.7904 114.098 57.5668 115.137 55.8373 115.137C53.7797 115.137 52.4398 113.729 52.4398 111.404C52.4398 109.121 53.7797 107.679 55.8236 107.679C57.6762 107.679 58.8041 108.868 58.934 110.283ZM65.8596 107.809V115H64.4445V113.783H64.4103C64.0139 114.645 63.2824 115.13 62.1818 115.13C60.6164 115.13 59.6594 114.111 59.6594 112.464V107.809H61.1359V112.177C61.1359 113.271 61.6555 113.858 62.674 113.858C63.7404 113.858 64.383 113.12 64.383 111.999V107.809H65.8596ZM70.0303 108.868C68.998 108.868 68.2734 109.654 68.1982 110.741H71.7939C71.7598 109.641 71.0625 108.868 70.0303 108.868ZM71.7871 112.888H73.1885C72.9834 114.2 71.7393 115.137 70.0918 115.137C67.9795 115.137 66.7012 113.708 66.7012 111.438C66.7012 109.183 68 107.679 70.0303 107.679C72.0264 107.679 73.2705 109.087 73.2705 111.268V111.773H68.1914V111.862C68.1914 113.113 68.9434 113.94 70.126 113.94C70.9668 113.94 71.5889 113.517 71.7871 112.888ZM74.1189 115V107.809H75.5271V109.032H75.5613C75.8006 108.191 76.4432 107.692 77.2908 107.692C77.5027 107.692 77.6873 107.727 77.7967 107.747V109.121C77.6805 109.073 77.4207 109.039 77.1336 109.039C76.1834 109.039 75.5955 109.675 75.5955 110.693V115H74.1189ZM80.7984 115.123C78.9801 115.123 77.777 113.674 77.777 111.404C77.777 109.135 78.9801 107.692 80.7848 107.692C81.817 107.692 82.6373 108.212 83.0406 109.005H83.068V105.136H84.5514V115H83.1158V113.776H83.0885C82.6646 114.597 81.8443 115.123 80.7984 115.123ZM81.1881 108.937C80.0191 108.937 79.2877 109.894 79.2877 111.404C79.2877 112.922 80.0191 113.872 81.1881 113.872C82.3228 113.872 83.0816 112.908 83.0816 111.404C83.0816 109.914 82.3228 108.937 81.1881 108.937ZM88.2846 113.954C89.3168 113.954 90.1234 113.243 90.1234 112.307V111.739L88.3529 111.849C87.4711 111.91 86.9721 112.3 86.9721 112.915C86.9721 113.544 87.4916 113.954 88.2846 113.954ZM87.8744 115.123C86.4662 115.123 85.4818 114.248 85.4818 112.956C85.4818 111.698 86.4457 110.926 88.1547 110.83L90.1234 110.714V110.16C90.1234 109.36 89.5834 108.882 88.6811 108.882C87.8266 108.882 87.2934 109.292 87.1635 109.935H85.7689C85.851 108.636 86.9584 107.679 88.7357 107.679C90.4789 107.679 91.5932 108.602 91.5932 110.044V115H90.1781V113.817H90.1439C89.727 114.617 88.8178 115.123 87.8744 115.123ZM97.9727 107.692C99.0117 107.692 99.832 108.219 100.256 109.046H100.29V107.809H101.726V117.379H100.242V113.79H100.215C99.8047 114.597 98.9639 115.123 97.9385 115.123C96.1338 115.123 94.9512 113.674 94.9512 111.404C94.9512 109.135 96.1338 107.692 97.9727 107.692ZM98.335 113.872C99.4697 113.872 100.249 112.901 100.249 111.404C100.249 109.914 99.4697 108.937 98.335 108.937C97.1797 108.937 96.4619 109.88 96.4619 111.404C96.4619 112.929 97.1797 113.872 98.335 113.872ZM109.054 107.809V115H107.639V113.783H107.605C107.209 114.645 106.477 115.13 105.377 115.13C103.811 115.13 102.854 114.111 102.854 112.464V107.809H104.331V112.177C104.331 113.271 104.85 113.858 105.869 113.858C106.935 113.858 107.578 113.12 107.578 111.999V107.809H109.054ZM113.225 108.868C112.193 108.868 111.468 109.654 111.393 110.741H114.989C114.955 109.641 114.257 108.868 113.225 108.868ZM114.982 112.888H116.383C116.178 114.2 114.934 115.137 113.287 115.137C111.174 115.137 109.896 113.708 109.896 111.438C109.896 109.183 111.195 107.679 113.225 107.679C115.221 107.679 116.465 109.087 116.465 111.268V111.773H111.386V111.862C111.386 113.113 112.138 113.94 113.321 113.94C114.162 113.94 114.784 113.517 114.982 112.888ZM126.03 110.283H124.622C124.472 109.518 123.898 108.909 122.934 108.909C121.792 108.909 121.04 109.859 121.04 111.404C121.04 112.983 121.799 113.899 122.947 113.899C123.857 113.899 124.451 113.4 124.622 112.566H126.044C125.887 114.098 124.663 115.137 122.934 115.137C120.876 115.137 119.536 113.729 119.536 111.404C119.536 109.121 120.876 107.679 122.92 107.679C124.773 107.679 125.901 108.868 126.03 110.283ZM129.306 113.954C130.338 113.954 131.145 113.243 131.145 112.307V111.739L129.374 111.849C128.492 111.91 127.993 112.3 127.993 112.915C127.993 113.544 128.513 113.954 129.306 113.954ZM128.896 115.123C127.487 115.123 126.503 114.248 126.503 112.956C126.503 111.698 127.467 110.926 129.176 110.83L131.145 110.714V110.16C131.145 109.36 130.604 108.882 129.702 108.882C128.848 108.882 128.314 109.292 128.185 109.935H126.79C126.872 108.636 127.979 107.679 129.757 107.679C131.5 107.679 132.614 108.602 132.614 110.044V115H131.199V113.817H131.165C130.748 114.617 129.839 115.123 128.896 115.123ZM136.45 115.123C134.632 115.123 133.429 113.674 133.429 111.404C133.429 109.135 134.632 107.692 136.436 107.692C137.469 107.692 138.289 108.212 138.692 109.005H138.72V105.136H140.203V115H138.767V113.776H138.74C138.316 114.597 137.496 115.123 136.45 115.123ZM136.84 108.937C135.671 108.937 134.939 109.894 134.939 111.404C134.939 112.922 135.671 113.872 136.84 113.872C137.974 113.872 138.733 112.908 138.733 111.404C138.733 109.914 137.974 108.937 136.84 108.937ZM143.936 113.954C144.968 113.954 145.775 113.243 145.775 112.307V111.739L144.004 111.849C143.123 111.91 142.624 112.3 142.624 112.915C142.624 113.544 143.143 113.954 143.936 113.954ZM143.526 115.123C142.118 115.123 141.133 114.248 141.133 112.956C141.133 111.698 142.097 110.926 143.806 110.83L145.775 110.714V110.16C145.775 109.36 145.235 108.882 144.333 108.882C143.478 108.882 142.945 109.292 142.815 109.935H141.421C141.503 108.636 142.61 107.679 144.387 107.679C146.13 107.679 147.245 108.602 147.245 110.044V115H145.83V113.817H145.796C145.379 114.617 144.469 115.123 143.526 115.123ZM150.972 115V107.809H152.448V115H150.972ZM151.71 106.756C151.238 106.756 150.856 106.38 150.856 105.915C150.856 105.443 151.238 105.067 151.71 105.067C152.189 105.067 152.571 105.443 152.571 105.915C152.571 106.38 152.189 106.756 151.71 106.756ZM153.659 115V107.809H155.067V109.012H155.102C155.491 108.191 156.257 107.686 157.364 107.686C158.95 107.686 159.859 108.697 159.859 110.345V115H158.376V110.632C158.376 109.552 157.87 108.957 156.845 108.957C155.806 108.957 155.136 109.695 155.136 110.81V115H153.659ZM161.419 106.106H162.902V107.809H164.269V108.978H162.902V112.942C162.902 113.564 163.176 113.845 163.777 113.845C163.928 113.845 164.167 113.831 164.262 113.811V114.979C164.098 115.021 163.77 115.048 163.442 115.048C161.986 115.048 161.419 114.494 161.419 113.106V108.978H160.373V107.809H161.419V106.106ZM168.016 108.868C166.984 108.868 166.259 109.654 166.184 110.741H169.78C169.746 109.641 169.048 108.868 168.016 108.868ZM169.773 112.888H171.174C170.969 114.2 169.725 115.137 168.078 115.137C165.965 115.137 164.687 113.708 164.687 111.438C164.687 109.183 165.986 107.679 168.016 107.679C170.012 107.679 171.256 109.087 171.256 111.268V111.773H166.177V111.862C166.177 113.113 166.929 113.94 168.112 113.94C168.953 113.94 169.575 113.517 169.773 112.888ZM175.167 113.804C176.323 113.804 177.081 112.867 177.081 111.384C177.081 109.907 176.323 108.937 175.167 108.937C174.033 108.937 173.294 109.887 173.294 111.384C173.294 112.888 174.033 113.804 175.167 113.804ZM175.181 117.707C173.486 117.707 172.228 116.805 172.043 115.561H173.527C173.739 116.162 174.395 116.559 175.236 116.559C176.391 116.559 177.075 115.902 177.075 114.918V113.735H177.047C176.644 114.515 175.796 115.027 174.771 115.027C172.966 115.027 171.784 113.619 171.784 111.377C171.784 109.114 172.959 107.692 174.805 107.692C175.824 107.692 176.658 108.205 177.095 109.039H177.122V107.809H178.558V114.87C178.558 116.586 177.232 117.707 175.181 117.707ZM179.721 115V107.809H181.129V109.032H181.163C181.403 108.191 182.045 107.692 182.893 107.692C183.105 107.692 183.289 107.727 183.399 107.747V109.121C183.282 109.073 183.023 109.039 182.736 109.039C181.785 109.039 181.197 109.675 181.197 110.693V115H179.721ZM186.38 113.954C187.412 113.954 188.219 113.243 188.219 112.307V111.739L186.448 111.849C185.566 111.91 185.067 112.3 185.067 112.915C185.067 113.544 185.587 113.954 186.38 113.954ZM185.97 115.123C184.562 115.123 183.577 114.248 183.577 112.956C183.577 111.698 184.541 110.926 186.25 110.83L188.219 110.714V110.16C188.219 109.36 187.679 108.882 186.776 108.882C185.922 108.882 185.389 109.292 185.259 109.935H183.864C183.946 108.636 185.054 107.679 186.831 107.679C188.574 107.679 189.688 108.602 189.688 110.044V115H188.273V113.817H188.239C187.822 114.617 186.913 115.123 185.97 115.123ZM190.824 115V107.809H192.232V109.012H192.266C192.656 108.191 193.422 107.686 194.529 107.686C196.115 107.686 197.024 108.697 197.024 110.345V115H195.541V110.632C195.541 109.552 195.035 108.957 194.01 108.957C192.971 108.957 192.301 109.695 192.301 110.81V115H190.824ZM198.584 106.106H200.067V107.809H201.434V108.978H200.067V112.942C200.067 113.564 200.34 113.845 200.942 113.845C201.092 113.845 201.332 113.831 201.427 113.811V114.979C201.263 115.021 200.935 115.048 200.607 115.048C199.151 115.048 198.584 114.494 198.584 113.106V108.978H197.538V107.809H198.584V106.106ZM205.181 108.868C204.149 108.868 203.424 109.654 203.349 110.741H206.945C206.911 109.641 206.213 108.868 205.181 108.868ZM206.938 112.888H208.339C208.134 114.2 206.89 115.137 205.243 115.137C203.13 115.137 201.852 113.708 201.852 111.438C201.852 109.183 203.151 107.679 205.181 107.679C207.177 107.679 208.421 109.087 208.421 111.268V111.773H203.342V111.862C203.342 113.113 204.094 113.94 205.277 113.94C206.118 113.94 206.74 113.517 206.938 112.888ZM214.514 115.123C212.695 115.123 211.492 113.674 211.492 111.404C211.492 109.135 212.695 107.692 214.5 107.692C215.532 107.692 216.353 108.212 216.756 109.005H216.783V105.136H218.267V115H216.831V113.776H216.804C216.38 114.597 215.56 115.123 214.514 115.123ZM214.903 108.937C213.734 108.937 213.003 109.894 213.003 111.404C213.003 112.922 213.734 113.872 214.903 113.872C216.038 113.872 216.797 112.908 216.797 111.404C216.797 109.914 216.038 108.937 214.903 108.937ZM222.492 108.868C221.46 108.868 220.735 109.654 220.66 110.741H224.256C224.221 109.641 223.524 108.868 222.492 108.868ZM224.249 112.888H225.65C225.445 114.2 224.201 115.137 222.554 115.137C220.441 115.137 219.163 113.708 219.163 111.438C219.163 109.183 220.462 107.679 222.492 107.679C224.488 107.679 225.732 109.087 225.732 111.268V111.773H220.653V111.862C220.653 113.113 221.405 113.94 222.588 113.94C223.429 113.94 224.051 113.517 224.249 112.888ZM226.635 115V105.136H228.112V115H226.635ZM234.936 113.804C236.091 113.804 236.85 112.867 236.85 111.384C236.85 109.907 236.091 108.937 234.936 108.937C233.801 108.937 233.063 109.887 233.063 111.384C233.063 112.888 233.801 113.804 234.936 113.804ZM234.949 117.707C233.254 117.707 231.996 116.805 231.812 115.561H233.295C233.507 116.162 234.163 116.559 235.004 116.559C236.159 116.559 236.843 115.902 236.843 114.918V113.735H236.816C236.412 114.515 235.565 115.027 234.539 115.027C232.735 115.027 231.552 113.619 231.552 111.377C231.552 109.114 232.728 107.692 234.573 107.692C235.592 107.692 236.426 108.205 236.863 109.039H236.891V107.809H238.326V114.87C238.326 116.586 237 117.707 234.949 117.707ZM239.489 115V107.809H240.897V109.032H240.932C241.171 108.191 241.813 107.692 242.661 107.692C242.873 107.692 243.058 107.727 243.167 107.747V109.121C243.051 109.073 242.791 109.039 242.504 109.039C241.554 109.039 240.966 109.675 240.966 110.693V115H239.489ZM249.949 107.809V115H248.534V113.783H248.5C248.103 114.645 247.372 115.13 246.271 115.13C244.706 115.13 243.749 114.111 243.749 112.464V107.809H245.225V112.177C245.225 113.271 245.745 113.858 246.763 113.858C247.83 113.858 248.472 113.12 248.472 111.999V107.809H249.949ZM254.858 107.692C256.683 107.692 257.886 109.128 257.886 111.404C257.886 113.681 256.69 115.123 254.885 115.123C253.853 115.123 253.033 114.617 252.623 113.817H252.588V117.379H251.112V107.809H252.541V109.046H252.568C252.992 108.219 253.819 107.692 254.858 107.692ZM254.468 113.872C255.637 113.872 256.369 112.915 256.369 111.404C256.369 109.9 255.637 108.937 254.468 108.937C253.34 108.937 252.582 109.921 252.582 111.404C252.582 112.901 253.334 113.872 254.468 113.872ZM261.818 115.137C259.76 115.137 258.407 113.722 258.407 111.404C258.407 109.094 259.767 107.679 261.818 107.679C263.869 107.679 265.229 109.094 265.229 111.404C265.229 113.722 263.875 115.137 261.818 115.137ZM261.818 113.92C262.98 113.92 263.725 113.004 263.725 111.404C263.725 109.812 262.973 108.896 261.818 108.896C260.662 108.896 259.911 109.812 259.911 111.404C259.911 113.004 260.662 113.92 261.818 113.92ZM58.1619 132.123C56.3436 132.123 55.1404 130.674 55.1404 128.404C55.1404 126.135 56.3436 124.692 58.1482 124.692C59.1805 124.692 60.0008 125.212 60.4041 126.005H60.4314V122.136H61.9148V132H60.4793V130.776H60.452C60.0281 131.597 59.2078 132.123 58.1619 132.123ZM58.5516 125.937C57.3826 125.937 56.6512 126.894 56.6512 128.404C56.6512 129.922 57.3826 130.872 58.5516 130.872C59.6863 130.872 60.4451 129.908 60.4451 128.404C60.4451 126.914 59.6863 125.937 58.5516 125.937ZM66.1402 125.868C65.108 125.868 64.3834 126.654 64.3082 127.741H67.9039C67.8697 126.641 67.1725 125.868 66.1402 125.868ZM67.8971 129.888H69.2984C69.0934 131.2 67.8492 132.137 66.2018 132.137C64.0895 132.137 62.8111 130.708 62.8111 128.438C62.8111 126.183 64.11 124.679 66.1402 124.679C68.1363 124.679 69.3805 126.087 69.3805 128.268V128.773H64.3014V128.862C64.3014 130.113 65.0533 130.94 66.2359 130.94C67.0768 130.94 67.6988 130.517 67.8971 129.888ZM74.057 132.123C73.0043 132.123 72.1908 131.61 71.7465 130.776H71.7191V132H70.2836V122.136H71.7602V126.032H71.7943C72.225 125.198 73.0453 124.692 74.0639 124.692C75.8754 124.692 77.058 126.128 77.058 128.404C77.058 130.688 75.8822 132.123 74.057 132.123ZM73.6605 125.937C72.5395 125.937 71.7533 126.921 71.7533 128.404C71.7533 129.901 72.5395 130.872 73.6605 130.872C74.8227 130.872 75.5404 129.929 75.5404 128.404C75.5404 126.894 74.8227 125.937 73.6605 125.937ZM80.9211 125.868C79.8889 125.868 79.1643 126.654 79.0891 127.741H82.6848C82.6506 126.641 81.9533 125.868 80.9211 125.868ZM82.6779 129.888H84.0793C83.8742 131.2 82.6301 132.137 80.9826 132.137C78.8703 132.137 77.592 130.708 77.592 128.438C77.592 126.183 78.8908 124.679 80.9211 124.679C82.9172 124.679 84.1613 126.087 84.1613 128.268V128.773H79.0822V128.862C79.0822 130.113 79.8342 130.94 81.0168 130.94C81.8576 130.94 82.4797 130.517 82.6779 129.888ZM85.0098 132V124.809H86.418V126.032H86.4521C86.6914 125.191 87.334 124.692 88.1816 124.692C88.3936 124.692 88.5781 124.727 88.6875 124.747V126.121C88.5713 126.073 88.3115 126.039 88.0244 126.039C87.0742 126.039 86.4863 126.675 86.4863 127.693V132H85.0098ZM91.6687 130.954C92.701 130.954 93.5076 130.243 93.5076 129.307V128.739L91.7371 128.849C90.8553 128.91 90.3562 129.3 90.3562 129.915C90.3562 130.544 90.8758 130.954 91.6687 130.954ZM91.2586 132.123C89.8504 132.123 88.866 131.248 88.866 129.956C88.866 128.698 89.8299 127.926 91.5389 127.83L93.5076 127.714V127.16C93.5076 126.36 92.9676 125.882 92.0652 125.882C91.2107 125.882 90.6775 126.292 90.5477 126.935H89.1531C89.2352 125.636 90.3426 124.679 92.1199 124.679C93.8631 124.679 94.9773 125.602 94.9773 127.044V132H93.5623V130.817H93.5281C93.1111 131.617 92.202 132.123 91.2586 132.123ZM92.6668 123.783H91.4295L92.8924 121.712H94.3758L92.6668 123.783ZM98.6566 132V124.809H100.065V126.032H100.099C100.338 125.191 100.981 124.692 101.829 124.692C102.04 124.692 102.225 124.727 102.334 124.747V126.121C102.218 126.073 101.958 126.039 101.671 126.039C100.721 126.039 100.133 126.675 100.133 127.693V132H98.6566ZM105.644 125.868C104.612 125.868 103.887 126.654 103.812 127.741H107.407C107.373 126.641 106.676 125.868 105.644 125.868ZM107.401 129.888H108.802C108.597 131.2 107.353 132.137 105.705 132.137C103.593 132.137 102.315 130.708 102.315 128.438C102.315 126.183 103.613 124.679 105.644 124.679C107.64 124.679 108.884 126.087 108.884 128.268V128.773H103.805V128.862C103.805 130.113 104.557 130.94 105.739 130.94C106.58 130.94 107.202 130.517 107.401 129.888ZM109.603 126.846C109.603 125.561 110.737 124.679 112.419 124.679C114.019 124.679 115.14 125.574 115.188 126.853H113.8C113.731 126.203 113.205 125.8 112.378 125.8C111.578 125.8 111.045 126.189 111.045 126.757C111.045 127.201 111.4 127.502 112.146 127.687L113.355 127.967C114.805 128.315 115.352 128.862 115.352 129.922C115.352 131.234 114.128 132.137 112.364 132.137C110.662 132.137 109.534 131.255 109.418 129.936H110.881C110.997 130.626 111.53 131.009 112.433 131.009C113.321 131.009 113.868 130.64 113.868 130.059C113.868 129.601 113.595 129.348 112.843 129.156L111.558 128.842C110.259 128.527 109.603 127.851 109.603 126.846ZM119.946 124.692C121.771 124.692 122.974 126.128 122.974 128.404C122.974 130.681 121.778 132.123 119.973 132.123C118.941 132.123 118.121 131.617 117.711 130.817H117.677V134.379H116.2V124.809H117.629V126.046H117.656C118.08 125.219 118.907 124.692 119.946 124.692ZM119.556 130.872C120.725 130.872 121.457 129.915 121.457 128.404C121.457 126.9 120.725 125.937 119.556 125.937C118.429 125.937 117.67 126.921 117.67 128.404C117.67 129.901 118.422 130.872 119.556 130.872ZM126.906 132.137C124.848 132.137 123.495 130.722 123.495 128.404C123.495 126.094 124.855 124.679 126.906 124.679C128.957 124.679 130.317 126.094 130.317 128.404C130.317 130.722 128.963 132.137 126.906 132.137ZM126.906 130.92C128.068 130.92 128.813 130.004 128.813 128.404C128.813 126.812 128.061 125.896 126.906 125.896C125.751 125.896 124.999 126.812 124.999 128.404C124.999 130.004 125.751 130.92 126.906 130.92ZM131.159 132V124.809H132.567V126.012H132.601C132.991 125.191 133.756 124.686 134.864 124.686C136.45 124.686 137.359 125.697 137.359 127.345V132H135.875V127.632C135.875 126.552 135.37 125.957 134.344 125.957C133.305 125.957 132.635 126.695 132.635 127.81V132H131.159ZM141.188 132.123C139.369 132.123 138.166 130.674 138.166 128.404C138.166 126.135 139.369 124.692 141.174 124.692C142.206 124.692 143.027 125.212 143.43 126.005H143.457V122.136H144.941V132H143.505V130.776H143.478C143.054 131.597 142.234 132.123 141.188 132.123ZM141.577 125.937C140.408 125.937 139.677 126.894 139.677 128.404C139.677 129.922 140.408 130.872 141.577 130.872C142.712 130.872 143.471 129.908 143.471 128.404C143.471 126.914 142.712 125.937 141.577 125.937ZM149.166 125.868C148.134 125.868 147.409 126.654 147.334 127.741H150.93C150.896 126.641 150.198 125.868 149.166 125.868ZM150.923 129.888H152.324C152.119 131.2 150.875 132.137 149.228 132.137C147.115 132.137 145.837 130.708 145.837 128.438C145.837 126.183 147.136 124.679 149.166 124.679C151.162 124.679 152.406 126.087 152.406 128.268V128.773H147.327V128.862C147.327 130.113 148.079 130.94 149.262 130.94C150.103 130.94 150.725 130.517 150.923 129.888ZM153.255 132V124.809H154.663V126.032H154.697C154.936 125.191 155.579 124.692 156.427 124.692C156.638 124.692 156.823 124.727 156.932 124.747V126.121C156.816 126.073 156.556 126.039 156.269 126.039C155.319 126.039 154.731 126.675 154.731 127.693V132H153.255ZM163.1 125.868C162.068 125.868 161.343 126.654 161.268 127.741H164.864C164.829 126.641 164.132 125.868 163.1 125.868ZM164.857 129.888H166.258C166.053 131.2 164.809 132.137 163.162 132.137C161.049 132.137 159.771 130.708 159.771 128.438C159.771 126.183 161.07 124.679 163.1 124.679C165.096 124.679 166.34 126.087 166.34 128.268V128.773H161.261V128.862C161.261 130.113 162.013 130.94 163.196 130.94C164.037 130.94 164.659 130.517 164.857 129.888ZM167.243 132V122.136H168.72V132H167.243ZM172.912 132V125.978H171.921V124.822H172.912V124.118C172.912 122.724 173.568 122.067 175.031 122.067C175.332 122.067 175.667 122.102 175.858 122.136V123.229C175.715 123.202 175.516 123.188 175.318 123.188C174.676 123.188 174.375 123.51 174.375 124.146V124.822H175.831V125.978H174.395V132H172.912ZM179.482 132.137C177.424 132.137 176.071 130.722 176.071 128.404C176.071 126.094 177.431 124.679 179.482 124.679C181.533 124.679 182.893 126.094 182.893 128.404C182.893 130.722 181.54 132.137 179.482 132.137ZM179.482 130.92C180.644 130.92 181.389 130.004 181.389 128.404C181.389 126.812 180.637 125.896 179.482 125.896C178.327 125.896 177.575 126.812 177.575 128.404C177.575 130.004 178.327 130.92 179.482 130.92ZM183.735 132V124.809H185.143V126.032H185.177C185.416 125.191 186.059 124.692 186.907 124.692C187.119 124.692 187.303 124.727 187.412 124.747V126.121C187.296 126.073 187.037 126.039 186.749 126.039C185.799 126.039 185.211 126.675 185.211 127.693V132H183.735ZM188.029 132V124.809H189.437V126.019H189.471C189.792 125.219 190.544 124.686 191.515 124.686C192.513 124.686 193.238 125.198 193.525 126.094H193.559C193.928 125.219 194.776 124.686 195.801 124.686C197.223 124.686 198.153 125.629 198.153 127.058V132H196.669V127.413C196.669 126.483 196.17 125.95 195.295 125.95C194.42 125.95 193.812 126.6 193.812 127.509V132H192.363V127.304C192.363 126.477 191.836 125.95 191.002 125.95C190.127 125.95 189.505 126.634 189.505 127.557V132H188.029ZM205.447 124.809V132H204.032V130.783H203.998C203.602 131.645 202.87 132.13 201.77 132.13C200.204 132.13 199.247 131.111 199.247 129.464V124.809H200.724V129.177C200.724 130.271 201.243 130.858 202.262 130.858C203.328 130.858 203.971 130.12 203.971 128.999V124.809H205.447ZM206.665 132V122.136H208.141V132H206.665ZM211.875 130.954C212.907 130.954 213.713 130.243 213.713 129.307V128.739L211.943 128.849C211.061 128.91 210.562 129.3 210.562 129.915C210.562 130.544 211.082 130.954 211.875 130.954ZM211.464 132.123C210.056 132.123 209.072 131.248 209.072 129.956C209.072 128.698 210.036 127.926 211.745 127.83L213.713 127.714V127.16C213.713 126.36 213.173 125.882 212.271 125.882C211.417 125.882 210.883 126.292 210.754 126.935H209.359C209.441 125.636 210.548 124.679 212.326 124.679C214.069 124.679 215.183 125.602 215.183 127.044V132H213.768V130.817H213.734C213.317 131.617 212.408 132.123 211.464 132.123ZM216.319 132V124.809H217.727V126.032H217.761C218 125.191 218.643 124.692 219.491 124.692C219.703 124.692 219.887 124.727 219.996 124.747V126.121C219.88 126.073 219.62 126.039 219.333 126.039C218.383 126.039 217.795 126.675 217.795 127.693V132H216.319ZM220.66 132V124.809H222.137V132H220.66ZM221.399 123.756C220.927 123.756 220.544 123.38 220.544 122.915C220.544 122.443 220.927 122.067 221.399 122.067C221.877 122.067 222.26 122.443 222.26 122.915C222.26 123.38 221.877 123.756 221.399 123.756ZM226.438 132.137C224.38 132.137 223.026 130.722 223.026 128.404C223.026 126.094 224.387 124.679 226.438 124.679C228.488 124.679 229.849 126.094 229.849 128.404C229.849 130.722 228.495 132.137 226.438 132.137ZM226.438 130.92C227.6 130.92 228.345 130.004 228.345 128.404C228.345 126.812 227.593 125.896 226.438 125.896C225.282 125.896 224.53 126.812 224.53 128.404C224.53 130.004 225.282 130.92 226.438 130.92ZM235.934 132.123C234.116 132.123 232.913 130.674 232.913 128.404C232.913 126.135 234.116 124.692 235.921 124.692C236.953 124.692 237.773 125.212 238.176 126.005H238.204V122.136H239.687V132H238.252V130.776H238.224C237.8 131.597 236.98 132.123 235.934 132.123ZM236.324 125.937C235.155 125.937 234.423 126.894 234.423 128.404C234.423 129.922 235.155 130.872 236.324 130.872C237.459 130.872 238.217 129.908 238.217 128.404C238.217 126.914 237.459 125.937 236.324 125.937ZM243.912 125.868C242.88 125.868 242.156 126.654 242.08 127.741H245.676C245.642 126.641 244.945 125.868 243.912 125.868ZM245.669 129.888H247.071C246.866 131.2 245.621 132.137 243.974 132.137C241.862 132.137 240.583 130.708 240.583 128.438C240.583 126.183 241.882 124.679 243.912 124.679C245.909 124.679 247.153 126.087 247.153 128.268V128.773H242.074V128.862C242.074 130.113 242.826 130.94 244.008 130.94C244.849 130.94 245.471 130.517 245.669 129.888ZM32.7207 144.283H31.3125C31.1621 143.518 30.5879 142.909 29.624 142.909C28.4824 142.909 27.7305 143.859 27.7305 145.404C27.7305 146.983 28.4893 147.899 29.6377 147.899C30.5469 147.899 31.1416 147.4 31.3125 146.566H32.7344C32.5771 148.098 31.3535 149.137 29.624 149.137C27.5664 149.137 26.2266 147.729 26.2266 145.404C26.2266 143.121 27.5664 141.679 29.6104 141.679C31.4629 141.679 32.5908 142.868 32.7207 144.283ZM36.5701 149.137C34.5125 149.137 33.159 147.722 33.159 145.404C33.159 143.094 34.5193 141.679 36.5701 141.679C38.6209 141.679 39.9812 143.094 39.9812 145.404C39.9812 147.722 38.6277 149.137 36.5701 149.137ZM36.5701 147.92C37.7322 147.92 38.4773 147.004 38.4773 145.404C38.4773 143.812 37.7254 142.896 36.5701 142.896C35.4148 142.896 34.6629 143.812 34.6629 145.404C34.6629 147.004 35.4148 147.92 36.5701 147.92ZM40.8229 149V141.809H42.2311V143.012H42.2652C42.6549 142.191 43.4205 141.686 44.5279 141.686C46.1139 141.686 47.023 142.697 47.023 144.345V149H45.5396V144.632C45.5396 143.552 45.0338 142.957 44.0084 142.957C42.9693 142.957 42.2994 143.695 42.2994 144.81V149H40.8229ZM48.5824 149V142.978H47.5912V141.822H48.5824V141.118C48.5824 139.724 49.2387 139.067 50.7016 139.067C51.0023 139.067 51.3373 139.102 51.5287 139.136V140.229C51.3852 140.202 51.1869 140.188 50.9887 140.188C50.3461 140.188 50.0453 140.51 50.0453 141.146V141.822H51.5014V142.978H50.0658V149H48.5824ZM52.4113 149V141.809H53.8879V149H52.4113ZM53.1496 140.756C52.6779 140.756 52.2951 140.38 52.2951 139.915C52.2951 139.443 52.6779 139.067 53.1496 139.067C53.6281 139.067 54.0109 139.443 54.0109 139.915C54.0109 140.38 53.6281 140.756 53.1496 140.756ZM55.0986 149V141.809H56.5068V143.032H56.541C56.7803 142.191 57.4229 141.692 58.2705 141.692C58.4824 141.692 58.667 141.727 58.7764 141.747V143.121C58.6602 143.073 58.4004 143.039 58.1133 143.039C57.1631 143.039 56.5752 143.675 56.5752 144.693V149H55.0986ZM59.3924 149V141.809H60.8006V143.019H60.8348C61.1561 142.219 61.908 141.686 62.8787 141.686C63.8768 141.686 64.6014 142.198 64.8885 143.094H64.9227C65.2918 142.219 66.1395 141.686 67.1648 141.686C68.5867 141.686 69.5164 142.629 69.5164 144.058V149H68.033V144.413C68.033 143.483 67.534 142.95 66.659 142.95C65.784 142.95 65.1756 143.6 65.1756 144.509V149H63.7264V144.304C63.7264 143.477 63.2 142.95 62.366 142.95C61.491 142.95 60.8689 143.634 60.8689 144.557V149H59.3924ZM73.1607 147.954C74.193 147.954 74.9996 147.243 74.9996 146.307V145.739L73.2291 145.849C72.3473 145.91 71.8482 146.3 71.8482 146.915C71.8482 147.544 72.3678 147.954 73.1607 147.954ZM72.7506 149.123C71.3424 149.123 70.358 148.248 70.358 146.956C70.358 145.698 71.3219 144.926 73.0309 144.83L74.9996 144.714V144.16C74.9996 143.36 74.4596 142.882 73.5572 142.882C72.7027 142.882 72.1695 143.292 72.0396 143.935H70.6451C70.7271 142.636 71.8346 141.679 73.6119 141.679C75.3551 141.679 76.4693 142.602 76.4693 144.044V149H75.0543V147.817H75.0201C74.6031 148.617 73.6939 149.123 72.7506 149.123ZM83.7777 144.283H82.3695C82.2191 143.518 81.6449 142.909 80.6811 142.909C79.5395 142.909 78.7875 143.859 78.7875 145.404C78.7875 146.983 79.5463 147.899 80.6947 147.899C81.6039 147.899 82.1986 147.4 82.3695 146.566H83.7914C83.6342 148.098 82.4105 149.137 80.6811 149.137C78.6234 149.137 77.2836 147.729 77.2836 145.404C77.2836 143.121 78.6234 141.679 80.6674 141.679C82.5199 141.679 83.6479 142.868 83.7777 144.283ZM84.5852 149V141.809H86.0617V149H84.5852ZM85.3234 140.756C84.8518 140.756 84.4689 140.38 84.4689 139.915C84.4689 139.443 84.8518 139.067 85.3234 139.067C85.802 139.067 86.1848 139.443 86.1848 139.915C86.1848 140.38 85.802 140.756 85.3234 140.756ZM90.3623 149.137C88.3047 149.137 86.9512 147.722 86.9512 145.404C86.9512 143.094 88.3115 141.679 90.3623 141.679C92.4131 141.679 93.7734 143.094 93.7734 145.404C93.7734 147.722 92.4199 149.137 90.3623 149.137ZM90.3623 147.92C91.5244 147.92 92.2695 147.004 92.2695 145.404C92.2695 143.812 91.5176 142.896 90.3623 142.896C89.207 142.896 88.4551 143.812 88.4551 145.404C88.4551 147.004 89.207 147.92 90.3623 147.92ZM90.9844 140.783H89.7471L91.21 138.712H92.6934L90.9844 140.783ZM94.615 149V141.809H96.0232V143.012H96.0574C96.4471 142.191 97.2127 141.686 98.3201 141.686C99.9061 141.686 100.815 142.697 100.815 144.345V149H99.3318V144.632C99.3318 143.552 98.826 142.957 97.8006 142.957C96.7615 142.957 96.0916 143.695 96.0916 144.81V149H94.615ZM104.536 149V141.809H106.012V149H104.536ZM105.274 140.756C104.802 140.756 104.419 140.38 104.419 139.915C104.419 139.443 104.802 139.067 105.274 139.067C105.752 139.067 106.135 139.443 106.135 139.915C106.135 140.38 105.752 140.756 105.274 140.756ZM107.223 149V141.809H108.631V143.012H108.665C109.055 142.191 109.821 141.686 110.928 141.686C112.514 141.686 113.423 142.697 113.423 144.345V149H111.94V144.632C111.94 143.552 111.434 142.957 110.408 142.957C109.369 142.957 108.699 143.695 108.699 144.81V149H107.223ZM117.252 149.123C115.434 149.123 114.23 147.674 114.23 145.404C114.23 143.135 115.434 141.692 117.238 141.692C118.271 141.692 119.091 142.212 119.494 143.005H119.521V139.136H121.005V149H119.569V147.776H119.542C119.118 148.597 118.298 149.123 117.252 149.123ZM117.642 142.937C116.473 142.937 115.741 143.894 115.741 145.404C115.741 146.922 116.473 147.872 117.642 147.872C118.776 147.872 119.535 146.908 119.535 145.404C119.535 143.914 118.776 142.937 117.642 142.937ZM122.27 149V141.809H123.747V149H122.27ZM123.009 140.756C122.537 140.756 122.154 140.38 122.154 139.915C122.154 139.443 122.537 139.067 123.009 139.067C123.487 139.067 123.87 139.443 123.87 139.915C123.87 140.38 123.487 140.756 123.009 140.756ZM131.096 141.809L128.519 149H126.933L124.342 141.809H125.915L127.719 147.558H127.747L129.551 141.809H131.096ZM131.692 149V141.809H133.168V149H131.692ZM132.43 140.756C131.958 140.756 131.576 140.38 131.576 139.915C131.576 139.443 131.958 139.067 132.43 139.067C132.909 139.067 133.291 139.443 133.291 139.915C133.291 140.38 132.909 140.756 132.43 140.756ZM137.079 149.123C135.261 149.123 134.058 147.674 134.058 145.404C134.058 143.135 135.261 141.692 137.066 141.692C138.098 141.692 138.918 142.212 139.321 143.005H139.349V139.136H140.832V149H139.397V147.776H139.369C138.946 148.597 138.125 149.123 137.079 149.123ZM137.469 142.937C136.3 142.937 135.569 143.894 135.569 145.404C135.569 146.922 136.3 147.872 137.469 147.872C138.604 147.872 139.363 146.908 139.363 145.404C139.363 143.914 138.604 142.937 137.469 142.937ZM148.216 141.809V149H146.801V147.783H146.767C146.37 148.645 145.639 149.13 144.538 149.13C142.973 149.13 142.016 148.111 142.016 146.464V141.809H143.492V146.177C143.492 147.271 144.012 147.858 145.03 147.858C146.097 147.858 146.739 147.12 146.739 145.999V141.809H148.216ZM151.894 147.954C152.927 147.954 153.733 147.243 153.733 146.307V145.739L151.963 145.849C151.081 145.91 150.582 146.3 150.582 146.915C150.582 147.544 151.101 147.954 151.894 147.954ZM151.484 149.123C150.076 149.123 149.092 148.248 149.092 146.956C149.092 145.698 150.055 144.926 151.764 144.83L153.733 144.714V144.16C153.733 143.36 153.193 142.882 152.291 142.882C151.436 142.882 150.903 143.292 150.773 143.935H149.379C149.461 142.636 150.568 141.679 152.346 141.679C154.089 141.679 155.203 142.602 155.203 144.044V149H153.788V147.817H153.754C153.337 148.617 152.428 149.123 151.484 149.123ZM156.393 149V139.136H157.87V149H156.393ZM162.178 145.124C162.178 142.731 162.807 140.804 164.154 139.136H165.452C164.468 140.284 163.696 142.868 163.696 145.117C163.696 147.366 164.468 149.957 165.452 151.105H164.154C162.807 149.431 162.178 147.503 162.178 145.124ZM166.191 149V141.809H167.668V149H166.191ZM166.93 140.756C166.458 140.756 166.075 140.38 166.075 139.915C166.075 139.443 166.458 139.067 166.93 139.067C167.408 139.067 167.791 139.443 167.791 139.915C167.791 140.38 167.408 140.756 166.93 140.756ZM168.879 149V141.809H170.287V143.012H170.321C170.711 142.191 171.476 141.686 172.584 141.686C174.17 141.686 175.079 142.697 175.079 144.345V149H173.596V144.632C173.596 143.552 173.09 142.957 172.064 142.957C171.025 142.957 170.355 143.695 170.355 144.81V149H168.879ZM182.38 144.283H180.972C180.822 143.518 180.248 142.909 179.284 142.909C178.142 142.909 177.39 143.859 177.39 145.404C177.39 146.983 178.149 147.899 179.297 147.899C180.207 147.899 180.801 147.4 180.972 146.566H182.394C182.237 148.098 181.013 149.137 179.284 149.137C177.226 149.137 175.886 147.729 175.886 145.404C175.886 143.121 177.226 141.679 179.27 141.679C181.123 141.679 182.251 142.868 182.38 144.283ZM183.195 149V139.136H184.671V149H183.195ZM192.055 141.809V149H190.64V147.783H190.606C190.209 148.645 189.478 149.13 188.377 149.13C186.812 149.13 185.855 148.111 185.855 146.464V141.809H187.331V146.177C187.331 147.271 187.851 147.858 188.869 147.858C189.936 147.858 190.578 147.12 190.578 145.999V141.809H192.055ZM193.929 151.68C193.812 151.68 193.437 151.666 193.327 151.646V150.449C193.437 150.477 193.683 150.477 193.806 150.477C194.496 150.477 194.858 150.189 195.084 149.451C195.084 149.438 195.214 149.014 195.214 149.007L192.616 141.809H194.216L196.041 147.66H196.062L197.887 141.809H199.445L196.745 149.376C196.13 151.119 195.426 151.68 193.929 151.68ZM202.816 142.868C201.784 142.868 201.059 143.654 200.984 144.741H204.58C204.546 143.641 203.848 142.868 202.816 142.868ZM204.573 146.888H205.974C205.769 148.2 204.525 149.137 202.878 149.137C200.765 149.137 199.487 147.708 199.487 145.438C199.487 143.183 200.786 141.679 202.816 141.679C204.812 141.679 206.056 143.087 206.056 145.268V145.773H200.977V145.862C200.977 147.113 201.729 147.94 202.912 147.94C203.753 147.94 204.375 147.517 204.573 146.888ZM206.905 149V141.809H208.313V143.012H208.347C208.737 142.191 209.503 141.686 210.61 141.686C212.196 141.686 213.105 142.697 213.105 144.345V149H211.622V144.632C211.622 143.552 211.116 142.957 210.09 142.957C209.051 142.957 208.381 143.695 208.381 144.81V149H206.905ZM216.934 149.123C215.116 149.123 213.913 147.674 213.913 145.404C213.913 143.135 215.116 141.692 216.92 141.692C217.953 141.692 218.773 142.212 219.176 143.005H219.204V139.136H220.687V149H219.251V147.776H219.224C218.8 148.597 217.98 149.123 216.934 149.123ZM217.324 142.937C216.155 142.937 215.423 143.894 215.423 145.404C215.423 146.922 216.155 147.872 217.324 147.872C218.458 147.872 219.217 146.908 219.217 145.404C219.217 143.914 218.458 142.937 217.324 142.937ZM224.994 149.137C222.937 149.137 221.583 147.722 221.583 145.404C221.583 143.094 222.944 141.679 224.994 141.679C227.045 141.679 228.405 143.094 228.405 145.404C228.405 147.722 227.052 149.137 224.994 149.137ZM224.994 147.92C226.156 147.92 226.902 147.004 226.902 145.404C226.902 143.812 226.15 142.896 224.994 142.896C223.839 142.896 223.087 143.812 223.087 145.404C223.087 147.004 223.839 147.92 224.994 147.92ZM234.799 142.868C233.766 142.868 233.042 143.654 232.967 144.741H236.562C236.528 143.641 235.831 142.868 234.799 142.868ZM236.555 146.888H237.957C237.752 148.2 236.508 149.137 234.86 149.137C232.748 149.137 231.47 147.708 231.47 145.438C231.47 143.183 232.768 141.679 234.799 141.679C236.795 141.679 238.039 143.087 238.039 145.268V145.773H232.96V145.862C232.96 147.113 233.712 147.94 234.894 147.94C235.735 147.94 236.357 147.517 236.555 146.888ZM238.942 149V139.136H240.419V149H238.942ZM244.235 149V139.136H245.711V149H244.235ZM246.977 149V141.809H248.453V149H246.977ZM248.337 140.783H247.1L248.562 138.712H250.046L248.337 140.783ZM252.364 149.123C250.546 149.123 249.343 147.674 249.343 145.404C249.343 143.135 250.546 141.692 252.35 141.692C253.383 141.692 254.203 142.212 254.606 143.005H254.634V139.136H256.117V149H254.681V147.776H254.654C254.23 148.597 253.41 149.123 252.364 149.123ZM252.754 142.937C251.585 142.937 250.853 143.894 250.853 145.404C250.853 146.922 251.585 147.872 252.754 147.872C253.888 147.872 254.647 146.908 254.647 145.404C254.647 143.914 253.888 142.937 252.754 142.937ZM260.342 142.868C259.31 142.868 258.586 143.654 258.51 144.741H262.106C262.072 143.641 261.375 142.868 260.342 142.868ZM262.099 146.888H263.501C263.296 148.2 262.051 149.137 260.404 149.137C258.292 149.137 257.013 147.708 257.013 145.438C257.013 143.183 258.312 141.679 260.342 141.679C262.338 141.679 263.583 143.087 263.583 145.268V145.773H258.504V145.862C258.504 147.113 259.255 147.94 260.438 147.94C261.279 147.94 261.901 147.517 262.099 146.888ZM264.431 149V141.809H265.839V143.032H265.873C266.113 142.191 266.755 141.692 267.603 141.692C267.815 141.692 267.999 141.727 268.109 141.747V143.121C267.993 143.073 267.733 143.039 267.446 143.039C266.496 143.039 265.908 143.675 265.908 144.693V149H264.431ZM271.528 145.124C271.528 148.111 270.557 149.861 269.552 151.105H268.253C268.937 150.312 270.01 148.07 270.01 145.117C270.01 142.164 268.93 139.922 268.253 139.136H269.552C270.557 140.373 271.528 142.123 271.528 145.124ZM274.345 149.075C273.846 149.075 273.449 148.679 273.449 148.18C273.449 147.681 273.846 147.284 274.345 147.284C274.844 147.284 275.24 147.681 275.24 148.18C275.24 148.679 274.844 149.075 274.345 149.075Z" fill="white"/>
</svg>
