<svg width="138" height="42" viewBox="0 0 138 42" fill="none" xmlns="http://www.w3.org/2000/svg">
<rect opacity="0.84" width="137" height="41.6957" rx="20.8478" fill="url(#paint0_linear_417_257)"/>
<path d="M45.0203 23.0671H47.5779C47.701 24.113 48.7908 24.7986 50.1971 24.7986C51.6121 24.7986 52.5789 24.1218 52.5789 23.1902C52.5789 22.364 51.9724 21.907 50.4431 21.5642L48.7908 21.2039C46.4529 20.7029 45.3015 19.5164 45.3015 17.6619C45.3015 15.324 47.323 13.7771 50.1531 13.7771C53.1062 13.7771 54.9607 15.2976 55.0047 17.5916H52.5174C52.4295 16.5193 51.489 15.8689 50.1619 15.8689C48.8523 15.8689 47.9734 16.4929 47.9734 17.4333C47.9734 18.2156 48.5887 18.655 50.0476 18.989L51.5857 19.3142C54.1258 19.8591 55.2332 20.949 55.2332 22.8826C55.2332 25.3435 53.2381 26.8992 50.0916 26.8992C47.0418 26.8992 45.0994 25.449 45.0203 23.0671ZM56.3922 26.6794V17.2576H58.9586V26.6794H56.3922ZM57.6754 16.2205C56.9019 16.2205 56.3043 15.6316 56.3043 14.8933C56.3043 14.1462 56.9019 13.5662 57.6754 13.5662C58.4488 13.5662 59.0465 14.1462 59.0465 14.8933C59.0465 15.6316 58.4488 16.2205 57.6754 16.2205ZM64.723 24.6755C66.0062 24.6755 66.8236 23.656 66.8236 21.9509C66.8236 20.2546 66.0062 19.1648 64.723 19.1648C63.4574 19.1648 62.6576 20.2371 62.6576 21.9509C62.6576 23.6736 63.4486 24.6755 64.723 24.6755ZM64.6791 30.2302C62.2006 30.2302 60.5219 29.0261 60.3197 27.3474H62.8334C63.0355 27.9978 63.7738 28.446 64.7494 28.446C66.0765 28.446 66.8148 27.7078 66.8148 26.6179V24.9656H66.7621C66.3226 25.9675 65.2152 26.6531 63.8529 26.6531C61.5502 26.6531 60.0297 24.8777 60.0297 21.9333C60.0297 18.9451 61.5062 17.1082 63.8969 17.1082C65.2504 17.1082 66.3138 17.8201 66.806 18.9011H66.85V17.2576H69.3812V26.5476C69.3812 28.7976 67.5004 30.2302 64.6791 30.2302ZM79.4611 17.2576V26.6794H76.9826V24.9832H76.9299C76.464 26.1697 75.5324 26.8552 74.1086 26.8552C72.0695 26.8552 70.716 25.5281 70.716 23.3308V17.2576H73.2824V22.7947C73.2824 24.0515 73.9064 24.7195 75.0402 24.7195C76.1828 24.7195 76.8947 23.9021 76.8947 22.6541V17.2576H79.4611ZM80.875 26.6794V17.2576H83.4414V26.6794H80.875ZM82.1582 16.2205C81.3847 16.2205 80.7871 15.6316 80.7871 14.8933C80.7871 14.1462 81.3847 13.5662 82.1582 13.5662C82.9316 13.5662 83.5293 14.1462 83.5293 14.8933C83.5293 15.6316 82.9316 16.2205 82.1582 16.2205ZM89.0828 18.9539C87.9578 18.9539 87.1492 19.8064 87.0613 20.9841H91.0603C91.0076 19.78 90.2254 18.9539 89.0828 18.9539ZM91.0955 23.7966H93.451C93.1697 25.6423 91.4822 26.8816 89.1531 26.8816C86.2527 26.8816 84.5125 25.0271 84.5125 22.0125C84.5125 19.0066 86.2703 17.0554 89.0564 17.0554C91.7986 17.0554 93.5301 18.9099 93.5301 21.7751V22.5574H87.0349V22.7156C87.0349 24.0603 87.8875 24.9832 89.1971 24.9832C90.1375 24.9832 90.8582 24.5173 91.0955 23.7966ZM94.5572 26.6794V17.2576H97.0357V18.9363H97.0885C97.5894 17.7673 98.5826 17.0818 100.033 17.0818C102.125 17.0818 103.302 18.4001 103.302 20.6062V26.6794H100.736V21.1423C100.736 19.9119 100.156 19.2087 99.0045 19.2087C97.8531 19.2087 97.1236 20.0525 97.1236 21.2742V26.6794H94.5572ZM105.314 15.0867H107.88V17.2576H109.62V19.1912H107.88V23.7C107.88 24.4207 108.232 24.7634 108.988 24.7634C109.216 24.7634 109.453 24.7458 109.612 24.7195V26.6091C109.348 26.6707 108.909 26.7146 108.39 26.7146C106.175 26.7146 105.314 25.9763 105.314 24.1394V19.1912H103.987V17.2576H105.314V15.0867ZM114.814 18.9539C113.689 18.9539 112.88 19.8064 112.792 20.9841H116.791C116.738 19.78 115.956 18.9539 114.814 18.9539ZM116.826 23.7966H119.182C118.901 25.6423 117.213 26.8816 114.884 26.8816C111.984 26.8816 110.243 25.0271 110.243 22.0125C110.243 19.0066 112.001 17.0554 114.787 17.0554C117.529 17.0554 119.261 18.9099 119.261 21.7751V22.5574H112.766V22.7156C112.766 24.0603 113.618 24.9832 114.928 24.9832C115.868 24.9832 116.589 24.5173 116.826 23.7966Z" fill="white"/>
<path d="M20.8937 15.3653L20.9821 15.3682C21.2831 15.3853 21.5594 15.4915 21.8109 15.6866L27.6982 21.0335C28.0361 21.3534 28.1958 21.7457 28.1771 22.2107C28.1396 22.6746 27.934 23.0448 27.56 23.3216L20.9402 28.0168C20.7402 28.1553 20.4787 28.2312 20.1556 28.2445C19.5679 28.2216 19.1328 27.9581 18.8502 27.4541C18.6114 26.9525 18.6291 26.4674 18.9028 25.9992C19.0962 25.7424 19.2297 25.6005 19.303 25.5737L24.366 21.9807L19.9038 17.925C19.8343 17.8898 19.7191 17.7328 19.558 17.4545C19.3425 16.9566 19.3832 16.473 19.6804 16.0039C19.9904 15.5848 20.395 15.372 20.8937 15.3653ZM22.9879 9.69556L21.8758 9.76448C20.4211 9.90989 19.0793 10.2696 17.8501 10.844C17.2356 11.1313 16.6493 11.4721 16.0912 11.8665C15.7704 12.0032 15.0033 12.7093 13.7891 13.9845C13.498 14.2142 12.9466 15.0727 12.1347 16.5596C11.8477 17.1741 11.6138 17.8168 11.4341 18.4877C11.0613 19.8502 10.9287 21.2842 11.036 22.7903C11.3254 25.8104 12.6119 28.401 14.8957 30.5629C15.3979 31.0238 15.9324 31.4356 16.4992 31.798L17.374 32.3046C17.9734 32.6175 18.605 32.881 19.2692 33.0953C20.5203 33.5702 22.0561 33.7543 23.8766 33.6476C26.8249 33.5048 29.4838 32.2188 31.8533 29.7896C32.7758 28.7855 33.5005 27.6516 34.0275 26.388C34.2909 25.7563 34.5053 25.0921 34.6702 24.3953C34.8438 23.8687 34.9502 22.9695 34.9898 21.6974C34.9517 20.1864 34.6989 18.7879 34.2319 17.5025C33.9984 16.8598 33.711 16.2453 33.3702 15.659C32.4242 14.2424 31.7923 13.4264 31.4744 13.2109C30.4711 12.2073 29.3549 11.4186 28.1257 10.844C26.5402 10.2199 25.5549 9.90989 25.1701 9.91367C24.471 9.78745 23.7434 9.71475 22.9879 9.69556Z" fill="#8E8CA0"/>
<defs>
<linearGradient id="paint0_linear_417_257" x1="0" y1="20.8478" x2="137" y2="20.8478" gradientUnits="userSpaceOnUse">
<stop stop-color="#131313"/>
<stop offset="0.413462" stop-color="#474C35"/>
<stop offset="1" stop-color="#7C6541"/>
</linearGradient>
</defs>
</svg>
