<svg width="308" height="198" viewBox="0 0 308 198" fill="none" xmlns="http://www.w3.org/2000/svg">
<rect x="0.5" y="38.5" width="307" height="159" rx="15.5" fill="white" fill-opacity="0.33" stroke="white"/>
<path d="M48.7191 93.1055V95H39.7738V80.9082H48.7191V82.793H41.9613V86.9141H48.3578V88.7305H41.9613V93.1055H48.7191ZM50.4895 95V80.9082H52.5988V95H50.4895ZM62.5262 86.2402C61.0516 86.2402 60.0164 87.3633 59.909 88.916H65.0457C64.9969 87.3438 64.0008 86.2402 62.5262 86.2402ZM65.0359 91.9824H67.0379C66.7449 93.8574 64.9676 95.1953 62.6141 95.1953C59.5965 95.1953 57.7703 93.1543 57.7703 89.9121C57.7703 86.6895 59.6258 84.541 62.5262 84.541C65.3777 84.541 67.1551 86.5527 67.1551 89.668V90.3906H59.8992V90.5176C59.8992 92.3047 60.9734 93.4863 62.6629 93.4863C63.8641 93.4863 64.7527 92.8809 65.0359 91.9824ZM77.2066 84.7266L73.525 95H71.2594L67.5582 84.7266H69.8043L72.3824 92.9395H72.4215L74.9996 84.7266H77.2066ZM82.1215 86.2402C80.6469 86.2402 79.6117 87.3633 79.5043 88.916H84.641C84.5922 87.3438 83.5961 86.2402 82.1215 86.2402ZM84.6312 91.9824H86.6332C86.3402 93.8574 84.5629 95.1953 82.2094 95.1953C79.1918 95.1953 77.3656 93.1543 77.3656 89.9121C77.3656 86.6895 79.2211 84.541 82.1215 84.541C84.973 84.541 86.7504 86.5527 86.7504 89.668V90.3906H79.4945V90.5176C79.4945 92.3047 80.5687 93.4863 82.2582 93.4863C83.4594 93.4863 84.348 92.8809 84.6312 91.9824ZM88.091 95V84.7266H90.1027V86.4453H90.1516C90.7082 85.2734 91.802 84.5508 93.384 84.5508C95.6496 84.5508 96.9484 85.9961 96.9484 88.3496V95H94.8293V88.7598C94.8293 87.2168 94.1066 86.3672 92.6418 86.3672C91.1574 86.3672 90.2004 87.4219 90.2004 89.0137V95H88.091ZM99.3047 82.2949H101.424V84.7266H103.377V86.3965H101.424V92.0605C101.424 92.9492 101.814 93.3496 102.674 93.3496C102.889 93.3496 103.23 93.3301 103.367 93.3008V94.9707C103.133 95.0293 102.664 95.0684 102.195 95.0684C100.115 95.0684 99.3047 94.2773 99.3047 92.2949V86.3965H97.8105V84.7266H99.3047V82.2949ZM108.975 95.1953C106.036 95.1953 104.102 93.1738 104.102 89.8633C104.102 86.5625 106.046 84.541 108.975 84.541C111.905 84.541 113.848 86.5625 113.848 89.8633C113.848 93.1738 111.915 95.1953 108.975 95.1953ZM108.975 93.457C110.636 93.457 111.7 92.1484 111.7 89.8633C111.7 87.5879 110.626 86.2793 108.975 86.2793C107.325 86.2793 106.251 87.5879 106.251 89.8633C106.251 92.1484 107.325 93.457 108.975 93.457ZM118.756 87.6367C118.756 85.8008 120.377 84.541 122.78 84.541C125.065 84.541 126.666 85.8203 126.735 87.6465H124.752C124.655 86.7188 123.903 86.1426 122.721 86.1426C121.579 86.1426 120.817 86.6992 120.817 87.5098C120.817 88.1445 121.325 88.5742 122.389 88.8379L124.118 89.2383C126.188 89.7363 126.969 90.5176 126.969 92.0312C126.969 93.9062 125.221 95.1953 122.702 95.1953C120.27 95.1953 118.659 93.9355 118.493 92.0508H120.582C120.748 93.0371 121.51 93.584 122.799 93.584C124.069 93.584 124.85 93.0566 124.85 92.2266C124.85 91.5723 124.459 91.2109 123.385 90.9375L121.549 90.4883C119.694 90.0391 118.756 89.0723 118.756 87.6367ZM132.607 86.2402C131.132 86.2402 130.097 87.3633 129.989 88.916H135.126C135.077 87.3438 134.081 86.2402 132.607 86.2402ZM135.116 91.9824H137.118C136.825 93.8574 135.048 95.1953 132.695 95.1953C129.677 95.1953 127.851 93.1543 127.851 89.9121C127.851 86.6895 129.706 84.541 132.607 84.541C135.458 84.541 137.236 86.5527 137.236 89.668V90.3906H129.98V90.5176C129.98 92.3047 131.054 93.4863 132.743 93.4863C133.945 93.4863 134.833 92.8809 135.116 91.9824ZM142.417 95V80.9082H144.526V95H142.417ZM146.472 95V80.9082H148.582V95H146.472ZM154.746 86.2402C153.272 86.2402 152.237 87.3633 152.129 88.916H157.266C157.217 87.3438 156.221 86.2402 154.746 86.2402ZM157.256 91.9824H159.258C158.965 93.8574 157.188 95.1953 154.834 95.1953C151.817 95.1953 149.991 93.1543 149.991 89.9121C149.991 86.6895 151.846 84.541 154.746 84.541C157.598 84.541 159.375 86.5527 159.375 89.668V90.3906H152.12V90.5176C152.12 92.3047 153.194 93.4863 154.883 93.4863C156.084 93.4863 156.973 92.8809 157.256 91.9824ZM169.427 84.7266L165.745 95H163.48L159.779 84.7266H162.025L164.603 92.9395H164.642L167.22 84.7266H169.427ZM173.717 93.5059C175.191 93.5059 176.344 92.4902 176.344 91.1523V90.3418L173.814 90.498C172.555 90.5859 171.842 91.1426 171.842 92.0215C171.842 92.9199 172.584 93.5059 173.717 93.5059ZM173.131 95.1758C171.119 95.1758 169.713 93.9258 169.713 92.0801C169.713 90.2832 171.09 89.1797 173.531 89.043L176.344 88.877V88.0859C176.344 86.9434 175.572 86.2598 174.283 86.2598C173.062 86.2598 172.301 86.8457 172.115 87.7637H170.123C170.24 85.9082 171.822 84.541 174.361 84.541C176.852 84.541 178.443 85.8594 178.443 87.9199V95H176.422V93.3105H176.373C175.777 94.4531 174.479 95.1758 173.131 95.1758ZM180.194 95V84.7266H182.206V86.4746H182.255C182.596 85.2734 183.514 84.5605 184.725 84.5605C185.028 84.5605 185.292 84.6094 185.448 84.6387V86.6016C185.282 86.5332 184.911 86.4844 184.501 86.4844C183.143 86.4844 182.304 87.3926 182.304 88.8477V95H180.194ZM189.836 93.5059C191.31 93.5059 192.462 92.4902 192.462 91.1523V90.3418L189.933 90.498C188.673 90.5859 187.961 91.1426 187.961 92.0215C187.961 92.9199 188.703 93.5059 189.836 93.5059ZM189.25 95.1758C187.238 95.1758 185.832 93.9258 185.832 92.0801C185.832 90.2832 187.209 89.1797 189.65 89.043L192.462 88.877V88.0859C192.462 86.9434 191.691 86.2598 190.402 86.2598C189.181 86.2598 188.42 86.8457 188.234 87.7637H186.242C186.359 85.9082 187.941 84.541 190.48 84.541C192.97 84.541 194.562 85.8594 194.562 87.9199V95H192.541V93.3105H192.492C191.896 94.4531 190.597 95.1758 189.25 95.1758ZM191.261 83.2617H189.494L191.584 80.3027H193.703L191.261 83.2617ZM203.669 93.5059C205.144 93.5059 206.296 92.4902 206.296 91.1523V90.3418L203.767 90.498C202.507 90.5859 201.794 91.1426 201.794 92.0215C201.794 92.9199 202.536 93.5059 203.669 93.5059ZM203.083 95.1758C201.071 95.1758 199.665 93.9258 199.665 92.0801C199.665 90.2832 201.042 89.1797 203.484 89.043L206.296 88.877V88.0859C206.296 86.9434 205.525 86.2598 204.236 86.2598C203.015 86.2598 202.253 86.8457 202.068 87.7637H200.075C200.193 85.9082 201.775 84.541 204.314 84.541C206.804 84.541 208.396 85.8594 208.396 87.9199V95H206.374V93.3105H206.325C205.73 94.4531 204.431 95.1758 203.083 95.1758ZM222.727 88.2617H220.716C220.501 87.168 219.68 86.2988 218.304 86.2988C216.673 86.2988 215.598 87.6562 215.598 89.8633C215.598 92.1191 216.682 93.4277 218.323 93.4277C219.622 93.4277 220.471 92.7148 220.716 91.5234H222.747C222.522 93.7109 220.774 95.1953 218.304 95.1953C215.364 95.1953 213.45 93.1836 213.45 89.8633C213.45 86.6016 215.364 84.541 218.284 84.541C220.93 84.541 222.542 86.2402 222.727 88.2617ZM227.535 93.5059C229.009 93.5059 230.162 92.4902 230.162 91.1523V90.3418L227.632 90.498C226.373 90.5859 225.66 91.1426 225.66 92.0215C225.66 92.9199 226.402 93.5059 227.535 93.5059ZM226.949 95.1758C224.937 95.1758 223.531 93.9258 223.531 92.0801C223.531 90.2832 224.908 89.1797 227.349 89.043L230.162 88.877V88.0859C230.162 86.9434 229.39 86.2598 228.101 86.2598C226.88 86.2598 226.119 86.8457 225.933 87.7637H223.941C224.058 85.9082 225.64 84.541 228.179 84.541C230.67 84.541 232.261 85.8594 232.261 87.9199V95H230.24V93.3105H230.191C229.595 94.4531 228.296 95.1758 226.949 95.1758ZM239.481 95.1758C237.977 95.1758 236.815 94.4434 236.18 93.252H236.141V95H234.09V80.9082H236.2V86.4746H236.248C236.864 85.2832 238.036 84.5605 239.491 84.5605C242.079 84.5605 243.768 86.6113 243.768 89.8633C243.768 93.125 242.088 95.1758 239.481 95.1758ZM238.914 86.3379C237.313 86.3379 236.19 87.7441 236.19 89.8633C236.19 92.002 237.313 93.3887 238.914 93.3887C240.575 93.3887 241.6 92.041 241.6 89.8633C241.6 87.7051 240.575 86.3379 238.914 86.3379ZM249.532 95.1953C246.593 95.1953 244.659 93.1738 244.659 89.8633C244.659 86.5625 246.603 84.541 249.532 84.541C252.462 84.541 254.405 86.5625 254.405 89.8633C254.405 93.1738 252.472 95.1953 249.532 95.1953ZM249.532 93.457C251.193 93.457 252.257 92.1484 252.257 89.8633C252.257 87.5879 251.183 86.2793 249.532 86.2793C247.882 86.2793 246.808 87.5879 246.808 89.8633C246.808 92.1484 247.882 93.457 249.532 93.457ZM263.093 93.5059C264.567 93.5059 265.72 92.4902 265.72 91.1523V90.3418L263.19 90.498C261.93 90.5859 261.218 91.1426 261.218 92.0215C261.218 92.9199 261.96 93.5059 263.093 93.5059ZM262.507 95.1758C260.495 95.1758 259.089 93.9258 259.089 92.0801C259.089 90.2832 260.466 89.1797 262.907 89.043L265.72 88.877V88.0859C265.72 86.9434 264.948 86.2598 263.659 86.2598C262.438 86.2598 261.677 86.8457 261.491 87.7637H259.499C259.616 85.9082 261.198 84.541 263.737 84.541C266.227 84.541 267.819 85.8594 267.819 87.9199V95H265.798V93.3105H265.749C265.153 94.4531 263.854 95.1758 262.507 95.1758ZM35.152 112.561C37.7594 112.561 39.4781 114.611 39.4781 117.863C39.4781 121.115 37.7691 123.176 35.191 123.176C33.7164 123.176 32.5445 122.453 31.9586 121.311H31.9098V126.398H29.8004V112.727H31.8414V114.494H31.8805C32.4859 113.312 33.6676 112.561 35.152 112.561ZM34.5953 121.389C36.2652 121.389 37.3102 120.021 37.3102 117.863C37.3102 115.715 36.2652 114.338 34.5953 114.338C32.984 114.338 31.9 115.744 31.9 117.863C31.9 120.002 32.9742 121.389 34.5953 121.389ZM44.4027 121.506C45.8773 121.506 47.0297 120.49 47.0297 119.152V118.342L44.5004 118.498C43.2406 118.586 42.5277 119.143 42.5277 120.021C42.5277 120.92 43.2699 121.506 44.4027 121.506ZM43.8168 123.176C41.8051 123.176 40.3988 121.926 40.3988 120.08C40.3988 118.283 41.7758 117.18 44.2172 117.043L47.0297 116.877V116.086C47.0297 114.943 46.2582 114.26 44.9691 114.26C43.7484 114.26 42.9867 114.846 42.8012 115.764H40.809C40.9262 113.908 42.5082 112.541 45.0473 112.541C47.5375 112.541 49.1293 113.859 49.1293 115.92V123H47.1078V121.311H47.059C46.4633 122.453 45.1645 123.176 43.8168 123.176ZM50.8801 123V112.727H52.8918V114.475H52.9406C53.2824 113.273 54.2004 112.561 55.4113 112.561C55.7141 112.561 55.9777 112.609 56.134 112.639V114.602C55.968 114.533 55.5969 114.484 55.1867 114.484C53.8293 114.484 52.9895 115.393 52.9895 116.848V123H50.8801ZM57.7578 110.295H59.877V112.727H61.8301V114.396H59.877V120.061C59.877 120.949 60.2676 121.35 61.127 121.35C61.3418 121.35 61.6836 121.33 61.8203 121.301V122.971C61.5859 123.029 61.1172 123.068 60.6484 123.068C58.5684 123.068 57.7578 122.277 57.7578 120.295V114.396H56.2637V112.727H57.7578V110.295ZM63.3367 123V112.727H65.4461V123H63.3367ZM64.3914 111.223C63.7176 111.223 63.1707 110.686 63.1707 110.021C63.1707 109.348 63.7176 108.811 64.3914 108.811C65.075 108.811 65.6219 109.348 65.6219 110.021C65.6219 110.686 65.075 111.223 64.3914 111.223ZM67.3043 123V112.727H69.316V114.475H69.3648C69.7066 113.273 70.6246 112.561 71.8355 112.561C72.1383 112.561 72.402 112.609 72.5582 112.639V114.602C72.3922 114.533 72.0211 114.484 71.6109 114.484C70.2535 114.484 69.4137 115.393 69.4137 116.848V123H67.3043ZM81.1867 123.176C78.5891 123.176 76.8703 121.105 76.8703 117.863C76.8703 114.621 78.5891 112.561 81.1672 112.561C82.6418 112.561 83.8137 113.303 84.3898 114.436H84.4289V108.908H86.548V123H84.4973V121.252H84.4582C83.8527 122.424 82.6809 123.176 81.1867 123.176ZM81.7434 114.338C80.0734 114.338 79.0285 115.705 79.0285 117.863C79.0285 120.031 80.0734 121.389 81.7434 121.389C83.3645 121.389 84.4484 120.012 84.4484 117.863C84.4484 115.734 83.3645 114.338 81.7434 114.338ZM92.7129 114.24C91.2383 114.24 90.2031 115.363 90.0957 116.916H95.2324C95.1836 115.344 94.1875 114.24 92.7129 114.24ZM95.2227 119.982H97.2246C96.9316 121.857 95.1543 123.195 92.8008 123.195C89.7832 123.195 87.957 121.154 87.957 117.912C87.957 114.689 89.8125 112.541 92.7129 112.541C95.5645 112.541 97.3418 114.553 97.3418 117.668V118.391H90.0859V118.518C90.0859 120.305 91.1602 121.486 92.8496 121.486C94.0508 121.486 94.9395 120.881 95.2227 119.982ZM98.7606 123V108.908H100.87V123H98.7606ZM106.315 115.637C106.315 113.801 107.936 112.541 110.338 112.541C112.623 112.541 114.225 113.82 114.293 115.646H112.311C112.213 114.719 111.461 114.143 110.28 114.143C109.137 114.143 108.375 114.699 108.375 115.51C108.375 116.145 108.883 116.574 109.948 116.838L111.676 117.238C113.746 117.736 114.528 118.518 114.528 120.031C114.528 121.906 112.78 123.195 110.26 123.195C107.829 123.195 106.217 121.936 106.051 120.051H108.141C108.307 121.037 109.069 121.584 110.358 121.584C111.627 121.584 112.409 121.057 112.409 120.227C112.409 119.572 112.018 119.211 110.944 118.938L109.108 118.488C107.252 118.039 106.315 117.072 106.315 115.637ZM119.462 121.506C120.937 121.506 122.089 120.49 122.089 119.152V118.342L119.56 118.498C118.3 118.586 117.587 119.143 117.587 120.021C117.587 120.92 118.329 121.506 119.462 121.506ZM118.876 123.176C116.864 123.176 115.458 121.926 115.458 120.08C115.458 118.283 116.835 117.18 119.277 117.043L122.089 116.877V116.086C122.089 114.943 121.318 114.26 120.029 114.26C118.808 114.26 118.046 114.846 117.861 115.764H115.868C115.986 113.908 117.568 112.541 120.107 112.541C122.597 112.541 124.189 113.859 124.189 115.92V123H122.167V121.311H122.118C121.523 122.453 120.224 123.176 118.876 123.176ZM120.888 111.262H119.12L121.21 108.303H123.329L120.888 111.262ZM131.408 123.176C129.904 123.176 128.742 122.443 128.107 121.252H128.068V123H126.018V108.908H128.127V114.475H128.176C128.791 113.283 129.963 112.561 131.418 112.561C134.006 112.561 135.695 114.611 135.695 117.863C135.695 121.125 134.016 123.176 131.408 123.176ZM130.842 114.338C129.24 114.338 128.117 115.744 128.117 117.863C128.117 120.002 129.24 121.389 130.842 121.389C132.502 121.389 133.527 120.041 133.527 117.863C133.527 115.705 132.502 114.338 130.842 114.338ZM140.639 121.506C142.114 121.506 143.266 120.49 143.266 119.152V118.342L140.737 118.498C139.477 118.586 138.764 119.143 138.764 120.021C138.764 120.92 139.507 121.506 140.639 121.506ZM140.054 123.176C138.042 123.176 136.636 121.926 136.636 120.08C136.636 118.283 138.013 117.18 140.454 117.043L143.266 116.877V116.086C143.266 114.943 142.495 114.26 141.206 114.26C139.985 114.26 139.223 114.846 139.038 115.764H137.046C137.163 113.908 138.745 112.541 141.284 112.541C143.774 112.541 145.366 113.859 145.366 115.92V123H143.345V121.311H143.296C142.7 122.453 141.401 123.176 140.054 123.176ZM150.974 123.176C148.377 123.176 146.658 121.105 146.658 117.863C146.658 114.621 148.377 112.561 150.955 112.561C152.429 112.561 153.601 113.303 154.177 114.436H154.216V108.908H156.336V123H154.285V121.252H154.246C153.64 122.424 152.468 123.176 150.974 123.176ZM151.531 114.338C149.861 114.338 148.816 115.705 148.816 117.863C148.816 120.031 149.861 121.389 151.531 121.389C153.152 121.389 154.236 120.012 154.236 117.863C154.236 115.734 153.152 114.338 151.531 114.338ZM162.618 123.195C159.678 123.195 157.745 121.174 157.745 117.863C157.745 114.562 159.688 112.541 162.618 112.541C165.547 112.541 167.491 114.562 167.491 117.863C167.491 121.174 165.557 123.195 162.618 123.195ZM162.618 121.457C164.278 121.457 165.342 120.148 165.342 117.863C165.342 115.588 164.268 114.279 162.618 114.279C160.967 114.279 159.893 115.588 159.893 117.863C159.893 120.148 160.967 121.457 162.618 121.457ZM172.369 113.146C172.369 110.48 174.498 108.596 177.574 108.596C180.543 108.596 182.584 110.314 182.584 112.668C182.584 114.426 181.412 115.744 179.859 117.287L176.422 120.598V120.656H182.779V123H172.535V121.018L177.848 115.9C179.273 114.475 179.713 113.762 179.713 112.785C179.713 111.73 178.785 110.891 177.477 110.891C176.109 110.891 175.104 111.848 175.104 113.146V113.195H172.369V113.146ZM189.93 123.322C187.909 123.322 186.239 122.404 185.253 120.725C184.471 119.533 184.071 117.941 184.071 116.066C184.071 111.398 186.337 108.586 189.979 108.586C192.665 108.586 194.764 110.178 195.155 112.482H192.255C191.971 111.545 191.063 110.92 189.96 110.92C187.997 110.92 186.805 112.805 186.874 115.988H186.932C187.499 114.611 188.886 113.693 190.682 113.693C193.358 113.693 195.341 115.666 195.341 118.342C195.341 121.242 193.085 123.322 189.93 123.322ZM189.901 120.969C191.337 120.969 192.47 119.846 192.47 118.43C192.47 116.975 191.386 115.91 189.911 115.91C188.446 115.91 187.333 116.975 187.333 118.4C187.333 119.836 188.456 120.969 189.901 120.969ZM204.301 123.166C201.684 123.166 200.034 121.096 200.034 117.746C200.034 114.426 201.694 112.365 204.321 112.365C205.834 112.365 207.006 113.166 207.514 114.328H207.573V108.908H210.424V123H207.612V121.203H207.563C207.055 122.355 205.844 123.166 204.301 123.166ZM205.268 114.65C203.832 114.65 202.954 115.852 202.954 117.766C202.954 119.689 203.832 120.871 205.268 120.871C206.684 120.871 207.592 119.68 207.592 117.766C207.592 115.861 206.684 114.65 205.268 114.65ZM216.726 114.416C215.476 114.416 214.577 115.363 214.48 116.672H218.923C218.864 115.334 217.995 114.416 216.726 114.416ZM218.962 119.797H221.579C221.267 121.848 219.392 123.225 216.804 123.225C213.581 123.225 211.648 121.164 211.648 117.814C211.648 114.475 213.601 112.307 216.696 112.307C219.743 112.307 221.667 114.367 221.667 117.551V118.42H214.45V118.596C214.45 120.09 215.398 121.115 216.853 121.115C217.898 121.115 218.698 120.598 218.962 119.797ZM230.55 121.105C231.79 121.105 232.815 120.295 232.815 119.162V118.4L230.608 118.537C229.544 118.615 228.938 119.094 228.938 119.836C228.938 120.617 229.583 121.105 230.55 121.105ZM229.612 123.166C227.62 123.166 226.106 121.877 226.106 119.992C226.106 118.088 227.571 116.984 230.179 116.828L232.815 116.672V115.979C232.815 115.002 232.132 114.436 231.057 114.436C229.993 114.436 229.319 114.963 229.182 115.734H226.575C226.682 113.703 228.411 112.307 231.184 112.307C233.87 112.307 235.618 113.693 235.618 115.803V123H232.864V121.398H232.805C232.22 122.512 230.921 123.166 229.612 123.166ZM243.384 123.166C241.851 123.166 240.679 122.424 240.103 121.203H240.045V123H237.232V108.908H240.084V114.348H240.142C240.718 113.107 241.88 112.365 243.375 112.365C246.011 112.365 247.632 114.387 247.632 117.766C247.632 121.135 246.021 123.166 243.384 123.166ZM242.398 114.65C241.021 114.65 240.074 115.891 240.074 117.766C240.074 119.66 241.011 120.871 242.398 120.871C243.824 120.871 244.712 119.68 244.712 117.766C244.712 115.861 243.814 114.65 242.398 114.65ZM248.817 123V112.531H251.571V114.416H251.629C252 113.088 252.889 112.365 254.12 112.365C254.452 112.365 254.735 112.414 254.93 112.473V114.982C254.696 114.885 254.305 114.816 253.895 114.816C252.489 114.816 251.668 115.676 251.668 117.15V123H248.817ZM255.851 123V112.531H258.702V123H255.851ZM257.277 111.379C256.417 111.379 255.753 110.725 255.753 109.904C255.753 109.074 256.417 108.43 257.277 108.43C258.136 108.43 258.8 109.074 258.8 109.904C258.8 110.725 258.136 111.379 257.277 111.379ZM260.375 123V108.908H263.227V123H260.375ZM272.558 121.105C273.798 121.105 274.824 120.295 274.824 119.162V118.4L272.617 118.537C271.552 118.615 270.947 119.094 270.947 119.836C270.947 120.617 271.591 121.105 272.558 121.105ZM271.621 123.166C269.629 123.166 268.115 121.877 268.115 119.992C268.115 118.088 269.58 116.984 272.187 116.828L274.824 116.672V115.979C274.824 115.002 274.14 114.436 273.066 114.436C272.002 114.436 271.328 114.963 271.191 115.734H268.584C268.691 113.703 270.42 112.307 273.193 112.307C275.879 112.307 277.627 113.693 277.627 115.803V123H274.873V121.398H274.814C274.228 122.512 272.929 123.166 271.621 123.166ZM21.441 151V136.908H24.2926V151H21.441ZM29.9594 149.105C31.1996 149.105 32.225 148.295 32.225 147.162V146.4L30.018 146.537C28.9535 146.615 28.348 147.094 28.348 147.836C28.348 148.617 28.9926 149.105 29.9594 149.105ZM29.0219 151.166C27.0297 151.166 25.516 149.877 25.516 147.992C25.516 146.088 26.9809 144.984 29.5883 144.828L32.225 144.672V143.979C32.225 143.002 31.5414 142.436 30.4672 142.436C29.4027 142.436 28.7289 142.963 28.5922 143.734H25.9848C26.0922 141.703 27.8207 140.307 30.5941 140.307C33.2797 140.307 35.0277 141.693 35.0277 143.803V151H32.2738V149.398H32.2152C31.6293 150.512 30.3305 151.166 29.0219 151.166ZM36.3976 143.607C36.3976 141.615 38.1262 140.307 40.8117 140.307C43.4387 140.307 45.1476 141.635 45.1867 143.666H42.5598C42.5012 142.826 41.8273 142.309 40.7726 142.309C39.7863 142.309 39.1418 142.758 39.1418 143.432C39.1418 143.949 39.591 144.301 40.509 144.516L42.5109 144.945C44.6105 145.414 45.4601 146.244 45.4601 147.807C45.4601 149.867 43.5656 151.225 40.8019 151.225C38.009 151.225 36.2902 149.877 36.134 147.836H38.9172C39.0539 148.715 39.7473 149.223 40.8801 149.223C41.9641 149.223 42.6184 148.793 42.6184 148.109C42.6184 147.582 42.2668 147.289 41.3293 147.064L39.3957 146.635C37.4133 146.186 36.3976 145.15 36.3976 143.607ZM53.8445 151V139.613H53.7859L50.1922 142.094V139.438L53.8348 136.908H56.7644V151H53.8445ZM63.1539 151V139.613H63.0953L59.5016 142.094V139.438L63.1441 136.908H66.0738V151H63.1539ZM70.725 149.105C69.8461 149.105 69.1527 148.402 69.1527 147.533C69.1527 146.654 69.8461 145.961 70.725 145.961C71.5941 145.961 72.2973 146.654 72.2973 147.533C72.2973 148.402 71.5941 149.105 70.725 149.105ZM70.725 142.123C69.8461 142.123 69.1527 141.42 69.1527 140.551C69.1527 139.672 69.8461 138.979 70.725 138.979C71.5941 138.979 72.2973 139.672 72.2973 140.551C72.2973 141.42 71.5941 142.123 70.725 142.123ZM79.7219 151.312C76.1769 151.312 74.0187 148.49 74.0187 143.93C74.0187 139.379 76.1965 136.586 79.7219 136.586C83.2473 136.586 85.4152 139.369 85.4152 143.92C85.4152 148.471 83.2668 151.312 79.7219 151.312ZM79.7219 148.949C81.4016 148.949 82.4172 147.143 82.4172 143.93C82.4172 140.746 81.3918 138.949 79.7219 138.949C78.0617 138.949 77.0168 140.756 77.0168 143.93C77.0168 147.133 78.0422 148.949 79.7219 148.949ZM92.4492 151.312C88.9043 151.312 86.7461 148.49 86.7461 143.93C86.7461 139.379 88.9238 136.586 92.4492 136.586C95.9746 136.586 98.1426 139.369 98.1426 143.92C98.1426 148.471 95.9941 151.312 92.4492 151.312ZM92.4492 148.949C94.1289 148.949 95.1445 147.143 95.1445 143.93C95.1445 140.746 94.1191 138.949 92.4492 138.949C90.7891 138.949 89.7441 140.756 89.7441 143.93C89.7441 147.133 90.7695 148.949 92.4492 148.949ZM107.298 149.105C108.539 149.105 109.564 148.295 109.564 147.162V146.4L107.357 146.537C106.293 146.615 105.687 147.094 105.687 147.836C105.687 148.617 106.332 149.105 107.298 149.105ZM106.361 151.166C104.369 151.166 102.855 149.877 102.855 147.992C102.855 146.088 104.32 144.984 106.927 144.828L109.564 144.672V143.979C109.564 143.002 108.88 142.436 107.806 142.436C106.742 142.436 106.068 142.963 105.931 143.734H103.324C103.431 141.703 105.16 140.307 107.933 140.307C110.619 140.307 112.367 141.693 112.367 143.803V151H109.613V149.398H109.554C108.968 150.512 107.67 151.166 106.361 151.166ZM115.768 151.117C114.889 151.117 114.196 150.414 114.196 149.545C114.196 148.666 114.889 147.973 115.768 147.973C116.637 147.973 117.34 148.666 117.34 149.545C117.34 150.414 116.637 151.117 115.768 151.117ZM119.179 151V140.531H121.933V142.426H121.991C122.431 141.166 123.554 140.336 124.98 140.336C126.493 140.336 127.548 141.117 127.9 142.484H127.958C128.427 141.166 129.677 140.336 131.21 140.336C133.261 140.336 134.638 141.742 134.638 143.852V151H131.786V144.564C131.786 143.354 131.181 142.689 130.077 142.689C128.993 142.689 128.28 143.48 128.28 144.643V151H125.536V144.477C125.536 143.354 124.902 142.689 123.847 142.689C122.763 142.689 122.03 143.51 122.03 144.682V151H119.179ZM138 151.117C137.121 151.117 136.428 150.414 136.428 149.545C136.428 148.666 137.121 147.973 138 147.973C138.869 147.973 139.572 148.666 139.572 149.545C139.572 150.414 138.869 151.117 138 151.117ZM145.369 151V136.908H147.459V142.445H147.507C148.074 141.244 149.197 140.551 150.759 140.551C153.015 140.551 154.363 142.055 154.363 144.379V151H152.244V144.789C152.244 143.275 151.482 142.367 149.998 142.367C148.435 142.367 147.478 143.441 147.478 145.062V151H145.369ZM159.698 149.506C161.172 149.506 162.325 148.49 162.325 147.152V146.342L159.795 146.498C158.536 146.586 157.823 147.143 157.823 148.021C157.823 148.92 158.565 149.506 159.698 149.506ZM159.112 151.176C157.1 151.176 155.694 149.926 155.694 148.08C155.694 146.283 157.071 145.18 159.512 145.043L162.325 144.877V144.086C162.325 142.943 161.553 142.26 160.264 142.26C159.043 142.26 158.282 142.846 158.096 143.764H156.104C156.221 141.908 157.803 140.541 160.342 140.541C162.832 140.541 164.424 141.859 164.424 143.92V151H162.403V149.311H162.354C161.758 150.453 160.459 151.176 159.112 151.176ZM165.989 143.637C165.989 141.801 167.611 140.541 170.013 140.541C172.298 140.541 173.9 141.82 173.968 143.646H171.986C171.888 142.719 171.136 142.143 169.954 142.143C168.812 142.143 168.05 142.699 168.05 143.51C168.05 144.145 168.558 144.574 169.622 144.838L171.351 145.238C173.421 145.736 174.202 146.518 174.202 148.031C174.202 149.906 172.454 151.195 169.935 151.195C167.503 151.195 165.892 149.936 165.726 148.051H167.816C167.982 149.037 168.743 149.584 170.032 149.584C171.302 149.584 172.083 149.057 172.083 148.227C172.083 147.572 171.693 147.211 170.618 146.938L168.782 146.488C166.927 146.039 165.989 145.072 165.989 143.637ZM176.158 138.295H178.277V140.727H180.23V142.396H178.277V148.061C178.277 148.949 178.668 149.35 179.527 149.35C179.742 149.35 180.084 149.33 180.221 149.301V150.971C179.986 151.029 179.518 151.068 179.049 151.068C176.969 151.068 176.158 150.277 176.158 148.295V142.396H174.664V140.727H176.158V138.295ZM185.106 149.506C186.581 149.506 187.733 148.49 187.733 147.152V146.342L185.204 146.498C183.944 146.586 183.231 147.143 183.231 148.021C183.231 148.92 183.973 149.506 185.106 149.506ZM184.52 151.176C182.509 151.176 181.102 149.926 181.102 148.08C181.102 146.283 182.479 145.18 184.921 145.043L187.733 144.877V144.086C187.733 142.943 186.962 142.26 185.673 142.26C184.452 142.26 183.69 142.846 183.505 143.764H181.512C181.63 141.908 183.212 140.541 185.751 140.541C188.241 140.541 189.833 141.859 189.833 143.92V151H187.811V149.311H187.762C187.167 150.453 185.868 151.176 184.52 151.176ZM199.643 142.24C198.168 142.24 197.133 143.363 197.026 144.916H202.162C202.114 143.344 201.118 142.24 199.643 142.24ZM202.153 147.982H204.155C203.862 149.857 202.084 151.195 199.731 151.195C196.713 151.195 194.887 149.154 194.887 145.912C194.887 142.689 196.743 140.541 199.643 140.541C202.495 140.541 204.272 142.553 204.272 145.668V146.391H197.016V146.518C197.016 148.305 198.09 149.486 199.78 149.486C200.981 149.486 201.87 148.881 202.153 147.982ZM205.691 151V136.908H207.8V151H205.691ZM217.288 151.176C214.69 151.176 212.971 149.105 212.971 145.863C212.971 142.621 214.69 140.561 217.268 140.561C218.743 140.561 219.915 141.303 220.491 142.436H220.53V136.908H222.649V151H220.598V149.252H220.559C219.954 150.424 218.782 151.176 217.288 151.176ZM217.845 142.338C216.175 142.338 215.13 143.705 215.13 145.863C215.13 148.031 216.175 149.389 217.845 149.389C219.466 149.389 220.55 148.012 220.55 145.863C220.55 143.734 219.466 142.338 217.845 142.338ZM228.931 151.195C225.992 151.195 224.058 149.174 224.058 145.863C224.058 142.562 226.002 140.541 228.931 140.541C231.861 140.541 233.804 142.562 233.804 145.863C233.804 149.174 231.871 151.195 228.931 151.195ZM228.931 149.457C230.591 149.457 231.656 148.148 231.656 145.863C231.656 143.588 230.582 142.279 228.931 142.279C227.281 142.279 226.207 143.588 226.207 145.863C226.207 148.148 227.281 149.457 228.931 149.457ZM235.135 151V140.727H237.147V142.455H237.196C237.655 141.312 238.729 140.551 240.116 140.551C241.541 140.551 242.577 141.283 242.987 142.562H243.036C243.563 141.312 244.774 140.551 246.239 140.551C248.27 140.551 249.598 141.898 249.598 143.939V151H247.479V144.447C247.479 143.119 246.766 142.357 245.516 142.357C244.266 142.357 243.397 143.285 243.397 144.584V151H241.327V144.291C241.327 143.109 240.575 142.357 239.383 142.357C238.133 142.357 237.245 143.334 237.245 144.652V151H235.135ZM251.407 151V140.727H253.517V151H251.407ZM252.462 139.223C251.788 139.223 251.241 138.686 251.241 138.021C251.241 137.348 251.788 136.811 252.462 136.811C253.146 136.811 253.693 137.348 253.693 138.021C253.693 138.686 253.146 139.223 252.462 139.223ZM255.375 151V140.727H257.387V142.445H257.436C257.992 141.273 259.086 140.551 260.668 140.551C262.934 140.551 264.232 141.996 264.232 144.35V151H262.113V144.76C262.113 143.217 261.391 142.367 259.926 142.367C258.441 142.367 257.484 143.422 257.484 145.014V151H255.375ZM270.348 149.291C271.999 149.291 273.083 147.953 273.083 145.834C273.083 143.725 271.999 142.338 270.348 142.338C268.727 142.338 267.673 143.695 267.673 145.834C267.673 147.982 268.727 149.291 270.348 149.291ZM270.368 154.867C267.946 154.867 266.149 153.578 265.886 151.801H268.005C268.307 152.66 269.245 153.227 270.446 153.227C272.096 153.227 273.073 152.289 273.073 150.883V149.193H273.034C272.458 150.307 271.247 151.039 269.782 151.039C267.204 151.039 265.514 149.027 265.514 145.824C265.514 142.592 267.194 140.561 269.831 140.561C271.286 140.561 272.477 141.293 273.102 142.484H273.141V140.727H275.192V150.814C275.192 153.266 273.298 154.867 270.368 154.867ZM281.396 151.195C278.457 151.195 276.523 149.174 276.523 145.863C276.523 142.562 278.466 140.541 281.396 140.541C284.326 140.541 286.269 142.562 286.269 145.863C286.269 149.174 284.336 151.195 281.396 151.195ZM281.396 149.457C283.056 149.457 284.121 148.148 284.121 145.863C284.121 143.588 283.046 142.279 281.396 142.279C279.746 142.279 278.671 143.588 278.671 145.863C278.671 148.148 279.746 149.457 281.396 149.457ZM42.3707 169.146C42.3707 166.48 44.4996 164.596 47.5758 164.596C50.5445 164.596 52.5855 166.314 52.5855 168.668C52.5855 170.426 51.4137 171.744 49.8609 173.287L46.4234 176.598V176.656H52.7809V179H42.5367V177.018L47.8492 171.9C49.275 170.475 49.7145 169.762 49.7145 168.785C49.7145 167.73 48.7867 166.891 47.4781 166.891C46.1109 166.891 45.1051 167.848 45.1051 169.146V169.195H42.3707V169.146ZM55.0395 179L61.1039 167.311V167.252H53.9359V164.908H64.0141V167.281L58.1352 179H55.0395ZM72.9355 179.166C70.3184 179.166 68.668 177.096 68.668 173.746C68.668 170.426 70.3281 168.365 72.9551 168.365C74.4688 168.365 75.6406 169.166 76.1484 170.328H76.207V164.908H79.0586V179H76.2461V177.203H76.1973C75.6895 178.355 74.4785 179.166 72.9355 179.166ZM73.9023 170.65C72.4668 170.65 71.5879 171.852 71.5879 173.766C71.5879 175.689 72.4668 176.871 73.9023 176.871C75.3184 176.871 76.2266 175.68 76.2266 173.766C76.2266 171.861 75.3184 170.65 73.9023 170.65ZM85.3602 170.416C84.1102 170.416 83.2117 171.363 83.1141 172.672H87.5574C87.4988 171.334 86.6297 170.416 85.3602 170.416ZM87.5965 175.797H90.2137C89.9012 177.848 88.0262 179.225 85.4383 179.225C82.2156 179.225 80.282 177.164 80.282 173.814C80.282 170.475 82.2352 168.307 85.3309 168.307C88.3777 168.307 90.3016 170.367 90.3016 173.551V174.42H83.0848V174.596C83.0848 176.09 84.032 177.115 85.4871 177.115C86.532 177.115 87.3328 176.598 87.5965 175.797ZM99.184 177.105C100.424 177.105 101.45 176.295 101.45 175.162V174.4L99.2426 174.537C98.1781 174.615 97.5727 175.094 97.5727 175.836C97.5727 176.617 98.2172 177.105 99.184 177.105ZM98.2465 179.166C96.2543 179.166 94.7406 177.877 94.7406 175.992C94.7406 174.088 96.2055 172.984 98.8129 172.828L101.45 172.672V171.979C101.45 171.002 100.766 170.436 99.6918 170.436C98.6273 170.436 97.9535 170.963 97.8168 171.734H95.2094C95.3168 169.703 97.0453 168.307 99.8188 168.307C102.504 168.307 104.252 169.693 104.252 171.803V179H101.498V177.398H101.44C100.854 178.512 99.5551 179.166 98.2465 179.166ZM112.019 179.166C110.486 179.166 109.314 178.424 108.738 177.203H108.679V179H105.866V164.908H108.718V170.348H108.777C109.353 169.107 110.515 168.365 112.009 168.365C114.646 168.365 116.267 170.387 116.267 173.766C116.267 177.135 114.655 179.166 112.019 179.166ZM111.032 170.65C109.655 170.65 108.708 171.891 108.708 173.766C108.708 175.66 109.646 176.871 111.032 176.871C112.458 176.871 113.347 175.68 113.347 173.766C113.347 171.861 112.448 170.65 111.032 170.65ZM117.451 179V168.531H120.205V170.416H120.264C120.635 169.088 121.523 168.365 122.754 168.365C123.086 168.365 123.369 168.414 123.564 168.473V170.982C123.33 170.885 122.939 170.816 122.529 170.816C121.123 170.816 120.303 171.676 120.303 173.15V179H117.451ZM124.485 179V168.531H127.337V179H124.485ZM125.911 167.379C125.052 167.379 124.388 166.725 124.388 165.904C124.388 165.074 125.052 164.43 125.911 164.43C126.77 164.43 127.434 165.074 127.434 165.904C127.434 166.725 126.77 167.379 125.911 167.379ZM129.009 179V164.908H131.861V179H129.009ZM141.193 177.105C142.433 177.105 143.458 176.295 143.458 175.162V174.4L141.251 174.537C140.187 174.615 139.581 175.094 139.581 175.836C139.581 176.617 140.226 177.105 141.193 177.105ZM140.255 179.166C138.263 179.166 136.749 177.877 136.749 175.992C136.749 174.088 138.214 172.984 140.821 172.828L143.458 172.672V171.979C143.458 171.002 142.775 170.436 141.7 170.436C140.636 170.436 139.962 170.963 139.825 171.734H137.218C137.325 169.703 139.054 168.307 141.827 168.307C144.513 168.307 146.261 169.693 146.261 171.803V179H143.507V177.398H143.448C142.863 178.512 141.564 179.166 140.255 179.166ZM151.54 179V164.908H154.391V179H151.54ZM160.058 177.105C161.298 177.105 162.324 176.295 162.324 175.162V174.4L160.117 174.537C159.052 174.615 158.447 175.094 158.447 175.836C158.447 176.617 159.091 177.105 160.058 177.105ZM159.121 179.166C157.129 179.166 155.615 177.877 155.615 175.992C155.615 174.088 157.08 172.984 159.687 172.828L162.324 172.672V171.979C162.324 171.002 161.64 170.436 160.566 170.436C159.502 170.436 158.828 170.963 158.691 171.734H156.084C156.191 169.703 157.92 168.307 160.693 168.307C163.379 168.307 165.127 169.693 165.127 171.803V179H162.373V177.398H162.314C161.728 178.512 160.429 179.166 159.121 179.166ZM166.496 171.607C166.496 169.615 168.225 168.307 170.911 168.307C173.538 168.307 175.246 169.635 175.286 171.666H172.659C172.6 170.826 171.926 170.309 170.871 170.309C169.885 170.309 169.241 170.758 169.241 171.432C169.241 171.949 169.69 172.301 170.608 172.516L172.61 172.945C174.709 173.414 175.559 174.244 175.559 175.807C175.559 177.867 173.664 179.225 170.901 179.225C168.108 179.225 166.389 177.877 166.233 175.836H169.016C169.153 176.715 169.846 177.223 170.979 177.223C172.063 177.223 172.717 176.793 172.717 176.109C172.717 175.582 172.366 175.289 171.428 175.064L169.495 174.635C167.512 174.186 166.496 173.15 166.496 171.607ZM186.102 179.322C184.08 179.322 182.41 178.404 181.424 176.725C180.643 175.533 180.242 173.941 180.242 172.066C180.242 167.398 182.508 164.586 186.15 164.586C188.836 164.586 190.936 166.178 191.326 168.482H188.426C188.143 167.545 187.234 166.92 186.131 166.92C184.168 166.92 182.977 168.805 183.045 171.988H183.104C183.67 170.611 185.057 169.693 186.854 169.693C189.529 169.693 191.512 171.666 191.512 174.342C191.512 177.242 189.256 179.322 186.102 179.322ZM186.072 176.969C187.508 176.969 188.641 175.846 188.641 174.43C188.641 172.975 187.557 171.91 186.082 171.91C184.617 171.91 183.504 172.975 183.504 174.4C183.504 175.836 184.627 176.969 186.072 176.969ZM194.776 177.105C193.897 177.105 193.204 176.402 193.204 175.533C193.204 174.654 193.897 173.961 194.776 173.961C195.645 173.961 196.348 174.654 196.348 175.533C196.348 176.402 195.645 177.105 194.776 177.105ZM194.776 170.123C193.897 170.123 193.204 169.42 193.204 168.551C193.204 167.672 193.897 166.979 194.776 166.979C195.645 166.979 196.348 167.672 196.348 168.551C196.348 169.42 195.645 170.123 194.776 170.123ZM203.773 179.312C200.228 179.312 198.07 176.49 198.07 171.93C198.07 167.379 200.248 164.586 203.773 164.586C207.298 164.586 209.466 167.369 209.466 171.92C209.466 176.471 207.318 179.312 203.773 179.312ZM203.773 176.949C205.453 176.949 206.468 175.143 206.468 171.93C206.468 168.746 205.443 166.949 203.773 166.949C202.113 166.949 201.068 168.756 201.068 171.93C201.068 175.133 202.093 176.949 203.773 176.949ZM216.5 179.312C212.955 179.312 210.797 176.49 210.797 171.93C210.797 167.379 212.975 164.586 216.5 164.586C220.026 164.586 222.194 167.369 222.194 171.92C222.194 176.471 220.045 179.312 216.5 179.312ZM216.5 176.949C218.18 176.949 219.196 175.143 219.196 171.93C219.196 168.746 218.17 166.949 216.5 166.949C214.84 166.949 213.795 168.756 213.795 171.93C213.795 175.133 214.821 176.949 216.5 176.949ZM233.42 168.365C236.076 168.365 237.707 170.387 237.707 173.766C237.707 177.135 236.086 179.166 233.469 179.166C231.945 179.166 230.773 178.424 230.217 177.242H230.158V182.418H227.307V168.531H230.119V170.357H230.178C230.744 169.127 231.906 168.365 233.42 168.365ZM232.463 176.871C233.889 176.871 234.787 175.67 234.787 173.766C234.787 171.871 233.889 170.65 232.463 170.65C231.066 170.65 230.148 171.891 230.148 173.766C230.148 175.66 231.066 176.871 232.463 176.871ZM240.444 179.117C239.565 179.117 238.872 178.414 238.872 177.545C238.872 176.666 239.565 175.973 240.444 175.973C241.313 175.973 242.016 176.666 242.016 177.545C242.016 178.414 241.313 179.117 240.444 179.117ZM243.855 179V168.531H246.609V170.426H246.668C247.107 169.166 248.23 168.336 249.656 168.336C251.17 168.336 252.224 169.117 252.576 170.484H252.634C253.103 169.166 254.353 168.336 255.886 168.336C257.937 168.336 259.314 169.742 259.314 171.852V179H256.462V172.564C256.462 171.354 255.857 170.689 254.754 170.689C253.67 170.689 252.957 171.48 252.957 172.643V179H250.212V172.477C250.212 171.354 249.578 170.689 248.523 170.689C247.439 170.689 246.707 171.51 246.707 172.682V179H243.855ZM262.676 179.117C261.797 179.117 261.104 178.414 261.104 177.545C261.104 176.666 261.797 175.973 262.676 175.973C263.545 175.973 264.248 176.666 264.248 177.545C264.248 178.414 263.545 179.117 262.676 179.117Z" fill="white"/>
<path d="M174.443 6.40237C174.284 6.17144 174.122 5.94386 173.953 5.71963L174.035 5.56567C174.172 5.84346 174.306 6.12124 174.44 6.40237H174.443Z" fill="white"/>
<path d="M137.994 18.8157C137.994 18.8157 137.99 18.8253 137.99 18.8285C137.99 18.8253 137.99 18.8221 137.99 18.8157H137.994Z" fill="white"/>
<path d="M139.764 14.5986C139.764 14.5986 139.755 14.612 139.751 14.6187C139.751 14.6187 139.751 14.6154 139.751 14.612C139.755 14.6087 139.758 14.602 139.761 14.5986H139.764Z" fill="white"/>
<path d="M155.878 42.939C155.517 42.9725 155.152 42.9993 154.784 43.0227C154.66 43.0294 154.529 43.0394 154.401 43.0428C154.407 43.006 154.41 42.9725 154.413 42.939C154.473 42.939 154.535 42.939 154.594 42.939C154.653 42.939 154.716 42.939 154.775 42.939C155.127 42.939 155.476 42.9223 155.819 42.8955C155.838 42.9122 155.857 42.9256 155.875 42.9424L155.878 42.939Z" fill="white"/>
<path d="M155.878 42.939C155.517 42.9725 155.152 42.9993 154.784 43.0227C154.781 42.9959 154.778 42.9658 154.775 42.939C155.127 42.939 155.476 42.9223 155.819 42.8955C155.838 42.9122 155.857 42.9256 155.875 42.9424L155.878 42.939Z" fill="white"/>
<path d="M190.969 24.4917C190.969 29.3345 189.597 33.8326 187.247 37.5609C184.601 39.9304 181.727 42.0154 178.663 43.7725C175.774 45.4325 172.716 46.8013 169.527 47.8421C169.315 47.9124 169.1 47.9794 168.885 48.0463C164.861 49.298 160.635 50.0309 156.268 50.1748C155.744 50.1916 155.218 50.2016 154.691 50.2016C154.102 50.2016 153.516 50.1916 152.933 50.1715C150.835 50.0945 148.772 49.8837 146.749 49.539C141.366 53.4781 137.719 59.9407 137.28 67.3438C132.121 60.0244 128.643 51.2659 127.452 41.7276C127.153 39.3313 127 36.8848 127 34.4048C127 33.277 127.031 32.1592 127.094 31.0514C127.256 28.1899 127.62 25.3886 128.175 22.6644C128.827 19.4682 129.74 16.3758 130.89 13.4139C131.675 11.3857 132.57 9.42117 133.574 7.52355C134.97 4.8729 136.569 2.35948 138.343 0.0066937C139.527 2.30258 141.142 4.32069 143.074 5.94053C144.022 6.73371 145.044 7.43319 146.129 8.02222C147.977 9.02625 150.012 9.70899 152.163 10.0035C152.958 10.114 153.771 10.1708 154.594 10.1708C157.646 10.1708 160.526 9.3944 163.063 8.02222C165.818 6.52956 168.168 4.33407 169.895 1.65665C170.001 1.49266 170.101 1.33202 170.204 1.16468C170.434 0.786492 170.653 0.394919 170.855 0C170.799 0.107097 171.697 1.33536 171.793 1.49601C173.458 4.25375 174.901 7.13867 176.12 10.1541C177.292 13.0491 178.314 16.1716 178.065 19.3812C177.831 22.4033 177.133 25.2949 175.758 27.959C175.543 28.3773 175.316 28.7923 175.072 29.1906C174.776 29.6792 174.462 30.1544 174.128 30.6129C172.482 32.8888 170.388 34.7931 167.985 36.1786C169.59 34.0969 170.78 31.6337 171.423 28.9329C171.775 27.4536 171.965 25.9007 171.965 24.3009C171.965 20.6529 170.989 17.2526 169.306 14.3811L172.155 9.08315C170.572 9.9165 169.063 10.8938 167.642 11.9915C159.986 17.9119 154.921 27.4469 154.616 38.2704C154.607 38.2704 154.597 38.267 154.585 38.2637C154.379 30.9577 152.001 24.234 148.123 18.8189C146.26 16.2151 144.047 13.9092 141.562 11.9881C141.166 11.6802 140.761 11.3824 140.35 11.0979C139.804 10.7164 139.25 10.3516 138.682 10.0069L139.945 12.3529L140.512 13.4072C140.4 13.5745 140.287 13.7452 140.182 13.9159C140.138 13.9862 140.094 14.0531 140.057 14.1234C139.994 14.2238 139.932 14.3309 139.873 14.4346C139.864 14.4514 139.854 14.4648 139.845 14.4781C139.845 14.4815 139.839 14.4882 139.839 14.4915C139.839 14.4949 139.832 14.5016 139.832 14.5049C139.826 14.5183 139.817 14.5317 139.811 14.5417C139.801 14.5585 139.792 14.5719 139.783 14.5886C139.783 14.5919 139.776 14.5986 139.776 14.602C139.773 14.6053 139.77 14.612 139.767 14.6154C139.767 14.6154 139.767 14.6187 139.767 14.6221C139.767 14.6254 139.761 14.6321 139.758 14.6354C139.736 14.6756 139.714 14.7124 139.692 14.7526C139.683 14.7693 139.673 14.7894 139.664 14.8061C139.624 14.8798 139.586 14.95 139.546 15.0237C139.536 15.0371 139.53 15.0538 139.521 15.0672C139.514 15.0806 139.508 15.0906 139.502 15.104C139.49 15.1207 139.483 15.1408 139.471 15.1609C139.461 15.1776 139.452 15.1977 139.443 15.2144C139.44 15.2211 139.437 15.2278 139.43 15.2345C139.38 15.3282 139.334 15.4219 139.287 15.5156C139.246 15.5993 139.206 15.6796 139.165 15.7633C139.125 15.847 139.087 15.9273 139.047 16.011C138.997 16.1181 138.95 16.2218 138.904 16.3323C138.876 16.3925 138.847 16.4527 138.823 16.5163C138.751 16.6837 138.679 16.8544 138.614 17.0284C138.579 17.1121 138.545 17.1991 138.514 17.2861C138.48 17.3698 138.448 17.4568 138.42 17.5404C138.414 17.5572 138.408 17.5773 138.402 17.594C138.396 17.6107 138.389 17.6275 138.386 17.6442C138.361 17.7078 138.339 17.7714 138.318 17.835C138.302 17.8818 138.283 17.9287 138.271 17.9755C138.265 17.9889 138.261 17.999 138.258 18.0123C138.258 18.0157 138.258 18.019 138.255 18.0257C138.255 18.0257 138.255 18.0291 138.255 18.0324C138.255 18.0358 138.255 18.0358 138.252 18.0425C138.252 18.0458 138.249 18.0492 138.249 18.0559C138.233 18.0994 138.221 18.1462 138.205 18.1897C138.174 18.2834 138.146 18.3771 138.115 18.4708C138.087 18.5646 138.059 18.6583 138.031 18.752C138.025 18.7721 138.018 18.7955 138.009 18.8223C138.009 18.829 138.009 18.829 138.009 18.8356C138.006 18.8457 138.003 18.8557 138 18.8658C137.997 18.8792 137.993 18.8925 137.987 18.9059C137.984 18.916 137.981 18.926 137.978 18.9361C137.978 18.9427 137.975 18.9494 137.972 18.9561C137.972 18.9561 137.972 18.9595 137.972 18.9628C137.972 18.9695 137.968 18.9796 137.965 18.9863C137.925 19.1302 137.887 19.2774 137.85 19.4213C137.828 19.505 137.81 19.5853 137.788 19.669C137.769 19.756 137.747 19.843 137.728 19.9334C137.728 19.9334 137.728 19.9367 137.728 19.9401C137.725 19.9535 137.722 19.9669 137.719 19.9802C137.719 19.9802 137.719 19.9869 137.719 19.9936V20.0003C137.719 20.0104 137.713 20.0204 137.713 20.0304C137.713 20.0405 137.707 20.0505 137.707 20.0639C137.707 20.0773 137.704 20.084 137.7 20.0974C137.697 20.1141 137.694 20.1342 137.688 20.1509C137.669 20.2379 137.651 20.325 137.635 20.4086C137.629 20.4388 137.623 20.4689 137.619 20.4956C137.601 20.5894 137.585 20.6797 137.57 20.7734C137.548 20.8973 137.526 21.0211 137.507 21.1449C137.492 21.2219 137.482 21.2989 137.47 21.3759C137.464 21.4294 137.454 21.4863 137.445 21.5432C137.435 21.5967 137.429 21.6536 137.423 21.7105C137.423 21.7306 137.417 21.7507 137.417 21.7708C137.404 21.8611 137.392 21.9515 137.383 22.0419C137.367 22.1657 137.354 22.2895 137.345 22.4134C137.336 22.5372 137.323 22.661 137.314 22.7848C137.308 22.8685 137.301 22.9555 137.295 23.0425C137.295 23.066 137.292 23.0861 137.292 23.1128C137.292 23.1563 137.286 23.1998 137.286 23.2434C137.286 23.2668 137.286 23.2869 137.283 23.3103C137.283 23.3337 137.283 23.3538 137.283 23.3772C137.28 23.4609 137.277 23.5412 137.273 23.6249C137.27 23.7219 137.267 23.8157 137.264 23.9161V23.9294C137.264 24.0499 137.261 24.1738 137.261 24.2976C137.261 28.4074 138.498 32.2027 140.596 35.285C143.719 39.8802 148.756 42.8789 154.445 42.9425C154.445 42.9793 154.438 43.0128 154.432 43.0462C154.56 43.0429 154.688 43.0328 154.816 43.0261C155.18 43.0061 155.548 42.9759 155.91 42.9425C165.603 42.0422 174.165 36.9149 179.997 29.2876C183.469 24.7494 185.972 19.331 187.172 13.3804C187.281 12.8382 187.381 12.2894 187.469 11.7371C187.574 11.9078 187.677 12.0819 187.777 12.2559C189.822 15.8135 191 20.0037 191 24.4917H190.969Z" fill="white"/>
<path d="M137.994 18.8157C137.994 18.8157 137.99 18.8253 137.99 18.8285C137.99 18.8253 137.99 18.8221 137.99 18.8157H137.994Z" fill="white"/>
<path d="M154.61 38.2638C154.6 38.6118 154.594 38.9599 154.594 39.308C154.594 38.9566 154.588 38.6085 154.579 38.2571C154.591 38.2571 154.6 38.2638 154.61 38.2638Z" fill="white"/>
<path d="M139.764 14.5986C139.764 14.5986 139.755 14.612 139.751 14.6187C139.751 14.6187 139.751 14.6154 139.751 14.612C139.755 14.6087 139.758 14.602 139.761 14.5986H139.764Z" fill="white"/>
<path d="M137.994 18.8157C137.994 18.8157 137.99 18.8253 137.99 18.8285C137.99 18.8253 137.99 18.8221 137.99 18.8157H137.994Z" fill="white"/>
<path d="M139.764 14.5986C139.764 14.5986 139.755 14.612 139.751 14.6187C139.751 14.6187 139.751 14.6154 139.751 14.612C139.755 14.6087 139.758 14.602 139.761 14.5986H139.764Z" fill="white"/>
<path d="M137.994 18.8157C137.994 18.8157 137.99 18.8253 137.99 18.8285C137.99 18.8253 137.99 18.8221 137.99 18.8157H137.994Z" fill="white"/>
<path d="M139.764 14.5986C139.764 14.5986 139.755 14.612 139.751 14.6187C139.751 14.6187 139.751 14.6154 139.751 14.612C139.755 14.6087 139.758 14.602 139.761 14.5986H139.764Z" fill="white"/>
<path d="M155.878 42.939C155.517 42.9725 155.152 42.9993 154.784 43.0227C154.66 43.0294 154.529 43.0394 154.401 43.0428C154.407 43.006 154.41 42.9725 154.413 42.939C154.473 42.939 154.535 42.939 154.594 42.939C154.653 42.939 154.716 42.939 154.775 42.939C155.127 42.939 155.476 42.9223 155.819 42.8955C155.838 42.9122 155.857 42.9256 155.875 42.9424L155.878 42.939Z" fill="white"/>
<path d="M137.994 18.8157C137.994 18.8157 137.99 18.8253 137.99 18.8285C137.99 18.8253 137.99 18.8221 137.99 18.8157H137.994Z" fill="white"/>
<path d="M139.764 14.5986C139.764 14.5986 139.755 14.612 139.751 14.6187C139.751 14.6187 139.751 14.6154 139.751 14.612C139.755 14.6087 139.758 14.602 139.761 14.5986H139.764Z" fill="white"/>
<path d="M155.878 42.939C155.517 42.9725 155.152 42.9993 154.784 43.0227C154.66 43.0294 154.529 43.0394 154.401 43.0428C154.407 43.006 154.41 42.9725 154.413 42.939C154.473 42.939 154.535 42.939 154.594 42.939C154.653 42.939 154.716 42.939 154.775 42.939C155.127 42.939 155.476 42.9223 155.819 42.8955C155.838 42.9122 155.857 42.9256 155.875 42.9424L155.878 42.939Z" fill="white"/>
<path d="M139.764 14.5986C139.764 14.5986 139.755 14.612 139.751 14.6187C139.751 14.6187 139.751 14.6154 139.751 14.612C139.755 14.6087 139.758 14.602 139.761 14.5986H139.764Z" fill="white"/>
<path d="M144.816 29.8865C145.825 29.8865 146.643 29.0085 146.643 27.9253C146.643 26.8422 145.825 25.9641 144.816 25.9641C143.808 25.9641 142.99 26.8422 142.99 27.9253C142.99 29.0085 143.808 29.8865 144.816 29.8865Z" fill="white"/>
<path d="M162.729 29.8865C163.738 29.8865 164.556 29.0085 164.556 27.9253C164.556 26.8422 163.738 25.9641 162.729 25.9641C161.721 25.9641 160.903 26.8422 160.903 27.9253C160.903 29.0085 161.721 29.8865 162.729 29.8865Z" fill="white"/>
<path d="M144.268 55.0077C144.268 55.0077 144.268 52.3738 158.98 52.511C173.686 52.6516 187.359 39.9707 187.375 39.9573C187.285 40.0409 187.578 41.5503 187.59 41.7076C187.942 46.6676 186.278 51.6141 182.441 54.5894C179.271 57.0459 175.001 58.0868 171.139 57.9763C166.566 57.8458 162.268 56.1925 157.827 55.2587C155.557 54.7801 153.257 54.4254 150.944 54.3451C150.34 54.325 144.265 54.402 144.265 55.0044L144.268 55.0077Z" fill="white"/>
<path d="M141.893 58.3444C141.893 58.3444 145.549 54.0271 153.407 55.7942C161.264 57.5613 166.202 61.6812 172.049 60.5031C177.893 59.3284 182.092 56.584 182.101 56.5773C181.883 56.7212 181.637 57.8792 181.528 58.1369C180.963 59.4388 180.24 60.7641 179.321 61.8117C177.401 63.9938 175.107 65.4429 172.298 65.8379C165.36 66.8118 158.578 62.8258 152.693 59.4254C151.518 58.746 150.321 58.08 149.024 57.732C146.68 57.1028 144.162 58.0901 141.896 58.7327" fill="white"/>
<path d="M139.944 66.795C139.645 62.1965 145.321 59.248 148.918 60.0077C150.561 60.3524 152.007 61.313 153.357 62.3371C154.737 63.3846 156.246 64.2213 157.804 64.9375C161.077 66.4436 164.587 67.3271 168.134 67.6283C170.038 67.789 172.476 68.0768 174.221 66.9824C173.928 67.1665 173.486 68.8298 173.255 69.1946C171.301 72.3205 167.489 73.6324 164.126 73.7261C160.797 73.8165 157.116 72.9397 154.151 71.2964C152.711 70.4965 151.365 69.4992 150.168 68.3211C148.622 66.7983 147.16 64.8237 145.006 64.315C142.768 63.7862 141.525 65.4998 139.944 66.795Z" fill="white"/>
</svg>
