<svg width="308" height="182" viewBox="0 0 308 182" fill="none" xmlns="http://www.w3.org/2000/svg">
<rect x="0.5" y="12.5" width="307" height="169" rx="8.5" fill="white" fill-opacity="0.33" stroke="white"/>
<path d="M84.7594 102.812V106H70.4469V83.4531H84.7594V86.6406H73.9469V93.0156H84.1813V96.0469H73.9469V102.812H84.7594ZM95.4906 99.9688H95.2406L91.5219 106H87.8344L93.475 97.5312L87.7875 88.9844H91.7094L95.3656 94.9844H95.6313L99.2563 88.9844H102.991L97.3813 97.3906L103.053 106H99.1938L95.4906 99.9688ZM115.128 88.7031C119.456 88.7031 122.191 92.0781 122.191 97.4844C122.191 102.891 119.456 106.281 115.159 106.281C112.738 106.281 110.816 105.219 109.925 103.422H109.659V111.656H106.3V88.9844H109.534V91.7969H109.784C110.816 89.8594 112.816 88.7031 115.128 88.7031ZM114.175 103.266C117.034 103.266 118.738 101.094 118.738 97.4844C118.738 93.8906 117.034 91.7188 114.191 91.7188C111.363 91.7188 109.597 93.9375 109.597 97.5C109.597 101.047 111.363 103.266 114.175 103.266ZM126.094 106V82.3438H129.453V106H126.094ZM134.263 106V88.9844H137.606V106H134.263ZM135.934 86C134.684 86 133.763 85.1094 133.763 83.9531C133.763 82.7812 134.684 81.8906 135.934 81.8906C137.184 81.8906 138.106 82.7812 138.106 83.9531C138.106 85.1094 137.184 86 135.934 86ZM156.65 94.5469H153.384C152.994 92.8906 151.619 91.6562 149.369 91.6562C146.556 91.6562 144.838 93.8125 144.838 97.4375C144.838 101.125 146.572 103.328 149.369 103.328C151.494 103.328 152.947 102.359 153.384 100.531H156.65C156.213 103.953 153.588 106.328 149.384 106.328C144.431 106.328 141.4 102.984 141.4 97.4375C141.4 91.9844 144.416 88.6562 149.369 88.6562C153.634 88.6562 156.213 91.1406 156.65 94.5469ZM165.756 103.453C168.287 103.453 170.162 101.844 170.162 99.7344V98.3125L166.006 98.5781C163.662 98.7344 162.6 99.5312 162.6 101.031C162.6 102.562 163.928 103.453 165.756 103.453ZM164.897 106.281C161.616 106.281 159.225 104.297 159.225 101.188C159.225 98.125 161.506 96.3594 165.553 96.1094L170.162 95.8438V94.375C170.162 92.5781 168.975 91.5625 166.678 91.5625C164.803 91.5625 163.506 92.25 163.131 93.4531H159.881C160.225 90.5312 162.975 88.6562 166.834 88.6562C171.1 88.6562 173.506 90.7812 173.506 94.375V106H170.272V103.609H170.006C168.991 105.312 167.131 106.281 164.897 106.281ZM192.394 94.5469H189.128C188.738 92.8906 187.363 91.6562 185.113 91.6562C182.3 91.6562 180.581 93.8125 180.581 97.4375C180.581 101.125 182.316 103.328 185.113 103.328C187.238 103.328 188.691 102.359 189.128 100.531H192.394C191.956 103.953 189.331 106.328 185.128 106.328C180.175 106.328 177.144 102.984 177.144 97.4375C177.144 91.9844 180.159 88.6562 185.113 88.6562C189.378 88.6562 191.956 91.1406 192.394 94.5469ZM196 106V88.9844H199.344V106H196ZM197.672 86C196.422 86 195.5 85.1094 195.5 83.9531C195.5 82.7812 196.422 81.8906 197.672 81.8906C198.922 81.8906 199.844 82.7812 199.844 83.9531C199.844 85.1094 198.922 86 197.672 86ZM211.169 106.328C206.184 106.328 203.138 103 203.138 97.4844C203.138 92 206.2 88.6562 211.169 88.6562C216.122 88.6562 219.184 92 219.184 97.4844C219.184 103 216.138 106.328 211.169 106.328ZM211.169 103.344C214.075 103.344 215.731 101.188 215.731 97.4844C215.731 93.7969 214.075 91.6406 211.169 91.6406C208.247 91.6406 206.606 93.7969 206.606 97.4844C206.606 101.203 208.247 103.344 211.169 103.344ZM212.622 86.1406H209.153L213.075 80.7656H217.013L212.622 86.1406ZM222.931 106V88.9844H226.166V91.6875H226.416C227.244 89.7969 228.931 88.6562 231.494 88.6562C235.291 88.6562 237.384 90.9375 237.384 94.9844V106H234.025V95.8281C234.025 93.0938 232.837 91.7344 230.353 91.7344C227.869 91.7344 226.291 93.3906 226.291 96.0469V106H222.931ZM118.506 144V126.984H121.741V129.594H121.991C122.475 127.922 124.366 126.703 126.584 126.703C127.084 126.703 127.725 126.75 128.084 126.844V130.156C127.803 130.062 126.803 129.953 126.209 129.953C123.662 129.953 121.866 131.562 121.866 133.953V144H118.506ZM137.769 144.328C132.784 144.328 129.737 141 129.737 135.484C129.737 130 132.8 126.656 137.769 126.656C142.722 126.656 145.784 130 145.784 135.484C145.784 141 142.737 144.328 137.769 144.328ZM137.769 141.344C140.675 141.344 142.331 139.188 142.331 135.484C142.331 131.797 140.675 129.641 137.769 129.641C134.847 129.641 133.206 131.797 133.206 135.484C133.206 139.203 134.847 141.344 137.769 141.344ZM149.688 144V120.344H153.047V144H149.688ZM164.778 129.516C162.294 129.516 160.559 131.266 160.372 133.922H168.966C168.887 131.25 167.262 129.516 164.778 129.516ZM168.95 139.406H172.184C171.419 142.453 168.7 144.328 164.809 144.328C159.934 144.328 156.95 140.984 156.95 135.547C156.95 130.109 159.997 126.656 164.794 126.656C169.528 126.656 172.387 129.891 172.387 135.234V136.406H160.372V136.594C160.481 139.578 162.216 141.469 164.903 141.469C166.934 141.469 168.325 140.734 168.95 139.406ZM175.728 131.797C175.728 128.781 178.494 126.656 182.337 126.656C186.166 126.656 188.666 128.438 188.994 131.438H185.775C185.462 130.188 184.244 129.391 182.337 129.391C180.462 129.391 179.041 130.281 179.041 131.609C179.041 132.625 179.9 133.266 181.744 133.688L184.572 134.344C187.806 135.094 189.322 136.484 189.322 138.984C189.322 142.188 186.337 144.328 182.275 144.328C178.228 144.328 175.587 142.5 175.291 139.484H178.65C179.072 140.797 180.322 141.609 182.353 141.609C184.447 141.609 185.931 140.672 185.931 139.312C185.931 138.297 185.134 137.641 183.431 137.234L180.462 136.547C177.228 135.781 175.728 134.328 175.728 131.797Z" fill="white"/>
<path d="M138.009 11.0361C137.315 11.4957 136.264 10.7873 136.299 9.9559C136.334 9.12453 137.248 8.50392 138.07 8.62687C138.893 8.74982 139.546 9.45825 139.777 10.2574C140.242 11.8763 139.039 13.6912 137.414 14.1333C135.79 14.5753 133.981 13.7849 132.968 12.4383C131.955 11.0917 131.668 9.29724 131.914 7.63156C132.248 5.39212 133.541 3.28734 135.465 2.09297C137.388 0.898601 139.92 0.690757 141.961 1.67143C143.74 2.52915 145.023 4.17141 145.945 5.91905C147.526 8.91375 148.214 12.371 147.9 15.7433C147.476 20.313 145.298 24.5108 144.001 28.9165C142.974 32.4147 142.502 36.1266 143.117 39.7215C143.732 43.3163 145.509 46.7794 148.377 49.0247C151.358 51.3548 155.195 52.2038 158.67 53.6967C158.954 53.8197 159.256 53.9602 159.414 54.2266C159.554 54.4637 159.557 54.7565 159.554 55.0316C159.534 57.6136 159.51 60.1955 159.49 62.7775C153.896 63.0146 148.19 61.949 143.272 59.2763C138.354 56.6036 134.267 52.2682 132.324 47.0165C129.953 40.6055 130.924 33.2607 133.986 27.1513C135.465 24.2005 137.388 21.5015 138.951 18.5975C140.415 15.8751 142.163 12.1953 141.232 9.04549C140.763 7.4647 139.402 6.06542 137.757 5.97174C137.338 5.94832 136.911 6.0098 136.536 6.20008C135.819 6.566 135.403 7.36225 135.289 8.16142C135.052 9.82417 135.359 12.7867 137.652 12.4822" fill="white"/>
<path d="M138.009 11.0361C137.315 11.4957 136.264 10.7873 136.299 9.9559C136.334 9.12453 137.248 8.50392 138.07 8.62687C138.893 8.74982 139.546 9.45825 139.777 10.2574C140.242 11.8763 139.039 13.6912 137.414 14.1333C135.79 14.5753 133.981 13.7849 132.968 12.4383C131.955 11.0917 131.668 9.29724 131.914 7.63156C132.248 5.39212 133.541 3.28734 135.465 2.09297C137.388 0.898601 139.92 0.690757 141.961 1.67143C143.74 2.52915 145.023 4.17141 145.945 5.91905C147.526 8.91375 148.214 12.371 147.9 15.7433C147.476 20.313 145.298 24.5108 144.001 28.9165C142.974 32.4147 142.502 36.1266 143.117 39.7215C143.732 43.3163 145.509 46.7794 148.377 49.0247C151.358 51.3548 155.195 52.2038 158.67 53.6967C158.954 53.8197 159.256 53.9602 159.414 54.2266C159.554 54.4637 159.557 54.7565 159.554 55.0316C159.534 57.6136 159.51 60.1955 159.49 62.7775C153.896 63.0146 148.19 61.949 143.272 59.2763C138.354 56.6036 134.267 52.2682 132.324 47.0165C129.953 40.6055 130.924 33.2607 133.986 27.1513C135.465 24.2005 137.388 21.5015 138.951 18.5975C140.415 15.8751 142.163 12.1953 141.232 9.04549C140.763 7.4647 139.402 6.06542 137.757 5.97174C137.338 5.94832 136.911 6.0098 136.536 6.20008C135.819 6.566 135.403 7.36225 135.289 8.16142C135.052 9.82417 135.359 12.7867 137.652 12.4822" stroke="white" stroke-miterlimit="10"/>
<path d="M180.991 10.9865C181.685 11.4461 182.736 10.7377 182.701 9.90634C182.666 9.07496 181.752 8.45436 180.93 8.57731C180.107 8.70026 179.454 9.40868 179.223 10.2079C178.758 11.8267 179.961 13.6417 181.586 14.0837C183.21 14.5257 185.019 13.7353 186.032 12.3888C187.045 11.0451 187.332 9.24768 187.086 7.582C186.752 5.34256 185.458 3.23778 183.535 2.04341C181.612 0.849041 179.08 0.641196 177.039 1.62187C175.26 2.47959 173.977 4.12185 173.055 5.86949C171.474 8.86419 170.786 12.3214 171.1 15.6938C171.524 20.2634 173.702 24.4613 174.999 28.867C176.026 32.3652 176.498 36.0771 175.883 39.6719C175.268 43.2638 173.491 46.7298 170.623 48.9751C167.642 51.3053 163.805 52.1542 160.33 53.6472C160.046 53.7701 159.744 53.9106 159.586 54.177C159.446 54.4142 159.443 54.7069 159.446 54.9821C159.466 57.564 159.49 60.146 159.51 62.7279C165.104 62.965 170.81 61.8995 175.728 59.2268C180.649 56.5541 184.733 52.2186 186.676 46.9669C189.047 40.556 188.076 33.2112 185.014 27.1017C183.535 24.1509 181.612 21.4519 180.049 18.548C178.585 15.8255 176.837 12.1458 177.768 8.99592C178.237 7.41514 179.598 6.01586 181.243 5.92218C181.662 5.89876 182.089 5.96024 182.464 6.15052C183.181 6.51644 183.597 7.31269 183.711 8.11186C183.948 9.77461 183.641 12.7371 181.348 12.4327" fill="white"/>
<path d="M180.991 10.9865C181.685 11.4461 182.736 10.7377 182.701 9.90634C182.666 9.07496 181.752 8.45436 180.93 8.57731C180.107 8.70026 179.454 9.40868 179.223 10.2079C178.758 11.8267 179.961 13.6417 181.586 14.0837C183.21 14.5257 185.019 13.7353 186.032 12.3888C187.045 11.0451 187.332 9.24768 187.086 7.582C186.752 5.34256 185.458 3.23778 183.535 2.04341C181.612 0.849041 179.08 0.641196 177.039 1.62187C175.26 2.47959 173.977 4.12185 173.055 5.86949C171.474 8.86419 170.786 12.3214 171.1 15.6938C171.524 20.2634 173.702 24.4613 174.999 28.867C176.026 32.3652 176.498 36.0771 175.883 39.6719C175.268 43.2638 173.491 46.7298 170.623 48.9751C167.642 51.3053 163.805 52.1542 160.33 53.6472C160.046 53.7701 159.744 53.9106 159.586 54.177C159.446 54.4142 159.443 54.7069 159.446 54.9821C159.466 57.564 159.49 60.146 159.51 62.7279C165.104 62.965 170.81 61.8995 175.728 59.2268C180.649 56.5541 184.733 52.2186 186.676 46.9669C189.047 40.556 188.076 33.2112 185.014 27.1017C183.535 24.151 181.612 21.4519 180.049 18.548C178.585 15.8255 176.837 12.1458 177.768 8.99593C178.237 7.41514 179.598 6.01586 181.243 5.92218C181.662 5.89876 182.089 5.96024 182.464 6.15052C183.181 6.51644 183.597 7.31269 183.711 8.11186C183.948 9.77461 183.641 12.7371 181.348 12.4327" stroke="white" stroke-miterlimit="10"/>
<path d="M162.768 52.6956C162.768 52.6956 160.453 53.7582 155.368 52.4321L159.068 62.7628L160.506 62.8126L162.768 52.8185" fill="white"/>
<path d="M162.768 52.6956C162.768 52.6956 160.453 53.7582 155.368 52.4321L159.068 62.7628L160.506 62.8126L162.768 52.8185" stroke="white" stroke-miterlimit="10"/>
<path d="M145.88 46.4224H173.082L171.993 47.725H146.46L145.88 46.4224Z" fill="white" stroke="white" stroke-miterlimit="10"/>
<path d="M147.944 13.0357H171.448V11.8472H147.821L147.944 13.0357Z" fill="white" stroke="white" stroke-miterlimit="10"/>
<path d="M149.165 11.9263V47.0196" stroke="white" stroke-width="2" stroke-miterlimit="10"/>
<path d="M152.321 11.9263V47.0196" stroke="white" stroke-width="2" stroke-miterlimit="10"/>
<path d="M155.108 11.9263V47.0196" stroke="white" stroke-width="2" stroke-miterlimit="10"/>
<path d="M158.263 11.9263V47.0196" stroke="white" stroke-width="2" stroke-miterlimit="10"/>
<path d="M160.678 12.4824V47.5758" stroke="white" stroke-width="2" stroke-miterlimit="10"/>
<path d="M163.834 12.4824V47.5758" stroke="white" stroke-width="2" stroke-miterlimit="10"/>
<path d="M166.618 12.4824V47.5758" stroke="white" stroke-width="2" stroke-miterlimit="10"/>
<path d="M169.777 12.4824V47.5758" stroke="white" stroke-width="2" stroke-miterlimit="10"/>
</svg>
