<svg width="32" height="28" viewBox="0 0 32 28" fill="none" xmlns="http://www.w3.org/2000/svg">
<path d="M28.0841 24.8534C28.3078 25.6589 28.5371 26.5118 29.0524 27.0752C29.5678 27.6385 30.4739 27.749 30.8873 27.0699C32.0992 25.0781 30.7032 21.0102 29.909 19.1342C28.7127 16.3106 26.9274 13.0096 24.7683 11.1968C20.6881 7.76943 15.4413 9.91744 10.9363 8.4012C8.91882 7.72205 7.10665 6.36551 5.47569 4.77556C3.96223 3.29968 2.62858 0.997248 0.812153 0.11453C-0.838631 -0.687462 0.490766 2.96099 0.778167 3.65418C1.43367 5.23886 2.38648 6.62699 3.4922 7.75539C7.79613 12.1444 13.4733 13.2921 18.8391 13.8502C20.5947 14.0327 22.3955 14.4117 23.8835 15.5823C26.3922 17.5565 27.1751 21.577 28.0841 24.8517V24.8534Z" fill="#FF4635"/>
<path d="M24.8236 19.2095C24.8236 19.2095 24.5645 14.5502 16.1392 14.8713C16.1392 14.8713 13.6772 15.8348 17.5649 18.2443C17.5649 18.2443 22.4904 19.6903 24.8236 19.2077V19.2095Z" fill="#FF4635"/>
<path d="M15.6819 17.9705C15.6819 17.9705 13.6404 17.0895 14.6966 14.8555C14.6966 14.8555 4.8655 11.8195 3.05048 8.28516C3.05048 8.28516 1.75505 12.783 8.88343 15.9962L15.6834 17.9705H15.6819Z" fill="#FF4635"/>
<path d="M25.6589 22.3684C25.7778 22.1753 25.6914 21.8595 25.6008 21.4874C25.5668 21.3488 25.3559 20.173 25.2115 20.173C25.2115 20.173 17.3073 19.6904 16.9165 20.173C16.3799 20.8346 17.1175 21.7822 17.5168 22.2139C18.2133 22.9668 18.8887 23.1774 19.8061 23.0967C20.7221 23.0159 21.6367 22.9247 22.5527 22.8334C23.4503 22.7439 24.3493 22.6544 25.2469 22.5632C25.4663 22.5404 25.5923 22.4719 25.6574 22.3666L25.6589 22.3684Z" fill="#FF4635"/>
<path d="M16.9731 23.1143C16.9731 23.1143 15.2884 21.5121 15.9736 19.959C15.9736 19.959 10.3077 18.4059 5.5125 15.6753C5.5125 15.6753 4.19725 21.0751 16.9731 23.1143Z" fill="#FF4635"/>
<path d="M26.2209 24.278C26.2351 24.285 26.2492 24.2938 26.2634 24.3025C26.354 24.3675 26.4135 24.4798 26.4687 24.5868C26.6994 25.0326 27.665 27.4807 28.026 27.5368C26.2959 27.2438 24.5588 27.0227 22.8287 26.7384C22.2355 26.6401 18.1638 26.2733 18.5744 25.1765C18.7032 24.8325 19.0231 24.6746 19.3176 24.5693C20.8481 24.027 22.4705 24.0849 24.0619 24.1499C24.6919 24.1744 25.3205 24.2008 25.9505 24.2253C26.0425 24.2288 26.1374 24.2341 26.2209 24.2762V24.278Z" fill="#FF4635"/>
<path d="M18.546 26.6453C18.546 26.6453 16.6942 26.7646 17.1954 24.1112C17.1954 24.1112 11.8636 23.869 8.62294 22.1018C8.62294 22.1018 9.15951 27.0138 18.5475 26.6453H18.546Z" fill="#FF4635"/>
</svg>
