<svg width="222" height="158" viewBox="0 0 222 158" fill="none" xmlns="http://www.w3.org/2000/svg">
<path d="M198.842 142.52C200.422 147.11 202.042 151.97 205.682 155.18C209.322 158.39 215.722 159.02 218.642 155.15C227.202 143.8 217.342 120.62 211.732 109.93C203.282 93.8401 190.672 75.0301 175.422 64.7001C146.602 45.1701 109.542 57.4101 77.722 48.7701C63.472 44.9001 50.6721 37.1701 39.1521 28.1101C28.4621 19.7001 19.0421 6.58009 6.21207 1.55009C-5.44793 -3.01991 3.94202 17.7701 5.97202 21.7201C10.602 30.7501 17.3321 38.6601 25.1421 45.0901C55.5421 70.1001 95.642 76.6401 133.542 79.8201C145.942 80.8601 158.662 83.0201 169.172 89.6901C186.892 100.94 192.422 123.85 198.842 142.51V142.52Z" fill="black"/>
<path d="M175.812 110.36C175.812 110.36 173.982 83.81 114.472 85.64C114.472 85.64 97.0822 91.13 124.542 104.86C124.542 104.86 159.332 113.1 175.812 110.35V110.36Z" fill="black"/>
<path d="M111.242 103.3C111.242 103.3 96.8223 98.2801 104.282 85.5501C104.282 85.5501 34.8423 68.2501 22.0223 48.1101C22.0223 48.1101 12.8722 73.7401 63.2222 92.0501L111.252 103.3H111.242Z" fill="black"/>
<path d="M181.712 128.36C182.552 127.26 181.942 125.46 181.302 123.34C181.062 122.55 179.572 115.85 178.552 115.85C178.552 115.85 122.722 113.1 119.962 115.85C116.172 119.62 121.382 125.02 124.202 127.48C129.122 131.77 133.892 132.97 140.372 132.51C146.842 132.05 153.302 131.53 159.772 131.01C166.112 130.5 172.462 129.99 178.802 129.47C180.352 129.34 181.242 128.95 181.702 128.35L181.712 128.36Z" fill="black"/>
<path d="M120.362 132.61C120.362 132.61 108.462 123.48 113.302 114.63C113.302 114.63 73.2819 105.78 39.4119 90.22C39.4119 90.22 30.122 120.99 120.362 132.61Z" fill="black"/>
<path d="M185.682 139.24C185.782 139.28 185.882 139.33 185.982 139.38C186.622 139.75 187.042 140.39 187.432 141C189.062 143.54 195.882 157.49 198.432 157.81C186.212 156.14 173.942 154.88 161.722 153.26C157.532 152.7 128.772 150.61 131.672 144.36C132.582 142.4 134.842 141.5 136.922 140.9C147.732 137.81 159.192 138.14 170.432 138.51C174.882 138.65 179.322 138.8 183.772 138.94C184.422 138.96 185.092 138.99 185.682 139.23V139.24Z" fill="black"/>
<path d="M131.472 152.73C131.472 152.73 118.392 153.41 121.932 138.29C121.932 138.29 84.2718 136.91 61.3818 126.84C61.3818 126.84 65.1718 154.83 131.482 152.73H131.472Z" fill="black"/>
</svg>
